<svg width="92" height="118" viewBox="0 0 92 118" fill="none" xmlns="http://www.w3.org/2000/svg">
<path d="M27.4131 87.6098L46.0231 56.7596L64.6332 87.6098L46.0231 98.6179L27.4131 87.6098Z" fill="#F79D1E"/>
<path d="M65.297 25.557C65.297 25.4145 65.297 25.2764 65.297 25.1115C65.22 20.0493 63.1543 15.2204 59.546 11.6678C55.9377 8.11512 51.0764 6.12378 46.0118 6.12378C40.9472 6.12378 36.0859 8.11512 32.4776 11.6678C28.8693 15.2204 26.8036 20.0493 26.7266 25.1115C26.7266 25.2541 26.7266 25.3922 26.7266 25.557C20.0593 28.633 14.2254 33.2598 9.71262 39.0506C5.19986 44.8414 2.13936 51.6279 0.786951 58.843C-0.565458 66.058 -0.170462 73.4918 1.93889 80.523C4.04825 87.5543 7.81068 93.9786 12.9117 99.2589L46.0007 44.4146L79.0852 99.2589C84.1872 93.979 87.9505 87.5548 90.0604 80.5234C92.1703 73.4919 92.5656 66.0577 91.2131 58.8424C89.8607 51.627 86.7998 44.8401 82.2864 39.0494C77.773 33.2586 71.9384 28.6322 65.2703 25.557H65.297ZM13.0053 73.0284C12.1545 73.0284 11.3229 72.7762 10.6156 72.3037C9.9083 71.8311 9.35709 71.1594 9.03173 70.3736C8.70637 69.5878 8.62148 68.7232 8.78777 67.8892C8.95407 67.0551 9.36409 66.2891 9.96596 65.6881C10.5678 65.087 11.3345 64.678 12.169 64.5126C13.0035 64.3472 13.8683 64.433 14.6541 64.759C15.4398 65.0851 16.1111 65.6368 16.5831 66.3444C17.0551 67.0519 17.3066 67.8835 17.3057 68.7339C17.3045 69.8733 16.8509 70.9656 16.0446 71.7709C15.2382 72.5761 14.145 73.0284 13.0053 73.0284V73.0284ZM23.5581 55.8236C22.7084 55.8236 21.8778 55.5717 21.1714 55.0999C20.4649 54.628 19.9142 53.9573 19.5891 53.1725C19.2639 52.3878 19.1789 51.5243 19.3446 50.6913C19.5104 49.8582 19.9196 49.093 20.5204 48.4924C21.1212 47.8918 21.8866 47.4828 22.72 47.3171C23.5533 47.1514 24.4171 47.2365 25.2021 47.5615C25.9871 47.8865 26.658 48.4369 27.1301 49.1432C27.6021 49.8494 27.8541 50.6797 27.8541 51.5291C27.8541 52.0931 27.743 52.6515 27.5271 53.1725C27.3112 53.6936 26.9947 54.167 26.5958 54.5658C26.1969 54.9646 25.7233 55.2809 25.2021 55.4967C24.6809 55.7126 24.1223 55.8236 23.5581 55.8236V55.8236ZM68.5012 55.8236C67.6515 55.8236 66.8209 55.5717 66.1145 55.0999C65.408 54.628 64.8574 53.9573 64.5322 53.1725C64.2071 52.3878 64.122 51.5243 64.2877 50.6913C64.4535 49.8582 64.8626 49.093 65.4635 48.4924C66.0643 47.8918 66.8297 47.4828 67.6631 47.3171C68.4964 47.1514 69.3602 47.2365 70.1452 47.5615C70.9302 47.8865 71.6011 48.4369 72.0732 49.1432C72.5452 49.8494 72.7972 50.6797 72.7972 51.5291C72.796 52.6677 72.343 53.7594 71.5376 54.5645C70.7322 55.3696 69.6402 55.8224 68.5012 55.8236V55.8236ZM79.0496 73.0284C78.1986 73.0293 77.3666 72.7779 76.6587 72.3058C75.9508 71.8338 75.3989 71.1624 75.0728 70.3767C74.7468 69.5909 74.6613 68.7262 74.8271 67.8919C74.9929 67.0575 75.4025 66.2912 76.0042 65.6897C76.6059 65.0882 77.3726 64.6786 78.2072 64.5129C79.0418 64.3472 79.9069 64.4327 80.6929 64.7586C81.4789 65.0845 82.1505 65.6362 82.6227 66.3439C83.0949 67.0515 83.3464 67.8833 83.3456 68.7339C83.3456 69.8729 82.8929 70.9652 82.0873 71.7706C81.2816 72.576 80.1889 73.0284 79.0496 73.0284V73.0284Z" fill="#F79D1E"/>
<path d="M27.836 8.58903C28.6857 8.58903 29.5163 8.33716 30.2228 7.86527C30.9293 7.39339 31.4799 6.72268 31.805 5.93795C32.1302 5.15323 32.2153 4.28976 32.0495 3.45671C31.8837 2.62365 31.4746 1.85846 30.8738 1.25786C30.273 0.657258 29.5075 0.248224 28.6742 0.0825186C27.8408 -0.0831866 26.977 0.00186489 26.192 0.326907C25.407 0.65195 24.7361 1.20241 24.264 1.90864C23.792 2.61487 23.54 3.44518 23.54 4.29456C23.54 5.43353 23.9926 6.52582 24.7983 7.3312C25.604 8.13658 26.6967 8.58903 27.836 8.58903V8.58903Z" fill="#F79D1E"/>
<path d="M64.2008 8.58903C65.0504 8.58903 65.881 8.33716 66.5875 7.86527C67.294 7.39339 67.8446 6.72268 68.1698 5.93795C68.4949 5.15323 68.58 4.28976 68.4142 3.45671C68.2485 2.62365 67.8393 1.85846 67.2385 1.25786C66.6377 0.657258 65.8722 0.248224 65.0389 0.0825186C64.2055 -0.0831866 63.3418 0.00186489 62.5568 0.326907C61.7718 0.65195 61.1008 1.20241 60.6288 1.90864C60.1567 2.61487 59.9048 3.44518 59.9048 4.29456C59.9048 5.43353 60.3574 6.52582 61.1631 7.3312C61.9687 8.13658 63.0614 8.58903 64.2008 8.58903V8.58903Z" fill="#F79D1E"/>
<path d="M27.4351 94.3187L46.0228 105.487V117.462L27.4351 94.3187Z" fill="#F79D1E"/>
<path d="M64.6107 94.3187L46.0229 105.487V117.462L64.6107 94.3187Z" fill="#F79D1E"/>
</svg>
