<svg width="39" height="36" viewBox="0 0 39 36" fill="none" xmlns="http://www.w3.org/2000/svg">
<path d="M36.3856 0L21.4442 11.0972L24.2072 4.54998L36.3856 0Z" fill="#EAEAEA"/>
<path d="M1.89147 0L16.7127 11.2023L14.0848 4.54998L1.89147 0ZM31.0084 25.7232L27.029 31.8199L35.5433 34.1624L37.991 25.8583L31.0084 25.7232ZM0.314743 25.8583L2.74741 34.1624L11.2617 31.8199L7.28238 25.7232L0.314743 25.8583Z" fill="#EAEAEA"/>
<path d="M10.7832 15.422L8.41064 19.0109L16.8649 19.3863L16.5646 10.3013L10.7832 15.422ZM27.4966 15.422L21.6401 10.1962L21.4449 19.3863L29.8842 19.0109L27.4966 15.422ZM11.2638 31.8199L16.3393 29.3422L11.9545 25.9185L11.2638 31.8199ZM21.9405 29.3422L27.031 31.8199L26.3253 25.9185L21.9405 29.3422Z" fill="#EEEEEE"/>
<path d="M27.0292 31.8199L21.9387 29.3422L22.3441 32.6608L22.2991 34.0574L27.0292 31.8199ZM11.262 31.8199L15.9922 34.0574L15.9621 32.6608L16.3375 29.3422L11.262 31.8199Z" fill="#CECECE"/>
<path d="M16.0669 23.7259L11.8322 22.4796L14.8205 21.1131L16.0669 23.7259ZM22.2086 23.7259L23.455 21.1131L26.4583 22.4796L22.2086 23.7259Z" fill="black"/>
<path d="M11.2619 31.8195L11.9827 25.7228L7.28258 25.8579L11.2619 31.8195ZM26.3084 25.7228L27.0292 31.8195L31.0086 25.8579L26.3084 25.7228ZM29.8823 19.0104L21.4431 19.3858L22.2239 23.7256L23.4703 21.1127L26.4736 22.4792L29.8823 19.0104ZM11.8326 22.4792L14.8359 21.1127L16.0672 23.7256L16.8631 19.3858L8.40881 19.0104L11.8326 22.4792Z" fill="#C4C4C4"/>
<path d="M8.41064 19.0104L11.9545 25.918L11.8344 22.4792L8.41064 19.0104ZM26.4754 22.4792L26.3253 25.918L29.8842 19.0104L26.4754 22.4792ZM16.8649 19.3858L16.069 23.7256L17.0601 28.8462L17.2854 22.1038L16.8649 19.3858ZM21.4449 19.3858L21.0395 22.0888L21.2197 28.8462L22.2258 23.7256L21.4449 19.3858Z" fill="#B4AFAB"/>
<path d="M22.2236 23.7259L21.2175 28.8465L21.9383 29.3421L26.3231 25.9183L26.4733 22.4795L22.2236 23.7259ZM11.8322 22.4795L11.9524 25.9183L16.3372 29.3421L17.058 28.8465L16.0669 23.7259L11.8322 22.4795Z" fill="#D6D6D6"/>
<path d="M22.2991 34.0578L22.3441 32.6613L21.9687 32.3309H16.3075L15.9621 32.6613L15.9922 34.0578L11.262 31.8204L12.9138 33.1719L16.2624 35.4994H22.0138L25.3774 33.1719L27.0292 31.8204L22.2991 34.0578Z" fill="#C0C0C0"/>
<path d="M21.9409 29.3423L21.2201 28.8467H17.0605L16.3397 29.3423L15.9643 32.6609L16.3097 32.3305H21.9709L22.3463 32.6609L21.9409 29.3423Z" fill="black"/>
<path d="M37.0156 11.8179L38.292 5.69123L36.3849 0L21.939 10.7217L27.4951 15.4219L35.3487 17.7194L37.0906 15.6922L36.3398 15.1516L37.5411 14.0554L36.6101 13.3346L37.8114 12.4186L37.0156 11.8179ZM0 5.69123L1.2764 11.8179L0.46551 12.4186L1.66683 13.3346L0.750823 14.0554L1.95214 15.1516L1.20132 15.6922L2.92821 17.7194L10.7818 15.4219L16.3379 10.7217L1.89207 0L0 5.69123Z" fill="#E0E0E0"/>
<path d="M35.3481 17.7191L27.4945 15.4216L29.8821 19.0105L26.3232 25.9181L31.0084 25.858H37.991L35.3481 17.7191ZM10.7812 15.4216L2.92761 17.7191L0.314743 25.858H7.28238L11.9525 25.9181L8.40861 19.0105L10.7812 15.4216ZM21.4429 19.3859L21.9384 10.7214L24.2209 4.54966H14.0848L16.3373 10.7214L16.8629 19.3859L17.0431 22.1189L17.0581 28.8463H21.2176L21.2477 22.1189L21.4429 19.3859Z" fill="#E3E3E3"/>
</svg>
