<svg width="22" height="34" viewBox="0 0 22 34" fill="none" xmlns="http://www.w3.org/2000/svg">
<g filter="url(#filter0_b_277_733)">
<path d="M0.0279541 29.7051V26.3387C0.0279541 25.786 0.23626 25.4812 0.701885 25.3608C3.5569 24.5954 6.41396 23.83 9.27306 23.0646C9.79382 22.9228 10.1308 22.5401 10.1921 22.0015C10.2226 21.7241 10.1798 21.4425 10.0695 21.1936L8.10287 16.495C7.98646 16.2115 7.90069 15.9138 7.94357 15.5878C8.01709 15.0776 8.29279 14.7658 8.71553 14.6382C9.29144 14.461 9.87347 14.3122 10.4555 14.1492C13.6965 13.2515 16.9395 12.3538 20.1846 11.4562C20.7789 11.2932 21.1465 11.768 21.1404 12.3208C21.1342 14.4256 21.1404 16.5233 21.1342 18.6281C21.1339 18.9973 21.0252 19.3554 20.8259 19.6438C20.6267 19.9321 20.3488 20.1338 20.0376 20.2156C19.0941 20.4778 18.1506 20.7401 17.2132 21.0023L12.0852 22.4268C11.9378 22.4666 11.7994 22.5422 11.6792 22.6486C11.559 22.7549 11.4597 22.8896 11.3878 23.0438C11.316 23.1979 11.2733 23.3679 11.2626 23.5425C11.2518 23.7171 11.2733 23.8924 11.3255 24.0568C11.448 24.4253 11.6012 24.7796 11.7543 25.134C12.3486 26.5655 12.949 27.99 13.5433 29.4216C13.5938 29.5366 13.6328 29.6578 13.6597 29.783C13.7333 30.2153 13.5249 30.5909 13.139 30.7043C12.4834 30.8957 11.8156 31.0657 11.1601 31.2429C7.78428 32.1406 4.41054 33.043 1.03885 33.9501C0.924855 33.9845 0.807423 34.0012 0.689631 33.9997C0.334286 33.9856 0.064714 33.6667 0.0402074 33.2273C0.0218275 32.9296 0.0340807 32.6249 0.0340807 32.3272C0.0279541 31.4484 0.0279541 30.5767 0.0279541 29.7051Z" fill="white"/>
<path d="M21.0828 4.29957V7.68004C21.0828 8.21865 20.8806 8.5163 20.4333 8.64387C16.2264 9.81321 12.0153 10.9802 7.8002 12.1448C7.10176 12.3362 6.66064 12.8464 6.45846 13.6331C6.42036 13.8042 6.40385 13.9809 6.40945 14.1575C6.3972 16.0497 6.3972 17.949 6.39107 19.8412C6.39107 20.4862 6.15826 20.9964 5.64362 21.2657C5.39856 21.3933 5.11673 21.4429 4.84716 21.5138C3.75049 21.8114 2.65178 22.1043 1.55102 22.3926C1.11603 22.5059 0.705548 22.4422 0.368583 22.0736C0.0990107 21.7831 0.000984486 21.4004 0.000984486 20.9893V16.7726C0.000984486 16.3049 0.0132378 15.8371 0.000984486 15.3765C-0.0235221 14.6323 0.411469 13.9733 1.0854 13.8032C2.43326 13.4559 3.775 13.0803 5.12286 12.7118C5.63749 12.57 5.90094 12.2582 5.94383 11.7196C5.96221 11.4574 5.88256 11.2235 5.78453 10.9896C5.05546 9.26752 4.32843 7.54303 3.60345 5.81617C3.52641 5.64273 3.4845 5.45127 3.48092 5.25631C3.48092 4.8807 3.67084 4.61848 3.9833 4.52635C4.69399 4.32083 5.41081 4.12239 6.1215 3.92396C10.7839 2.62705 15.4483 1.3325 20.1147 0.0403108C20.6049 -0.0943413 20.948 0.11118 21.0521 0.614354C21.0727 0.730884 21.0809 0.849873 21.0766 0.968701C21.0828 2.08135 21.0828 3.18904 21.0828 4.29957Z" fill="white"/>
</g>
<defs>
<filter id="filter0_b_277_733" x="-7" y="-7" width="35.1404" height="47.9998" filterUnits="userSpaceOnUse" color-interpolation-filters="sRGB">
<feFlood flood-opacity="0" result="BackgroundImageFix"/>
<feGaussianBlur in="BackgroundImageFix" stdDeviation="3.5"/>
<feComposite in2="SourceAlpha" operator="in" result="effect1_backgroundBlur_277_733"/>
<feBlend mode="normal" in="SourceGraphic" in2="effect1_backgroundBlur_277_733" result="shape"/>
</filter>
</defs>
</svg>
