<svg width="94" height="23" viewBox="0 0 94 23" fill="none" xmlns="http://www.w3.org/2000/svg">
<path fill-rule="evenodd" clip-rule="evenodd" d="M41.4 15.6952C41.9004 14.2474 42.1469 12.7241 42.1286 11.1924C42.1463 9.66784 41.8998 8.15178 41.4 6.71141C40.9539 5.43176 40.2552 4.25482 39.3454 3.25051C38.4473 2.29867 37.3536 1.55292 36.1395 1.06468C34.8278 0.521448 33.4206 0.246454 32.001 0.255922C30.5898 0.238286 29.1895 0.50594 27.8843 1.04282C26.6772 1.54008 25.5876 2.28468 24.6857 3.22865C23.755 4.23356 23.0408 5.41899 22.5873 6.71141C22.0813 8.14769 21.8346 9.66246 21.8587 11.1851C21.8332 12.7173 22.0799 14.2419 22.5873 15.6879C23.0357 16.9675 23.7397 18.1425 24.6566 19.1415C25.5567 20.0875 26.6468 20.8324 27.8552 21.3273C30.5021 22.3619 33.4415 22.3619 36.0885 21.3273C37.3 20.8343 38.3928 20.0892 39.2943 19.1415C40.2229 18.1476 40.9394 16.975 41.4 15.6952ZM39.9428 7.17043C40.3589 8.4671 40.5583 9.82351 40.533 11.1851C40.5549 12.5547 40.3506 13.9185 39.9282 15.2216C39.5592 16.3367 38.9639 17.3636 38.1796 18.238C37.43 19.0652 36.5035 19.7127 35.4691 20.1324C33.237 20.9924 30.7649 20.9924 28.5328 20.1324C27.4998 19.7101 26.5739 19.063 25.8224 18.238C25.0318 17.3659 24.4269 16.3421 24.0445 15.2289C23.6181 13.9243 23.4137 12.5573 23.4398 11.1851C23.4185 9.82743 23.6229 8.47568 24.0445 7.185C24.4159 6.0628 25.0135 5.02871 25.8005 4.1467C26.5539 3.31878 27.4823 2.66914 28.5182 2.24503C30.745 1.36989 33.2205 1.36989 35.4473 2.24503C36.4832 2.66914 37.4116 3.31878 38.165 4.1467C38.9539 5.02304 39.5541 6.05227 39.9282 7.17043H39.9428Z" fill="#E3E3E3"/>
<path fill-rule="evenodd" clip-rule="evenodd" d="M57.9174 22.1145C58.0309 22.1152 58.1424 22.0839 58.239 22.0242C58.3356 21.9645 58.4135 21.8788 58.4637 21.7769C58.5138 21.6751 58.5343 21.5611 58.5228 21.4481C58.5112 21.3352 58.468 21.2277 58.3983 21.1381L51.8845 12.6425C51.7052 12.4047 51.4857 12.2001 51.236 12.0378C52.0997 11.9418 52.9443 11.7184 53.7424 11.3748C54.4464 11.0689 55.0885 10.6368 55.6368 10.0997C56.1596 9.58111 56.5668 8.95788 56.8317 8.27088C57.1215 7.54344 57.2651 6.76601 57.2543 5.98305C57.3037 5.17873 57.1648 4.37398 56.8486 3.63278C56.5324 2.89158 56.0476 2.23437 55.4328 1.71339C54.2233 0.741912 52.4042 0.256172 49.9755 0.256172H45.174C45.0129 0.256161 44.8583 0.319641 44.7438 0.432849C44.6292 0.546056 44.5639 0.699863 44.562 0.860918V21.5243C44.5676 21.6828 44.6346 21.8329 44.7488 21.943C44.8629 22.0531 45.0154 22.1146 45.174 22.1145H45.4946C45.655 22.1145 45.8088 22.0508 45.9222 21.9373C46.0356 21.8239 46.0993 21.6701 46.0993 21.5097V12.8466C46.1012 12.6855 46.1666 12.5317 46.2811 12.4185C46.3957 12.3053 46.5503 12.2418 46.7114 12.2418H48.8972C49.0742 12.2273 49.2521 12.2273 49.4291 12.2418C49.5574 12.2568 49.6827 12.2912 49.8007 12.3438C49.9095 12.3868 50.0086 12.4512 50.0921 12.5333C50.1846 12.6268 50.2676 12.7293 50.3398 12.8393L57.1232 21.7137C57.2015 21.842 57.312 21.9475 57.4438 22.0198C57.5765 22.079 57.7212 22.1065 57.8664 22.0999L57.9174 22.1145ZM52.2706 10.7117C51.4536 10.9587 50.6031 11.0767 49.7497 11.0615H46.7114C46.551 11.0615 46.3971 10.9977 46.2837 10.8843C46.1703 10.7709 46.1066 10.6171 46.1066 10.4567V2.11413C46.1066 1.95374 46.1703 1.79992 46.2837 1.68651C46.3971 1.5731 46.551 1.50938 46.7114 1.50938H49.9755C51.4887 1.40735 52.9935 1.80405 54.2598 2.63873C54.7616 3.05714 55.1558 3.58976 55.4093 4.19193C55.6629 4.7941 55.7684 5.44828 55.717 6.09962C55.7246 6.80537 55.5857 7.50502 55.309 8.1543C55.0485 8.76075 54.6521 9.29922 54.1505 9.7281C53.5965 10.1792 52.9571 10.5138 52.2706 10.7117Z" fill="#E3E3E3"/>
<path d="M69.686 20.7374C70.6344 20.7562 71.5758 20.5724 72.4474 20.1982C73.2356 19.8536 73.9392 19.3414 74.5094 18.6973C75.0788 18.034 75.5099 17.2636 75.7772 16.4313C76.0752 15.5214 76.2228 14.569 76.2143 13.6116V1.0285C76.2143 0.823665 76.2957 0.627221 76.4406 0.482381C76.5854 0.337542 76.7818 0.256172 76.9867 0.256172C77.1915 0.256172 77.388 0.337542 77.5328 0.482381C77.6776 0.627221 77.759 0.823665 77.759 1.0285V13.6116C77.7672 14.7505 77.5773 15.8821 77.198 16.9559C76.8418 17.953 76.2949 18.8711 75.5877 19.6591C74.8746 20.4381 74.0058 21.0587 73.0376 21.4806C70.8686 22.355 68.4451 22.355 66.2761 21.4806C65.3069 21.0604 64.4378 20.4396 63.726 19.6591C63.0133 18.8739 62.4635 17.9551 62.1085 16.9559C61.7279 15.8826 61.5405 14.7503 61.5547 13.6116V1.0285C61.5547 0.823665 61.6361 0.627221 61.7809 0.482381C61.9258 0.337542 62.1222 0.256172 62.327 0.256172C62.5319 0.256172 62.7283 0.337542 62.8732 0.482381C63.018 0.627221 63.0994 0.823665 63.0994 1.0285V13.597C63.0939 14.5548 63.244 15.5071 63.5438 16.4167C63.8251 17.2506 64.2683 18.0207 64.848 18.6827C65.4149 19.3309 66.116 19.848 66.9027 20.1982C67.7801 20.5788 68.73 20.7628 69.686 20.7374Z" fill="#E3E3E3"/>
<path d="M93.0446 3.09706C93.0136 3.17367 92.9601 3.23907 92.8912 3.2846C92.8222 3.33014 92.7411 3.35367 92.6585 3.35207C92.4637 3.32124 92.2859 3.2233 92.1557 3.0752C91.8997 2.841 91.6243 2.62894 91.3324 2.44131C90.9254 2.17908 90.4873 1.96859 90.0282 1.8147C88.7471 1.39931 87.3675 1.39931 86.0864 1.8147C85.543 2.01453 85.0469 2.32462 84.6292 2.72546C84.2406 3.10245 83.9353 3.55666 83.733 4.05882C83.5364 4.56283 83.4352 5.09893 83.4343 5.6399C83.4097 6.27065 83.5664 6.89522 83.886 7.43957C84.1955 7.92372 84.6025 8.33811 85.0809 8.65635C85.6091 9.00182 86.1765 9.28311 86.7713 9.49425C87.4052 9.72012 88.0536 9.94599 88.7167 10.1646C89.3797 10.3832 90.0282 10.6309 90.6548 10.8932C91.2652 11.1421 91.835 11.4811 92.3452 11.8987C92.8427 12.2956 93.2522 12.7919 93.5474 13.3559C93.8652 14.0397 94.0199 14.7879 93.9991 15.5417C94.006 16.4051 93.8529 17.2624 93.5474 18.07C93.2587 18.8429 92.8092 19.5457 92.2286 20.132C91.6303 20.7379 90.91 21.2097 90.1156 21.5163C89.2054 21.8682 88.2352 22.039 87.2595 22.0191C86.0217 22.0598 84.7915 21.8103 83.6674 21.2904C82.8985 20.9133 82.191 20.422 81.569 19.8332C81.4128 19.6716 81.3162 19.4617 81.295 19.238C81.2738 19.0142 81.3293 18.7899 81.4524 18.6019C81.4992 18.5343 81.5611 18.4787 81.6332 18.4395C81.7053 18.4003 81.7857 18.3785 81.8677 18.376C81.9981 18.3995 82.1179 18.4632 82.2102 18.5582L82.7129 19.0026C82.9453 19.2075 83.1885 19.3996 83.4415 19.5782C83.7421 19.8017 84.0643 19.9946 84.4033 20.1538C85.3146 20.5812 86.3113 20.7955 87.3177 20.7804C88.0811 20.7951 88.8403 20.664 89.5546 20.3943C90.1719 20.1546 90.7344 19.7928 91.2085 19.3305C91.6619 18.8845 92.0125 18.3449 92.2359 17.7494C92.4799 17.1275 92.6035 16.4648 92.6002 15.7967C92.6252 15.1419 92.4662 14.4932 92.1411 13.9242C91.8358 13.4367 91.4281 13.0215 90.9462 12.7074C90.4209 12.3652 89.8557 12.0887 89.2631 11.8841C88.6292 11.6655 87.9808 11.4469 87.3177 11.2356C86.6547 11.0243 86.0062 10.7912 85.3724 10.507C84.7628 10.2563 84.1932 9.91755 83.682 9.50154C83.1801 9.08738 82.7727 8.57065 82.4871 7.98603C82.1617 7.26579 82.0047 6.48088 82.028 5.69091C82.0292 4.98198 82.1652 4.27974 82.4288 3.62165C82.698 2.95964 83.0997 2.35963 83.6091 1.85842C84.158 1.36729 84.7962 0.986348 85.4889 0.736359C86.3145 0.410381 87.1953 0.24709 88.0828 0.255477C89.0793 0.245759 90.0684 0.426282 90.9972 0.787362C91.6494 1.05449 92.2564 1.42068 92.7969 1.87299C92.9724 2.01762 93.0928 2.21821 93.1379 2.44108C93.183 2.66396 93.15 2.89557 93.0446 3.09706Z" fill="#E3E3E3"/>
<path fill-rule="evenodd" clip-rule="evenodd" d="M2.04739 0.256172C1.50439 0.256172 0.983629 0.471879 0.599668 0.85584C0.215707 1.2398 0 1.76056 0 2.30357L0 4.69341C0 5.23641 0.215707 5.75717 0.599668 6.14113C0.983629 6.52509 1.50439 6.7408 2.04739 6.7408H5.69044V20.0816C5.69613 20.619 5.91213 21.1328 6.29213 21.5128C6.67213 21.8928 7.18589 22.1088 7.72327 22.1145H10.1058C10.3753 22.1145 10.6421 22.0613 10.891 21.9579C11.1399 21.8546 11.3659 21.7031 11.5561 21.5122C11.7463 21.3213 11.897 21.0948 11.9995 20.8455C12.1019 20.5963 12.1542 20.3293 12.1532 20.0598V2.30357C12.1532 1.76056 11.9375 1.2398 11.5535 0.85584C11.1696 0.471879 10.6488 0.256172 10.1058 0.256172L2.04739 0.256172Z" fill="#E3E3E3"/>
<path d="M17.0157 6.74079C17.6573 6.74224 18.2849 6.5533 18.8191 6.19791C19.3532 5.84252 19.7699 5.33664 20.0164 4.74432C20.263 4.15199 20.3282 3.49984 20.2039 2.87041C20.0796 2.24099 19.7714 1.66258 19.3183 1.20841C18.8651 0.754231 18.2874 0.444706 17.6583 0.319009C17.0291 0.193312 16.3768 0.257094 15.7839 0.502281C15.1911 0.747469 14.6842 1.16304 14.3276 1.69639C13.9711 2.22974 13.7807 2.8569 13.7807 3.49848C13.7807 4.35713 14.1213 5.18073 14.7278 5.78857C15.3343 6.39641 16.1571 6.73886 17.0157 6.74079Z" fill="#E3E3E3"/>
</svg>
