<svg width="47" height="30" viewBox="0 0 47 30" fill="none" xmlns="http://www.w3.org/2000/svg">
<path d="M9.89267 6.52954C17.4359 -0.857564 29.6632 -0.857564 37.2162 6.52954L38.1237 7.41756C38.5043 7.78837 38.5043 8.38364 38.1237 8.75446L35.0205 11.7991C34.8351 11.9845 34.5229 11.9845 34.3375 11.7991L33.0884 10.5793C27.8286 5.42684 19.29 5.42684 14.0302 10.5793L12.6933 11.8869C12.5079 12.0723 12.1957 12.0723 12.0102 11.8869L8.89731 8.84228C8.51673 8.47146 8.51673 7.8762 8.89731 7.50538L9.89267 6.52954ZM43.6372 12.8139L46.3988 15.517C46.7794 15.8878 46.7794 16.4831 46.3988 16.8539L33.9374 29.0617C33.5568 29.4325 32.9518 29.4325 32.5712 29.0617L23.7203 20.3962C23.6227 20.3084 23.4764 20.3084 23.3788 20.3962L14.5377 29.0617C14.1571 29.4325 13.5521 29.4325 13.1715 29.0617L0.700259 16.8637C0.319681 16.4929 0.319681 15.8976 0.700259 15.5268L3.46188 12.8237C3.84246 12.4529 4.44748 12.4529 4.82806 12.8237L13.6789 21.4892C13.7765 21.577 13.9229 21.577 14.0205 21.4892L22.8616 12.8237C23.2422 12.4529 23.8472 12.4529 24.2278 12.8237L33.0786 21.4892C33.1762 21.577 33.3226 21.577 33.4202 21.4892L42.271 12.8237C42.6418 12.4431 43.2566 12.4431 43.6372 12.8139Z" fill="#E3E3E3"/>
</svg>
