<svg width="39" height="45" viewBox="0 0 39 45" fill="none" xmlns="http://www.w3.org/2000/svg">
<path d="M15.0406 10.0505C14.562 9.98214 14.5392 9.95935 14.7671 9.93656C15.2001 9.86819 16.2028 9.95935 16.9092 10.1189C18.55 10.5063 20.0312 11.509 21.6036 13.2637L22.0138 13.7422L22.6063 13.6511C25.1358 13.2409 27.7337 13.5599 29.8986 14.5626C30.4911 14.8361 31.4254 15.383 31.5394 15.5197C31.585 15.5653 31.6533 15.8616 31.6989 16.1578C31.8584 17.2289 31.7901 18.0265 31.4482 18.6417C31.2659 18.9836 31.2659 19.0747 31.3799 19.371C31.471 19.5989 31.7445 19.7584 31.9951 19.7584C32.5421 19.7584 33.1118 18.8924 33.3852 17.6846L33.4992 17.2061L33.7043 17.434C34.8665 18.7329 35.778 20.5332 35.9148 21.8093L35.9603 22.1512L35.7552 21.8549C35.4134 21.3308 35.0944 20.989 34.6614 20.6927C33.8866 20.1686 33.0662 20.009 30.9013 19.8951C28.9415 19.7812 27.8249 19.6216 26.731 19.257C24.8624 18.6417 23.9053 17.8441 21.6948 14.9044C20.7149 13.6055 20.0996 12.8991 19.4843 12.3066C18.1398 11.0076 16.7953 10.324 15.0406 10.0505Z" fill="white"/>
<path d="M32.0179 12.9438C32.0634 12.0778 32.1774 11.5081 32.4281 10.9839C32.5192 10.7789 32.6104 10.5965 32.6331 10.5965C32.6559 10.5965 32.6104 10.7561 32.542 10.9384C32.3597 11.4397 32.3369 12.1462 32.4508 12.9438C32.6104 13.9692 32.6787 14.106 33.7726 15.2226C34.2739 15.7467 34.8664 16.4076 35.0943 16.6811L35.4817 17.1824L35.0943 16.8178C34.6157 16.362 33.5219 15.4961 33.2712 15.3821C33.1117 15.291 33.0889 15.291 32.975 15.4049C32.8838 15.4961 32.861 15.6328 32.861 16.2937C32.8382 17.3191 32.7015 17.9572 32.3597 18.6181C32.1774 18.9599 32.1546 18.8915 32.3141 18.5041C32.4281 18.2079 32.4508 18.0712 32.4508 17.0913C32.4508 15.1087 32.223 14.6301 30.8329 13.8325C30.491 13.6274 29.8985 13.3312 29.5567 13.1716C29.1921 13.0121 28.9186 12.8754 28.9414 12.8754C28.987 12.8298 30.3315 13.2172 30.8556 13.4451C31.6532 13.7641 31.79 13.7869 31.8811 13.7641C31.9495 13.6958 31.9951 13.5135 32.0179 12.9438Z" fill="white"/>
<path d="M15.9751 16.3399C15.018 15.0182 14.4027 12.9672 14.5395 11.4404L14.5851 10.9618L14.8129 11.0074C15.2231 11.0758 15.9296 11.3493 16.2714 11.5543C17.1829 12.1013 17.5931 12.8533 17.9805 14.7219C18.0945 15.2689 18.254 15.9069 18.3224 16.112C18.4363 16.4539 18.8693 17.2515 19.2339 17.7528C19.4846 18.1174 19.325 18.2997 18.7553 18.2541C17.8894 18.163 16.7272 17.3654 15.9751 16.3399Z" fill="white"/>
<path d="M30.8562 26.2525C26.3441 24.4294 24.7489 22.857 24.7489 20.1907C24.7489 19.8033 24.7717 19.4843 24.7717 19.4843C24.7945 19.4843 24.954 19.621 25.1591 19.7806C26.0707 20.5098 27.0961 20.8288 29.9447 21.239C31.6083 21.4897 32.5654 21.672 33.4313 21.9682C36.1887 22.8798 37.8979 24.7484 38.3081 27.2779C38.422 28.0072 38.3536 29.3973 38.1713 30.1265C38.0118 30.6962 37.556 31.7445 37.4421 31.7673C37.4193 31.7673 37.3737 31.6533 37.3737 31.471C37.3281 30.5139 36.8496 29.6024 36.052 28.8959C35.0949 28.0755 33.8643 27.4603 30.8562 26.2525Z" fill="white"/>
<path d="M27.6664 27.0046C27.6208 26.6628 27.5068 26.2298 27.4385 26.0475L27.3245 25.7056L27.5296 25.9563C27.8259 26.2981 28.0538 26.7083 28.2589 27.278C28.4184 27.711 28.4184 27.8478 28.4184 28.5542C28.4184 29.2378 28.3956 29.3974 28.2589 29.7848C28.031 30.4001 27.7575 30.833 27.3018 31.3116C26.4814 32.1548 25.4103 32.6105 23.8835 32.8156C23.61 32.8384 22.8352 32.9068 22.1516 32.9524C20.4424 33.0435 19.303 33.2258 18.2775 33.5904C18.1408 33.636 18.0041 33.6816 17.9813 33.6588C17.9357 33.6132 18.6421 33.203 19.2119 32.9296C20.0095 32.5422 20.8298 32.3371 22.6301 32.018C23.5189 31.8813 24.4304 31.699 24.6583 31.6078C26.9143 30.9014 28.031 29.1467 27.6664 27.0046Z" fill="white"/>
<path d="M29.7402 30.6735C29.1477 29.3746 29.0109 28.144 29.33 26.9818C29.3755 26.8678 29.4211 26.7539 29.4667 26.7539C29.5123 26.7539 29.649 26.8223 29.7857 26.9134C30.0592 27.0957 30.6289 27.4148 32.0874 28.2124C33.9332 29.215 34.9815 29.9899 35.7107 30.8786C36.3488 31.6534 36.7362 32.5422 36.9185 33.636C37.0325 34.2513 36.9641 35.7325 36.8046 36.3478C36.3032 38.2848 35.1638 39.8345 33.5003 40.7232C33.2496 40.8599 33.0445 40.9511 33.0217 40.9511C32.9989 40.9511 33.0901 40.7232 33.2268 40.4497C33.7737 39.2875 33.8421 38.1709 33.4319 36.9175C33.1812 36.1427 32.6571 35.2084 31.6088 33.636C30.3554 31.8129 30.0592 31.3344 29.7402 30.6735Z" fill="white"/>
<path d="M12.7624 37.6472C14.4487 36.2343 16.5225 35.2316 18.4367 34.9126C19.2571 34.7759 20.6244 34.8214 21.3764 35.0265C22.5842 35.3456 23.6781 36.0292 24.2478 36.8724C24.7947 37.6928 25.0454 38.3992 25.296 39.9716C25.3872 40.5869 25.5011 41.225 25.5239 41.3617C25.7062 42.1821 26.0708 42.8202 26.5266 43.162C27.2331 43.6861 28.4636 43.7089 29.6714 43.2532C29.8765 43.1848 30.0588 43.1164 30.0588 43.1392C30.1044 43.1848 29.4891 43.595 29.0789 43.8001C28.5092 44.0963 28.0534 44.1875 27.4382 44.1875C26.3443 44.1875 25.41 43.6178 24.658 42.4784C24.4984 42.2505 24.1794 41.5896 23.9059 40.9743C23.1083 39.1285 22.6982 38.5815 21.7638 37.9663C20.9434 37.4421 19.8952 37.3282 19.0976 37.7156C18.0493 38.2169 17.7759 39.5614 18.5051 40.3818C18.8013 40.7236 19.3483 40.9971 19.804 41.0655C20.6472 41.1794 21.3764 40.5186 21.3764 39.6754C21.3764 39.1285 21.1713 38.8094 20.6244 38.5587C19.8952 38.2397 19.0976 38.6043 19.1204 39.3108C19.1204 39.607 19.2571 39.7893 19.5534 39.9261C19.7357 40.0172 19.7357 40.0172 19.5989 39.9944C18.9381 39.8577 18.7785 39.0373 19.3027 38.5132C19.9408 37.8751 21.2853 38.1486 21.741 39.0373C21.9234 39.4019 21.9461 40.1312 21.7866 40.5869C21.3992 41.5896 20.3054 42.1137 19.1887 41.8175C18.4367 41.6124 18.1177 41.4073 17.2061 40.473C15.611 38.8322 14.9957 38.5132 12.7168 38.1713L12.2838 38.103L12.7624 37.6472Z" fill="white"/>
<path fill-rule="evenodd" clip-rule="evenodd" d="M0.77582 0.979903C6.08553 7.42903 14.2666 17.4559 14.6768 18.0029C15.0186 18.4586 14.8819 18.8916 14.3122 19.2107C13.9931 19.393 13.3322 19.5753 13.0132 19.5753C12.6486 19.5753 12.2156 19.393 11.9194 19.0967C11.7143 18.8916 10.8255 17.5927 8.82014 14.4707C7.29331 12.0779 5.99437 10.0953 5.97158 10.0725C5.88043 10.0269 5.88043 10.0269 8.66062 14.9948C10.4153 18.1168 10.985 19.2334 10.985 19.3702C10.985 19.6664 10.8939 19.8259 10.5293 20.2361C9.91398 20.9198 9.64052 21.6946 9.43543 23.3126C9.20754 25.1129 8.59225 26.389 6.83754 28.5539C5.81206 29.8301 5.65255 30.0579 5.40187 30.5821C5.08283 31.2202 4.99168 31.5848 4.9461 32.4052C4.90053 33.2711 4.99168 33.818 5.24235 34.6384C5.47024 35.3677 5.72091 35.8462 6.3362 36.7805C6.86033 37.6009 7.17937 38.2162 7.17937 38.4441C7.17937 38.6264 7.22495 38.6264 8.04533 38.4441C10.0051 37.9883 11.6231 37.2135 12.5119 36.2564C13.0588 35.6639 13.1955 35.3449 13.1955 34.5245C13.1955 34.0004 13.1727 33.8864 13.036 33.5674C12.8081 33.066 12.3751 32.6558 11.4408 32.0178C10.2102 31.1746 9.6861 30.4909 9.54937 29.5794C9.43543 28.8046 9.57216 28.2805 10.2558 26.8448C10.9622 25.3635 11.1446 24.7482 11.2585 23.2442C11.3269 22.2871 11.4408 21.8997 11.7143 21.6034C12.0105 21.2844 12.2612 21.1705 12.9676 21.0793C14.1298 20.9198 14.8819 20.6235 15.4744 20.0538C15.9985 19.5753 16.2264 19.0967 16.2492 18.3903L16.272 17.8661L15.9757 17.5471C14.9046 16.3165 0.0693789 0 0.00101364 0C-0.0217748 0 0.34284 0.43298 0.77582 0.979903ZM7.77187 33.3851C8.02254 32.9521 7.88581 32.4052 7.47562 32.1317C7.08822 31.881 6.49572 31.995 6.49572 32.3368C6.49572 32.4279 6.54129 32.5191 6.67802 32.5647C6.88312 32.6786 6.90591 32.7926 6.74639 33.0432C6.58687 33.2939 6.58687 33.5218 6.79197 33.6813C7.111 33.932 7.54398 33.7953 7.77187 33.3851Z" fill="white"/>
<path fill-rule="evenodd" clip-rule="evenodd" d="M17.0009 21.3983C16.454 21.5578 15.9298 22.1503 15.7703 22.7428C15.6792 23.1074 15.7247 23.7683 15.8842 23.9734C16.1349 24.2924 16.3628 24.3836 17.0009 24.3836C18.2542 24.3836 19.3253 23.8366 19.4392 23.1758C19.5532 22.6289 19.0746 21.8768 18.4138 21.535C18.0719 21.3527 17.3655 21.2843 17.0009 21.3983ZM18.4593 22.5377C18.6416 22.2642 18.5733 21.968 18.2315 21.7629C17.6162 21.3755 16.6818 21.6945 16.6818 22.287C16.6818 22.5833 17.1604 22.9023 17.6162 22.9023C17.9124 22.9023 18.3226 22.72 18.4593 22.5377Z" fill="white"/>
</svg>
