<svg width="41" height="39" viewBox="0 0 41 39" fill="none" xmlns="http://www.w3.org/2000/svg">
<path d="M9.67946 21.82L10.755 13.7392L1.42609 7.26303L9.94978 10.1503L11.9628 7.06173L19.3132 2.5008L35.5151 11.4271L36.3548 25.0466L29.1367 35.0772L23.4313 35.9514L26.3818 30.5508V25.3514L24.2365 21.2909L22.0567 19.8473L18.7035 23.3039V26.9619L16.0866 29.412L12.7623 29.8146L11.2899 30.6486L8.87426 29.8779L7.86775 26.2544L9.67946 23.7065V21.82Z" fill="#A29F9F"/>
<path d="M24.5771 7.1947C22.7999 6.82661 20.8559 6.92438 20.8559 6.92438C20.8559 6.92438 20.2175 9.87489 16.2605 10.6513C16.2893 10.6513 21.4886 12.4285 24.5771 7.1947Z" fill="#D1CFCF"/>
<path d="M26.187 33.967C28.3323 32.2876 29.9427 29.9755 30.6846 27.3586C30.7191 27.2608 31.0182 27.0883 31.2195 26.956C31.5531 26.7547 31.8924 26.5879 31.9557 26.3176C32.088 25.5469 32.157 24.7417 32.157 23.9365C32.157 23.6374 31.8522 23.3326 31.5531 23.0335C31.3173 22.8322 31.0815 22.5964 31.0815 22.4296C30.7479 19.3755 29.3388 16.5228 27.0899 14.4465L26.8541 14.6823C29.0339 16.7299 30.4431 19.5136 30.7479 22.4641C30.7824 22.7344 31.047 22.999 31.3173 23.2693C31.5531 23.4706 31.8234 23.7754 31.8234 23.9077C31.8234 24.6784 31.7544 25.4491 31.6221 26.2198C31.5876 26.3521 31.2885 26.4901 31.0527 26.6224C30.7191 26.7892 30.4143 26.956 30.351 27.2263C29.5458 30.079 27.6996 32.5637 25.2495 34.1741C25.6866 33.2366 27.0612 30.1826 27.7974 28.6354L27.6651 23.6719L23.4032 19.5481L20.9876 19.8817L18.3362 24.178C18.3362 24.178 19.5785 25.7539 17.8301 27.6002C16.1219 29.4119 14.776 29.8145 14.776 29.8145L13.5337 29.1416C13.9018 28.6699 14.6437 27.9683 15.2131 27.4966C16.1851 26.6914 17.1571 26.6224 17.1571 25.7539C17.1974 23.9365 15.2476 24.4368 15.2476 24.4368L14.5402 25.1098L14.2411 27.5944L12.7688 29.4406L12.602 29.4061L10.1863 28.8712C10.1863 28.8712 11.6645 28.1005 11.9003 27.2263C12.1361 26.3866 11.4287 23.6029 11.3942 23.4361C11.4287 23.4706 12.1016 24.04 12.4007 24.9775C12.9355 23.4994 13.643 22.0902 13.8443 21.958C14.0456 21.8257 16.7603 20.3821 16.7603 20.3821L15.8573 22.7632L16.5302 22.3951L18.1406 18.4381C18.1406 18.4381 19.7165 17.6674 20.8898 17.6674C23.0006 17.6328 26.1237 15.0504 24.7146 10.4205C25.1172 10.5873 32.0937 14.0784 33.3015 20.9227C34.2045 26.1853 31.2195 31.1143 26.187 33.967Z" fill="#D1CFCF"/>
<path d="M18.2031 7.93052C18.9738 7.02178 18.6747 5.68169 18.6747 5.68169L16.4259 9.00604C16.3914 9.00604 17.2254 9.04055 18.2031 7.93052Z" fill="white"/>
<path d="M10.6515 26.0831L10.9218 24.743C10.9218 24.743 9.81176 26.687 9.71399 26.9573C9.61046 27.2622 9.783 27.7971 10.2144 27.7626C10.6515 27.728 11.1864 27.0896 11.1864 26.6238C11.1864 26.0199 10.6515 26.0831 10.6515 26.0831Z" fill="white"/>
<path d="M30.5805 4.74449C30.5805 4.74449 32.26 4.81351 34.0027 5.01481C30.0744 1.92626 26.3532 1.02328 23.3337 1.02328C19.1754 1.02328 16.3571 2.73722 16.1846 2.835L17.4959 0.75296C17.4959 0.75296 12.2621 0.246829 10.4159 5.78551C9.94423 4.6122 9.51287 2.89826 9.51287 2.89826C9.51287 2.89826 6.79242 5.28513 8.06925 9.24215C4.94619 8.10335 0.488793 6.5217 0.316249 6.49294C0.0804382 6.45843 0.0114203 6.56196 0.0114203 6.56196C0.0114203 6.56196 -0.0575974 6.65973 0.143704 6.83228C0.517551 7.1256 7.56312 12.3307 9.11026 13.3372C8.77668 14.545 8.77668 15.1144 9.11026 15.6838C9.58189 16.4545 9.61064 16.8571 9.54738 17.4265C9.47836 17.9959 8.87445 22.9307 8.74217 23.5346C8.60989 24.1385 7.20077 26.2838 7.26404 26.9222C7.33306 27.5606 8.20153 30.2753 8.97798 30.5801C9.54738 30.7814 10.9565 31.2186 11.894 31.2186C12.2276 31.2186 12.5324 31.1495 12.6647 31.0173C13.2341 30.5169 13.4009 30.4134 13.8035 30.4134C13.838 30.4134 13.8725 30.4134 13.9012 30.4134C14.068 30.4134 14.2693 30.4479 14.5052 30.4479C15.04 30.4479 15.7475 30.3443 16.2479 29.8785C16.984 29.1423 18.2609 28.1358 18.6635 27.6641C19.1696 27.0257 19.4342 26.1573 19.3019 25.283C19.1984 24.4778 19.6355 23.7704 20.1416 23.0687C20.78 22.229 21.9533 20.7221 21.9533 20.7221C24.2712 22.4591 25.7148 25.1105 25.7148 28.061C25.7148 33.2948 21.1539 37.5222 15.5174 37.5222C14.6432 37.5222 13.8092 37.4244 12.9695 37.2231C15.5519 38.1261 17.7317 38.4309 19.5147 38.4309C23.3049 38.4309 25.3179 37.0563 25.3179 37.0563C25.3179 37.0563 24.6163 37.965 23.4717 39.0003C23.5062 39.0003 23.5062 39.0003 23.5062 39.0003C29.7811 38.1261 32.8351 32.9613 32.8351 32.9613C32.8351 32.9613 32.5993 34.6407 32.3002 35.7795C40.6456 29.5046 39.2365 21.6538 39.202 21.3893C39.271 21.4871 40.1108 22.4936 40.5421 23.0342C41.888 9.20764 30.5805 4.74449 30.5805 4.74449ZM17.7317 26.8244C17.5995 26.9912 17.0301 27.4973 16.6275 27.8654C16.2248 28.2335 15.7877 28.6016 15.4542 28.941C15.3219 29.0733 15.0515 29.1423 14.6489 29.1423C14.5167 29.1423 14.3786 29.1423 14.2808 29.1423C14.2118 29.1423 14.1486 29.1423 14.0795 29.1423C14.0105 29.1423 13.976 29.1423 13.9473 29.1423C13.8437 29.1423 13.746 29.1423 13.6424 29.1423C14.1486 28.4693 15.6209 26.928 16.1271 26.5944C16.731 26.1918 17.0358 25.7892 16.662 25.0875C16.2939 24.38 15.3219 24.5526 15.3219 24.5526C15.3219 24.5526 15.8913 24.3168 16.3974 24.3168C15.759 24.15 14.9538 24.3168 14.5857 24.6849C14.1831 25.053 14.2521 26.3643 14.0853 27.1983C13.9185 28.0725 13.3491 28.5096 12.4749 29.3148C12.0033 29.7519 11.6697 29.8842 11.3994 29.8842C10.83 29.7864 10.157 29.6139 9.68541 29.4471C9.35183 29.01 8.8457 27.5664 8.71341 26.9625C8.81119 26.6289 9.21379 25.9214 9.41509 25.5188C9.8177 24.7481 10.0535 24.311 10.1225 23.9084C10.2548 23.339 10.6919 19.8134 10.8587 18.341C11.2958 18.9104 11.8997 19.8536 11.7617 20.4575C12.7337 19.0829 12.032 17.7371 11.6927 17.2022C11.3936 16.6673 10.991 15.5918 11.3246 14.453C11.6582 13.3142 12.866 10.1566 12.866 10.1566C12.866 10.1566 13.2686 10.8641 13.838 10.726C14.4074 10.5937 19.0028 3.68046 19.0028 3.68046C19.0028 3.68046 20.2451 6.39516 18.9338 8.37942C17.5937 10.3579 16.2824 10.726 16.2824 10.726C16.2824 10.726 18.1286 11.0596 19.8368 9.8173C20.5385 11.4622 21.2114 13.1704 21.2459 13.4062C21.1424 13.642 19.8023 16.8629 19.67 17.0642C19.601 17.1332 19.1351 17.2655 18.7958 17.3345C18.2264 17.5013 17.8928 17.6048 17.7547 17.7026C17.5189 17.9039 16.4434 20.8544 15.943 22.298C15.3391 22.4648 14.7352 22.8041 14.2981 23.4713C14.5339 23.3045 15.2701 23.201 15.8107 23.1377C16.2824 23.1032 17.7202 23.8739 18.0941 25.3175C18.0941 25.352 18.0941 25.352 18.0941 25.3866C18.1688 25.9157 18.0021 26.4218 17.7317 26.8244ZM14.5799 27.227C14.8848 26.7899 14.8502 26.0537 14.8848 25.8179C14.9193 25.5821 14.9825 25.145 15.2528 25.0817C15.5232 25.0127 16.1616 25.1162 16.1616 25.5821C16.1616 26.0192 15.69 26.117 15.3564 26.4218C15.1148 26.6519 14.6432 27.158 14.5799 27.227ZM27.9636 20.8141C28.2972 19.1059 28.3317 17.6278 28.2339 16.42C29.5395 18.1627 30.3447 20.2792 30.5805 22.4591C30.6151 22.7294 30.8796 22.9939 31.1499 23.2643C31.3858 23.4656 31.6561 23.7359 31.6561 23.9027C31.6561 24.6734 31.5871 25.4441 31.4548 26.2205C31.4203 26.3183 31.1212 26.4908 30.8854 26.6231C30.5518 26.7899 30.247 26.9567 30.1837 27.227C29.4475 29.8094 27.8658 32.0928 25.7551 33.7032C28.8724 30.4479 30.3792 25.076 27.9636 20.8141ZM25.8528 34.0023C28.0326 32.3228 29.7121 29.9762 30.4483 27.3248C30.4828 27.227 30.7818 27.0545 30.9832 26.9222C31.3167 26.7554 31.6561 26.5541 31.7193 26.2838C31.8516 25.5131 31.9206 24.7079 31.9206 23.9027C31.9206 23.6036 31.6158 23.2988 31.3167 22.9997C31.1499 22.7984 30.8796 22.5626 30.8796 22.3958C30.6093 19.9457 29.6373 17.6336 28.1304 15.7183C27.4575 11.6923 24.7773 10.45 24.7083 10.4154C24.7773 10.519 26.52 13.0324 25.3122 15.9829C24.0699 18.9679 20.8835 18.502 20.6132 18.5308C20.3429 18.5308 19.3076 19.8709 17.9963 22.3555C17.8295 22.2865 17.1221 22.1197 16.3169 22.2577C16.9208 20.5783 17.8295 18.1972 17.9963 17.9959C18.0653 17.9269 18.5657 17.7946 18.905 17.6968C19.5435 17.53 19.8425 17.4265 19.9461 17.2942C20.0151 17.1907 20.3487 16.42 20.6822 15.6148C20.9871 15.6148 21.7578 15.5458 21.821 15.5113C21.8901 15.4422 22.5285 13.8031 22.5285 13.6018C22.5285 13.435 21.2171 10.1796 20.7168 8.93732C20.9526 8.667 21.1884 8.33341 21.4184 7.96532C28.2972 8.70726 33.6691 14.545 33.6691 21.6193C33.6691 27.0545 30.4828 31.788 25.8528 34.0023Z" fill="white"/>
<path d="M16.9261 15.8845C17.5645 15.1483 17.2309 13.7737 16.0519 13.5379C16.3567 12.8363 16.7881 11.4271 16.7881 11.4271C16.7881 11.4271 13.3659 16.7933 13.0668 16.8968C12.762 17.0003 12.4629 15.8213 12.4629 15.8213C11.8245 18.2714 13.5385 18.605 13.7398 17.8343C14.6773 17.5927 16.2877 16.5862 16.9261 15.8845Z" fill="white"/>
<path d="M14.0058 17.1907L15.7485 14.2057C15.7485 14.2057 16.755 14.7118 16.2489 15.517C15.6162 16.4545 14.0058 17.1907 14.0058 17.1907Z" fill="#D1CFCF"/>
<path d="M35.5768 31.0174C35.0707 31.6903 34.5013 32.392 33.8341 33.0649C38.1593 24.7425 34.0354 17.1276 33.8686 16.8285C34.1735 17.1333 34.4726 17.4669 34.7429 17.766C38.0615 21.4527 38.4641 26.9913 35.5768 31.0174Z" fill="#D1CFCF"/>
<path d="M39.6067 20.3132C38.094 16.2526 35.9487 12.796 31.221 9.6787C26.6601 6.65918 21.7598 6.89499 21.4895 6.9295C21.455 6.9295 21.4205 6.9295 21.4205 6.9295C21.5873 6.86048 21.7541 6.82597 21.9209 6.79721C22.9619 6.46363 24.302 6.19331 25.6478 6.02651C29.208 5.51463 32.7969 6.72244 35.247 9.31061C35.2815 9.34512 35.2815 9.34512 35.3161 9.37963C38.0998 12.3301 39.5434 16.0168 39.6067 20.3132Z" fill="#D1CFCF"/>
<path d="M30.144 3.7031C25.1459 2.76561 21.9251 3.23148 19.6073 4.10571C19.5383 3.83539 19.3024 3.3005 19.1011 2.86339C18.4052 3.7031 17.6633 4.70961 17.1974 5.34802C15.9206 6.22225 15.3857 7.06197 15.3857 7.06197C16.1219 4.54282 18.2729 2.66783 20.8898 2.19621C21.626 2.06393 22.4312 1.99491 23.3055 1.99491C25.6176 2.02942 27.9297 2.59882 30.144 3.7031Z" fill="#D1CFCF"/>
<path d="M11.6585 10.1462C7.73594 10.0139 9.04153 5.44721 9.11054 5.18264C9.11054 5.21715 9.37511 8.77156 11.6585 10.1462Z" fill="#D1CFCF"/>
<path d="M15.5175 1.92643C12.4979 3.73815 13.1019 8.06326 13.1019 8.06326C10.2146 3.67488 15.2817 2.02996 15.5175 1.92643Z" fill="#D1CFCF"/>
<path d="M10.5525 11.3523C10.7538 11.5191 10.9551 11.8239 10.7193 12.261C10.5871 12.4968 10.3858 12.4623 10.0809 12.3301C9.67832 12.1288 7.2627 10.7196 5.08289 9.27602C7.56753 10.1502 10.0809 11.0877 10.4835 11.289C10.4835 11.289 10.518 11.3235 10.5525 11.3523Z" fill="#A29F9F"/>
</svg>
