<svg width="38" height="39" viewBox="0 0 38 39" fill="none" xmlns="http://www.w3.org/2000/svg">
<path d="M12.6487 22.1452C11.4496 22.1452 10.2486 22.1159 9.05149 22.1706C7.78799 22.2272 6.97561 21.6471 6.39952 20.5787C4.61852 17.2701 2.82579 13.9679 1.02135 10.6723C0.761619 10.1977 0.433106 9.56053 0.162093 9.047C-0.108921 8.53348 -0.108951 7.42088 0.70412 6.60782C1.51719 5.79476 2.25166 5.74448 3.84324 5.79331C6.88774 5.88706 9.93809 5.81284 12.9845 5.82456C14.8964 5.82456 16.8063 5.86558 18.7181 5.88902C18.5756 6.17808 18.4447 6.47496 18.2904 6.75622C16.2946 10.4184 14.3242 14.0962 12.2815 17.731C11.5551 19.024 11.4691 20.2135 12.2815 21.4577C12.4338 21.6764 12.5354 21.9167 12.6487 22.1452Z" fill="white" fill-opacity="0.5"/>
<path d="M28.9416 19.7321C29.7696 20.904 30.3769 22.1853 31.0233 23.4431C31.208 23.8089 31.2977 24.2154 31.2841 24.625C31.2704 25.0346 31.1539 25.4342 30.9452 25.7869C28.9104 29.5389 26.8559 33.2812 24.8308 37.0391C24.5008 37.6504 24.0123 38.0454 23.4703 38.3165C22.9283 38.5875 22.1152 38.3165 21.5731 38.0454C21.0311 37.7744 20.4213 36.6133 19.855 35.5781C17.4686 31.2121 15.0874 26.8435 12.7114 22.4724C12.6747 22.3836 12.6472 22.2913 12.6294 22.197C13.02 22.1794 13.4105 22.1482 13.7894 22.1482C17.8259 22.1482 21.8625 22.1325 25.8971 22.1482C27.0239 22.1482 27.8031 21.6872 28.3225 20.7106C28.512 20.3747 28.7365 20.0583 28.9416 19.7321Z" fill="white" fill-opacity="0.5"/>
<path d="M37.2926 4.4389C37.129 4.77497 36.5579 5.90202 36.1302 6.67548C33.9527 10.6189 31.8144 14.5858 29.6565 18.5409C29.4885 18.8495 29.2659 19.1269 29.0706 19.4218C28.8636 19.0976 28.6351 18.7831 28.4516 18.4452C26.4382 14.7635 24.4209 11.0838 22.4329 7.38839C21.847 6.30047 20.9936 5.77898 19.7692 5.82586C19.4821 5.82586 19.1833 5.80046 18.9021 5.78679C19.8922 4.09535 20.1665 0.915662 22.1751 0.915608C24.1837 0.915554 35.6107 0.915608 35.6107 0.915608C36.4795 0.915608 37.0754 1.17742 37.5636 1.9997C38.0518 2.82198 37.4562 4.10283 37.2926 4.4389Z" fill="white" fill-opacity="0.5"/>
<path d="M18.7254 5.89937L18.8973 5.7939C19.1863 5.80757 19.4832 5.84272 19.7644 5.83295C20.9888 5.78803 21.8422 6.30952 22.428 7.39548C24.416 11.0909 26.4334 14.7706 28.4467 18.4523C28.6303 18.7883 28.8588 19.1027 29.0658 19.4289C29.0658 19.5324 29.0658 19.6359 29.0658 19.7395C28.8705 20.0656 28.6362 20.3821 28.4546 20.716C27.9351 21.6926 27.1559 22.1594 26.0291 22.1536C21.9906 22.1321 17.9541 22.1438 13.9214 22.1536C13.5308 22.1536 13.1403 22.1848 12.7614 22.2024C12.7282 22.1829 12.695 22.1672 12.6618 22.1516C12.5427 21.9231 12.4411 21.6829 12.3005 21.468C11.4823 20.2239 11.5682 19.0344 12.3005 17.7414C14.3432 14.1066 16.3137 10.4287 18.3095 6.76657C18.452 6.48531 18.5829 6.18062 18.7254 5.89937Z" fill="white"/>
</svg>
