<svg width="37" height="29" viewBox="0 0 37 29" fill="none" xmlns="http://www.w3.org/2000/svg">
<path d="M29.4681 22.9811C29.507 23.1402 29.5982 23.2817 29.727 23.3829C29.8559 23.484 30.0149 23.539 30.1787 23.539C30.3426 23.539 30.5016 23.484 30.6305 23.3829C30.7593 23.2817 30.8505 23.1402 30.8894 22.9811L36.5326 1.9341C36.5935 1.70792 36.6016 1.47073 36.5561 1.24093C36.5107 1.01113 36.4129 0.794881 36.2704 0.608943C36.128 0.423005 35.9446 0.272373 35.7345 0.16872C35.5244 0.065068 35.2933 0.0111793 35.0591 0.0112305H31.5791C31.2436 0.0111572 30.9174 0.121691 30.651 0.325721C30.3846 0.529751 30.1929 0.815899 30.1056 1.13987L26.9705 13.0115C26.9298 13.1762 26.9298 13.3484 26.9705 13.5131L29.4681 22.9811Z" fill="#E3E3E3"/>
<path d="M9.78004 13.001C9.82077 13.1657 9.82077 13.3379 9.78004 13.5026L7.24061 22.9602C7.20173 23.1193 7.11056 23.2608 6.98171 23.362C6.85287 23.4631 6.69379 23.5181 6.52998 23.5181C6.36617 23.5181 6.2071 23.4631 6.07825 23.362C5.9494 23.2608 5.85824 23.1193 5.81936 22.9602L0.186619 1.93409C0.125648 1.70791 0.117577 1.47073 0.163031 1.24093C0.208484 1.01113 0.306242 0.79488 0.448727 0.608943C0.591212 0.423005 0.774597 0.272373 0.984671 0.16872C1.19474 0.0650679 1.42586 0.0111793 1.66012 0.0112305H5.12963C5.46517 0.0111572 5.79137 0.121691 6.05774 0.325721C6.32412 0.529751 6.5158 0.815899 6.60313 1.13987L9.78004 13.001Z" fill="#E3E3E3"/>
<path d="M14.5237 27.6106C14.4328 27.9157 14.2448 28.1828 13.9883 28.3714C13.7318 28.56 13.4208 28.6598 13.1025 28.6556H9.54934C9.32746 28.6539 9.10883 28.6021 8.90977 28.5041C8.71071 28.4061 8.53635 28.2644 8.39971 28.0896C8.26306 27.9148 8.16767 27.7114 8.12064 27.4945C8.07361 27.2777 8.07616 27.053 8.12809 26.8373L14.9626 1.21302C15.0528 0.868724 15.2545 0.564014 15.5362 0.346563C15.8179 0.129111 16.1638 0.0111839 16.5197 0.0112305H20.6999C21.0558 0.0111839 21.4016 0.129111 21.6834 0.346563C21.9651 0.564014 22.1668 0.868724 22.257 1.21302L29.0915 26.8373C29.162 27.0625 29.1773 27.3013 29.1362 27.5337C29.0952 27.7661 28.9989 27.9852 28.8555 28.1726C28.7121 28.36 28.5259 28.5103 28.3123 28.6107C28.0988 28.7111 27.8642 28.7588 27.6284 28.7497H24.0753C23.757 28.7539 23.446 28.6541 23.1895 28.4655C22.933 28.2769 22.745 28.0098 22.6541 27.7047L19.2786 14.9552C19.2404 14.8012 19.1517 14.6644 19.0267 14.5666C18.9017 14.4688 18.7476 14.4157 18.5889 14.4157C18.4302 14.4157 18.2761 14.4688 18.151 14.5666C18.026 14.6644 17.9374 14.8012 17.8992 14.9552L14.5237 27.6106Z" fill="#E3E3E3"/>
<path d="M17.3448 24.9352C17.2868 24.9388 17.2288 24.9286 17.1756 24.9054C17.1224 24.8822 17.0755 24.8467 17.0387 24.8017C17.002 24.7568 16.9764 24.7038 16.9642 24.647C16.952 24.5903 16.9535 24.5314 16.9685 24.4754L18.2121 20.034C18.2387 19.9553 18.2893 19.8869 18.3568 19.8385C18.4243 19.79 18.5053 19.764 18.5884 19.764C18.6714 19.764 18.7524 19.79 18.8199 19.8385C18.8874 19.8869 18.938 19.9553 18.9646 20.034L20.2082 24.4754C20.2232 24.5314 20.2247 24.5903 20.2125 24.647C20.2003 24.7038 20.1747 24.7568 20.138 24.8017C20.1012 24.8467 20.0543 24.8822 20.0011 24.9054C19.9479 24.9286 19.8899 24.9388 19.8319 24.9352H17.3448Z" fill="#E3E3E3"/>
</svg>
