<svg width="39" height="37" viewBox="0 0 39 37" fill="none" xmlns="http://www.w3.org/2000/svg">
<path d="M7.99322 2.79372L38.0853 23.3405L30.6432 34.3419L0.551086 13.6334L7.99322 2.79372Z" fill="#EBEBEB"/>
<path d="M30.6431 34.1805C28.0545 37.9016 19.3181 36.4455 11.067 30.6213C2.81597 24.797 -1.87581 17.3548 0.712762 13.472C3.30133 9.75093 12.0378 11.207 20.2888 17.0313C28.5399 22.8556 33.0699 30.4595 30.6431 34.1805Z" fill="#EBEBEB"/>
<path d="M38.0859 23.3399C35.4974 27.061 26.7609 25.6049 18.5099 19.7806C10.097 14.1181 5.56705 6.51422 7.99383 2.79316C10.5824 -0.927911 19.3188 0.528159 27.5699 6.35244C35.9827 11.8531 40.5127 19.6189 38.0859 23.3399Z" fill="#504862"/>
<path fill-rule="evenodd" clip-rule="evenodd" d="M36.9527 22.6931C34.6877 25.9288 26.7602 24.3109 19.1562 18.972C11.3905 13.6331 6.86054 6.83809 9.12554 3.60238C11.3905 0.366668 19.318 1.98452 26.922 7.32345C34.5259 12.6624 39.0559 19.4574 36.9527 22.6931ZM29.8341 17.8395C28.7016 19.4574 24.8187 18.6484 20.9359 16.0599C17.2148 13.4713 14.9498 10.0738 16.0823 8.45594C17.2148 6.83809 21.0977 7.64702 24.9805 10.2356C28.7016 12.8242 30.9666 16.2217 29.8341 17.8395Z" fill="white"/>
</svg>
