<svg width="45" height="33" viewBox="0 0 45 33" fill="none" xmlns="http://www.w3.org/2000/svg">
<path d="M21.1571 5.8864C20.9545 5.88638 20.7601 5.80388 20.6169 5.65705C20.4736 5.51021 20.3931 5.31106 20.393 5.10339C20.392 4.16545 20.0281 3.26626 19.381 2.60301C18.734 1.93976 17.8567 1.56666 16.9416 1.56557C16.739 1.56557 16.5448 1.48305 16.4015 1.33621C16.2582 1.18938 16.1777 0.990224 16.1777 0.782562C16.1777 0.574902 16.2582 0.375752 16.4015 0.228913C16.5448 0.0820751 16.739 -0.000396729 16.9416 -0.000396729C18.2616 0.00125419 19.527 0.539462 20.4605 1.49616C21.3939 2.45286 21.9189 3.74993 21.9206 5.10289C21.9206 5.31057 21.8403 5.50977 21.6972 5.65669C21.5539 5.80363 21.3597 5.88627 21.1571 5.8864Z" fill="white"/>
<path d="M24.329 5.88676C24.1264 5.88673 23.9322 5.80423 23.7889 5.65741C23.6456 5.51057 23.5651 5.31142 23.565 5.10375C23.5667 3.75067 24.0918 2.45352 25.0254 1.49681C25.9589 0.540109 27.2245 0.00197326 28.5446 0.000457764C28.7473 0.000457764 28.9416 0.0829793 29.0849 0.229818C29.228 0.376656 29.3085 0.575808 29.3085 0.783467C29.3085 0.99113 29.228 1.19028 29.0849 1.33711C28.9416 1.48396 28.7473 1.56643 28.5446 1.56643C27.6295 1.56748 26.7522 1.94056 26.1051 2.60381C25.458 3.26707 25.0941 4.16633 25.0929 5.1043C25.0929 5.31188 25.0123 5.51087 24.8691 5.6576C24.7257 5.80432 24.5315 5.88676 24.329 5.88676Z" fill="white"/>
<path d="M12.6077 26.4115C9.81558 27.4372 7.47242 27.3331 5.91967 27.0252C3.78092 26.6013 2.53485 25.6692 2.34318 25.2645C2.2417 25.0497 2.32434 24.9884 2.40305 24.9378L12.0869 19.1882V17.3781L1.62806 23.5878L1.61033 23.598C0.802123 24.1083 0.544292 25.0523 0.968152 25.9474C1.49698 27.0634 3.36992 28.1138 5.6291 28.5618C6.45173 28.7234 7.28756 28.8041 8.12517 28.8029C9.76961 28.8029 11.7571 28.4972 13.9545 27.5518L13.5641 27.3208C13.1832 27.0945 12.8565 26.7837 12.6077 26.4115Z" fill="white"/>
<path d="M43.7814 23.6006C43.7754 23.597 43.7695 23.5933 43.7635 23.5904L33.3048 17.3806V19.1908L42.9885 24.9404C43.0678 24.9907 43.1506 25.0529 43.0489 25.2671C42.8573 25.6718 41.6112 26.604 39.4725 27.0277C37.9199 27.3354 35.577 27.4394 32.7855 26.4141C32.5384 26.7853 32.2141 27.0955 31.8357 27.3224L31.4402 27.5564C33.6365 28.5011 35.6227 28.8063 37.2666 28.8063C38.1042 28.8075 38.94 28.7267 39.7626 28.5651C42.0217 28.1173 43.8948 27.0669 44.4235 25.9508C44.8475 25.0549 44.5894 24.1109 43.7814 23.6006Z" fill="white"/>
<path d="M31.8329 13.0198L24.1743 8.48917C23.7262 8.22312 23.2174 8.08286 22.6995 8.08278C22.1817 8.0827 21.6729 8.22263 21.2247 8.48853L13.564 13.0202C13.1165 13.2857 12.7447 13.6668 12.4857 14.1255C12.2267 14.5843 12.0895 15.1046 12.0878 15.6346V24.702C12.0891 25.2329 12.226 25.7541 12.4852 26.2138C12.7443 26.6735 13.1164 27.0556 13.5645 27.3219L21.2213 31.8513C21.6694 32.118 22.1785 32.2585 22.6968 32.2589C23.215 32.2591 23.7242 32.1191 24.1727 31.853L31.8358 27.3202C32.2818 27.0527 32.652 26.6704 32.9096 26.2111C33.1673 25.752 33.3036 25.2318 33.3049 24.7021V15.6347C33.303 15.1051 33.1662 14.5852 32.9081 14.1266C32.6499 13.668 32.2792 13.2864 31.8329 13.0198ZM14.3288 14.376L16.8068 12.9101H28.5906L31.0657 14.3743C31.281 14.5027 31.4599 14.6866 31.5846 14.9076C31.7093 15.1287 31.7754 15.3793 31.7766 15.6347V17.6226H13.6158V15.635C13.617 15.3796 13.6834 15.1289 13.8085 14.908C13.9336 14.6871 14.1129 14.5037 14.3288 14.376ZM31.0694 25.9658L28.6166 27.4166H16.7813L14.3296 25.9663C14.1131 25.8379 13.9334 25.6536 13.8081 25.4318C13.6829 25.2099 13.6166 24.9583 13.6158 24.7021V22.7046H31.7771V24.7021C31.7766 24.9576 31.711 25.2085 31.5868 25.4303C31.4627 25.6519 31.2844 25.8364 31.0694 25.9658Z" fill="white"/>
</svg>
