<?xml version="1.0" encoding="utf-8"?>
<!-- Generator: Adobe Illustrator 25.4.0, SVG Export Plug-In . SVG Version: 6.00 Build 0)  -->
<svg version="1.1" id="Layer_1" xmlns="http://www.w3.org/2000/svg" xmlns:xlink="http://www.w3.org/1999/xlink" x="0px" y="0px"
	 viewBox="0 0 1918.9 753.8" style="enable-background:new 0 0 1918.9 753.8;" xml:space="preserve">
<style type="text/css">
	.st0{fill:#FFFFFF;}
</style>
<g>
	<path class="st0" d="M0,457.8c9.1-10.8,18.4-21.4,27.3-32.3c2.1-2.5,3.1-2.7,5.7-0.6c19.5,15.5,41.2,25.5,66.6,25.7
		c6.7,0.1,13.3-0.9,19.4-3.7c6.9-3.1,12-7.9,12.9-15.8c1-8.7-3.1-15.1-10.3-19.6c-8.8-5.6-18.9-7.9-28.9-10.5
		c-15.4-4-31-7.5-45.6-14c-24.7-11-38.2-29.3-38.4-57c-0.2-29,11.7-50.7,38.1-63c29.2-13.6,59.2-11.6,89-1.7
		c13.2,4.4,25.2,11.1,36.3,19.4c2.3,1.7,3.3,2.8,1.2,5.8c-7.7,10.7-15.1,21.5-22.4,32.4c-1.7,2.6-2.9,2.5-5.3,1
		c-15.3-9.8-31.4-18.1-49.8-20.5c-7.8-1-15.6-0.3-23.1,2.2c-8.3,2.8-12.8,8.8-13.6,17.3c-0.8,8,3.4,13.7,9.9,17.7
		c8.6,5.3,18.3,7.7,27.9,10.2c14.9,4,30,7.4,44.3,13.4c26.6,11.1,41.6,30.4,41.3,59.8c-0.3,30.1-14.2,51.8-42,63.7
		c-27.1,11.5-54.9,10.2-82.7,2.6c-20.4-5.6-38.9-15.3-55.1-29.1c-0.8-0.7-1.3-2-2.8-1.5C0,459.2,0,458.5,0,457.8z"/>
	<path class="st0" d="M1420.1,377.1c0-37,0.1-74-0.1-110.9c0-4.1,0.9-5.2,5.1-5.2c54.6,0.2,109.2,0.1,163.8,0c4,0,5.4,0.7,5.3,5
		c-0.3,12-0.3,24,0,36c0.1,4.1-1.3,4.8-5,4.8c-37.8-0.1-75.6,0-113.4-0.2c-4.4,0-5.5,1.1-5.4,5.4c0.3,12.3,0.2,24.7,0,37
		c-0.1,3.5,1,4.4,4.5,4.4c33.1-0.1,66.3,0,99.4-0.2c4.1,0,5.3,1,5.2,5.2c-0.3,11.8-0.3,23.7,0,35.5c0.1,4.4-1.3,5.1-5.3,5
		c-33-0.2-65.9,0-98.9-0.2c-3.7,0-5.1,0.7-5,4.8c0.3,13,0.3,26,0,39c-0.1,3.9,1.1,4.6,4.7,4.6c38.6-0.1,77.3,0,115.9-0.2
		c3.7,0,5.1,0.6,5,4.8c-0.3,12.3-0.2,24.7,0,37c0.1,3.4-1,4.1-4.2,4.1c-55.8-0.1-111.6-0.1-167.3,0c-4,0-4.5-1.2-4.5-4.8
		C1420.2,451,1420.1,414,1420.1,377.1z"/>
	<path class="st0" d="M1286.5,492.7c-19.4,0-38.4-0.1-57.3,0.1c-3.4,0-4.6-2-6.1-4.1c-21.9-30.1-43.9-60.2-65.7-90.4
		c-2.2-3-3.4-3.8-6.3-0.6c-6.8,7.6-13.9,14.8-21.1,22c-1.9,1.9-2.1,4-2.1,6.3c0,20.7-0.1,41.3,0.1,62c0,4-1.2,4.9-5,4.9
		c-14.2-0.2-28.3-0.2-42.5,0c-3,0-4-0.6-4-3.8c0.1-74.6,0.1-149.3,0-223.9c0-3.6,1.4-4,4.4-4c14.2,0.1,28.3,0.2,42.5,0
		c3.9-0.1,4.7,1.1,4.6,4.7c-0.1,29.8-0.1,59.7-0.1,89.5c0,1.8-0.5,3.6,0.7,5.8c7.3-7.8,14.4-15.4,21.4-23
		c22.8-24.5,45.5-49,68.2-73.6c2.2-2.4,4.4-3.5,7.7-3.4c18.6,0.2,37.2,0.1,56.4,0.1c-2.4,4.6-6.2,7.3-9.3,10.6
		c-26.6,27.8-53.2,55.6-79.9,83.2c-3.3,3.4-3.6,5.6-0.6,9.6c30.6,40.9,60.9,82.1,91.2,123.2C1284.7,489,1286.1,490.2,1286.5,492.7z"
		/>
	<path class="st0" d="M1823.1,261c30.3,0,60.6,0.1,90.9-0.1c4,0,5,1,4.9,4.9c-0.3,12.8-0.2,25.6,0,38.5c0.1,3.3-0.9,4.1-4.1,4.1
		c-20.1-0.1-40.3,0.1-60.4-0.2c-4.3,0-5.8,0.8-5.8,5.6c0.2,57.8,0.1,115.6,0.2,173.4c0,4.2-0.6,5.7-5.3,5.6
		c-13.6-0.4-27.3-0.3-40.9,0c-4,0.1-4.9-1.1-4.9-4.9c0.1-58,0-115.9,0.2-173.9c0-4.7-1.3-5.7-5.8-5.7c-20,0.2-40,0-59.9,0.2
		c-4.2,0.1-4.9-1.4-4.8-5.1c0.2-12.5,0.2-25,0-37.5c-0.1-3.9,0.9-5,4.9-5C1762.5,261.1,1792.8,261,1823.1,261z"/>
	<path class="st0" d="M1003.7,6.1c0-5.3-1.5-6.1-6.3-6.1C750.5,0.1,503.7,0.1,256.9,0c-4.8,0-6.3,0.8-6.3,6.1
		c0.2,247.3,0.2,494.5,0,741.8c0,5,1.4,5.8,6,5.8c247-0.1,494-0.1,741,0c5.4,0,6-1.7,6-6.4c-0.1-123.5-0.1-246.9-0.1-370.4
		C1003.5,253.4,1003.5,129.7,1003.7,6.1z M448.6,496.2c-63.7-1-116.8-54.4-116.9-119.3c-0.1-67.7,56.5-120.5,121.9-119.4
		c63.6,1.1,116.6,54.5,116.6,119.6C570.4,444.2,513.9,497.3,448.6,496.2z M916.1,464.3c-35.4,30.9-75.9,40.3-120.2,25
		c-43.6-15.2-70.3-46.9-78.4-92.6C705.8,330.1,752,267.8,819,258.6c5.5-0.8,10.9-0.9,16.4-1c30.9,0.3,57.7,11.1,80.6,31.7
		c2.1,1.9,3,3.2,0.4,5.8c-9.4,9-18.5,18.2-27.6,27.5c-2.2,2.2-3.2,2-5.5,0.1c-42.4-36.7-106.2-16.5-119.4,37.8
		c-10.1,41.6,19.7,83.9,62.3,88.5c21.7,2.4,40.7-3.7,57.1-18c2.2-1.9,3.3-2.3,5.5,0c9,9.3,18.2,18.5,27.5,27.6
		C919.1,461.1,918.3,462.4,916.1,464.3z"/>
	<path class="st0" d="M523.7,376.8c0,40.2-32.5,72.9-72.5,72.9c-40.4,0.1-72.9-32.6-72.9-73c0-40.1,32.6-72.7,72.7-72.7
		C491.1,304,523.7,336.6,523.7,376.8z"/>
</g>
</svg>
