<svg width="63" height="63" viewBox="0 0 63 63" fill="none" xmlns="http://www.w3.org/2000/svg">
<g filter="url(#filter0_di_218_243)">
<path fill-rule="evenodd" clip-rule="evenodd" d="M31.5 51C43.3741 51 53 41.3741 53 29.5C53 17.6259 43.3741 8 31.5 8C19.6259 8 10 17.6259 10 29.5C10 41.3741 19.6259 51 31.5 51ZM35.4629 19.2635C37.3827 19.595 39.2187 20.1738 40.931 20.9594C40.9458 20.9658 40.9585 20.9765 40.9659 20.9914C43.9996 25.4536 45.4979 30.4872 44.9378 36.2819C44.9356 36.3064 44.9229 36.3288 44.9028 36.3437C42.605 38.0311 40.3793 39.0555 38.1842 39.7345C38.1493 39.7452 38.1112 39.7324 38.09 39.7026C37.5828 38.9969 37.1222 38.2528 36.7187 37.4715C36.6954 37.4256 36.7166 37.3702 36.7643 37.3521C37.4959 37.076 38.1916 36.7455 38.8609 36.3543C38.9138 36.3234 38.917 36.2477 38.8683 36.2115C38.7264 36.1059 38.5856 35.9951 38.451 35.8842C38.4257 35.864 38.3918 35.8597 38.3632 35.8736C34.0186 37.8808 29.2589 37.8808 24.8625 35.8736C24.8339 35.8608 24.8 35.865 24.7756 35.8853C24.6412 35.9961 24.5003 36.1059 24.3595 36.2115C24.3108 36.2477 24.315 36.3234 24.3679 36.3543C25.0372 36.7381 25.7328 37.076 26.4635 37.3532C26.5111 37.3713 26.5334 37.4256 26.51 37.4715C26.1151 38.2539 25.6545 38.998 25.1378 39.7036C25.1155 39.7324 25.0785 39.7452 25.0435 39.7345C22.8591 39.0555 20.6333 38.0311 18.3355 36.3437C18.3164 36.3288 18.3027 36.3053 18.3006 36.2808C17.8325 31.2686 18.7866 26.1934 22.2693 20.9904C22.2777 20.9765 22.2904 20.9658 22.3052 20.9594C24.0185 20.1728 25.8546 19.5939 27.7733 19.2635C27.8083 19.2581 27.8432 19.2741 27.8612 19.305C28.0984 19.725 28.3694 20.2634 28.5526 20.7036C30.5751 20.3945 32.6293 20.3945 34.6941 20.7036C34.8773 20.2729 35.1389 19.725 35.375 19.305C35.393 19.2731 35.4279 19.2571 35.4629 19.2635ZM24.7523 30.5213C24.7523 32.0137 25.843 33.2289 27.1666 33.2289C28.5113 33.2289 29.5808 32.0137 29.5808 30.5213C29.602 29.0396 28.5219 27.8137 27.1666 27.8137C25.8218 27.8137 24.7523 29.0289 24.7523 30.5213ZM33.6787 30.5213C33.6787 32.0137 34.7693 33.2289 36.0929 33.2289C37.4483 33.2289 38.5072 32.0137 38.5072 30.5213C38.5283 29.0396 37.4483 27.8137 36.0929 27.8137C34.7481 27.8137 33.6787 29.0289 33.6787 30.5213Z" fill="#E3E3E3" fill-opacity="0.9"/>
</g>
<defs>
<filter id="filter0_di_218_243" x="0" y="0" width="63" height="63" filterUnits="userSpaceOnUse" color-interpolation-filters="sRGB">
<feFlood flood-opacity="0" result="BackgroundImageFix"/>
<feColorMatrix in="SourceAlpha" type="matrix" values="0 0 0 0 0 0 0 0 0 0 0 0 0 0 0 0 0 0 127 0" result="hardAlpha"/>
<feOffset dy="2"/>
<feGaussianBlur stdDeviation="5"/>
<feComposite in2="hardAlpha" operator="out"/>
<feColorMatrix type="matrix" values="0 0 0 0 0.0658333 0 0 0 0 0.1195 0 0 0 0 0.2 0 0 0 0.5 0"/>
<feBlend mode="normal" in2="BackgroundImageFix" result="effect1_dropShadow_218_243"/>
<feBlend mode="normal" in="SourceGraphic" in2="effect1_dropShadow_218_243" result="shape"/>
<feColorMatrix in="SourceAlpha" type="matrix" values="0 0 0 0 0 0 0 0 0 0 0 0 0 0 0 0 0 0 127 0" result="hardAlpha"/>
<feOffset dx="1" dy="1"/>
<feGaussianBlur stdDeviation="0.5"/>
<feComposite in2="hardAlpha" operator="arithmetic" k2="-1" k3="1"/>
<feColorMatrix type="matrix" values="0 0 0 0 1 0 0 0 0 1 0 0 0 0 1 0 0 0 1 0"/>
<feBlend mode="normal" in2="shape" result="effect2_innerShadow_218_243"/>
</filter>
</defs>
</svg>
