<svg width="54" height="67" viewBox="0 0 54 67" fill="none" xmlns="http://www.w3.org/2000/svg">
<g opacity="0.9">
<path d="M16.2422 49.9726L26.8535 32.376L37.4648 49.9726L26.8535 56.2515L16.2422 49.9726Z" fill="white"/>
<path fill-rule="evenodd" clip-rule="evenodd" d="M37.8448 14.584C37.8466 14.5027 37.8475 14.4213 37.8475 14.3397C37.8475 8.26588 32.9237 3.3421 26.8499 3.3421C20.7762 3.3421 15.8524 8.26588 15.8524 14.3397C15.8524 14.4223 15.8533 14.5048 15.8551 14.587C14.6528 15.1423 13.4893 15.7901 12.3758 16.5271C8.08266 19.3688 4.72077 23.4111 2.70912 28.1502C0.697463 32.8893 0.125023 38.1156 1.06314 43.1778C2.00126 48.24 4.40844 52.9141 7.98467 56.6177L26.8505 25.3372C26.8514 25.3372 26.8522 25.3372 26.8531 25.3372L45.7164 56.6177C49.2937 52.9147 51.7019 48.2407 52.6407 43.1784C53.5796 38.116 53.0076 32.8893 50.9961 28.1498C48.9845 23.4103 45.6224 19.3677 41.3289 16.5261C40.2139 15.7882 39.0489 15.1397 37.8448 14.584ZM6.66276 41.2325C7.06606 41.5021 7.54024 41.646 8.02532 41.646V41.6561C8.34798 41.6561 8.66748 41.5925 8.96548 41.4687C9.26348 41.345 9.53412 41.1637 9.76192 40.9352C9.98972 40.7067 10.1702 40.4355 10.293 40.1371C10.4157 39.8387 10.4784 39.5191 10.4774 39.1964C10.4779 38.7113 10.3345 38.237 10.0654 37.8334C9.79627 37.4298 9.41348 37.1152 8.96546 36.9292C8.51744 36.7432 8.02434 36.6943 7.54851 36.7886C7.07268 36.8829 6.63553 37.1163 6.29234 37.4591C5.94916 37.8019 5.71537 38.2388 5.62055 38.7146C5.52573 39.1903 5.57413 39.6835 5.75965 40.1317C5.94517 40.5799 6.25947 40.963 6.66276 41.2325ZM12.6816 31.4197C13.0844 31.6888 13.558 31.8325 14.0425 31.8325V31.8427C14.365 31.8427 14.6844 31.779 14.9822 31.6553C15.2801 31.5315 15.5506 31.3502 15.7782 31.1216C16.0058 30.8931 16.186 30.6219 16.3085 30.3235C16.431 30.0251 16.4934 29.7055 16.492 29.383C16.492 28.8985 16.3484 28.4249 16.0792 28.0221C15.81 27.6193 15.4275 27.3053 14.9799 27.1199C14.5323 26.9345 14.0398 26.886 13.5646 26.9805C13.0894 27.075 12.653 27.3083 12.3104 27.6509C11.9678 27.9935 11.7345 28.4299 11.64 28.9051C11.5455 29.3803 11.594 29.8728 11.7794 30.3204C11.9648 30.768 12.2788 31.1505 12.6816 31.4197ZM38.3078 31.4197C38.7107 31.6888 39.1842 31.8325 39.6687 31.8325V31.8427C39.9912 31.8424 40.3104 31.7784 40.6081 31.6546C40.9058 31.5307 41.1761 31.3494 41.4037 31.1209C41.6312 30.8924 41.8114 30.6213 41.9341 30.3231C42.0567 30.0249 42.1193 29.7054 42.1183 29.383C42.1183 28.8985 41.9746 28.4249 41.7055 28.0221C41.4363 27.6193 41.0537 27.3053 40.6061 27.1199C40.1585 26.9345 39.666 26.886 39.1908 26.9805C38.7157 27.075 38.2792 27.3083 37.9366 27.6509C37.5941 27.9935 37.3608 28.4299 37.2662 28.9051C37.1717 29.3803 37.2202 29.8728 37.4056 30.3204C37.591 30.768 37.905 31.1505 38.3078 31.4197ZM44.3201 41.2338C44.7237 41.503 45.1981 41.6465 45.6833 41.646V41.6561C46.0059 41.6561 46.3252 41.5925 46.6231 41.4687C46.921 41.345 47.1914 41.1636 47.419 40.9351C47.6466 40.7065 47.8268 40.4353 47.9493 40.1369C48.0718 39.8386 48.1342 39.519 48.1329 39.1964C48.1334 38.7112 47.9899 38.2368 47.7207 37.8331C47.4515 37.4295 47.0685 37.1148 46.6203 36.9289C46.1722 36.743 45.6789 36.6943 45.203 36.7888C44.7271 36.8833 44.29 37.1169 43.9469 37.46C43.6038 37.8031 43.3702 38.2402 43.2757 38.7161C43.1812 39.192 43.2299 39.6853 43.4158 40.1334C43.6017 40.5816 43.9164 40.9645 44.3201 41.2338Z" fill="white"/>
<path d="M16.4854 4.89909C16.001 4.89909 15.5274 4.75542 15.1245 4.48626C14.7217 4.2171 14.4078 3.83454 14.2224 3.38694C14.037 2.93934 13.9884 2.44683 14.083 1.97167C14.1775 1.4965 14.4108 1.06004 14.7533 0.717468C15.0959 0.374892 15.5324 0.141584 16.0076 0.0470677C16.4827 -0.0474487 16.9752 0.00106371 17.4228 0.186464C17.8704 0.371865 18.253 0.685839 18.5222 1.08866C18.7913 1.49149 18.935 1.96509 18.935 2.44957C18.9353 2.77134 18.8722 3.09 18.7492 3.38734C18.6262 3.68469 18.4458 3.95485 18.2183 4.18238C17.9908 4.4099 17.7206 4.59033 17.4232 4.71332C17.1259 4.8363 16.8072 4.89942 16.4854 4.89909V4.89909Z" fill="white"/>
<path d="M37.2141 4.89909C36.7297 4.89858 36.2564 4.75452 35.8539 4.48505C35.4514 4.21559 35.1378 3.83284 34.9528 3.3852C34.7678 2.93756 34.7197 2.44511 34.8145 1.97011C34.9093 1.49512 35.1428 1.05889 35.4854 0.716568C35.8281 0.374246 36.2646 0.141191 36.7397 0.0468806C37.2148 -0.04743 37.7072 0.00123648 38.1546 0.186711C38.6021 0.372187 38.9845 0.686141 39.2535 1.08891C39.5226 1.49168 39.6662 1.9652 39.6662 2.44956C39.6662 2.77146 39.6028 3.09017 39.4795 3.38753C39.3562 3.68489 39.1756 3.95504 38.9478 4.18253C38.7201 4.41003 38.4498 4.59043 38.1523 4.71338C37.8548 4.83633 37.536 4.89942 37.2141 4.89909V4.89909Z" fill="white"/>
<path fill-rule="evenodd" clip-rule="evenodd" d="M26.8496 60.1706L16.251 53.8002L26.8496 67.0009V63.5857V60.1706ZM26.8506 60.1706L37.4492 53.8002L26.8506 67.0009V60.1706Z" fill="white"/>
</g>
</svg>
