<svg width="94" height="107" viewBox="0 0 94 107" fill="none" xmlns="http://www.w3.org/2000/svg">
<g opacity="0.9" filter="url(#filter0_bdii_218_212)">
<path d="M36.242 65.9726L46.8534 48.376L57.4647 65.9726L46.8534 72.2515L36.242 65.9726Z" fill="white"/>
<path fill-rule="evenodd" clip-rule="evenodd" d="M57.8447 30.584C57.8465 30.5027 57.8474 30.4213 57.8474 30.3397C57.8474 24.2659 52.9236 19.3421 46.8498 19.3421C40.7761 19.3421 35.8523 24.2659 35.8523 30.3397C35.8523 30.4223 35.8532 30.5048 35.855 30.587C34.6527 31.1423 33.4892 31.7901 32.3757 32.5271C28.0826 35.3688 24.7207 39.4111 22.709 44.1502C20.6974 48.8893 20.1249 54.1156 21.063 59.1778C22.0012 64.24 24.4083 68.9141 27.9846 72.6177L46.8504 41.3372C46.8513 41.3372 46.8521 41.3372 46.853 41.3372L65.7163 72.6177C69.2936 68.9147 71.7018 64.2407 72.6406 59.1784C73.5795 54.116 73.0075 48.8893 70.996 44.1498C68.9844 39.4103 65.6223 35.3677 61.3288 32.5261C60.2138 31.7882 59.0488 31.1397 57.8447 30.584ZM26.6627 57.2325C27.066 57.5021 27.5401 57.646 28.0252 57.646V57.6561C28.3479 57.6561 28.6674 57.5924 28.9654 57.4687C29.2634 57.345 29.534 57.1637 29.7618 56.9352C29.9896 56.7067 30.1701 56.4355 30.2929 56.1371C30.4156 55.8387 30.4783 55.5191 30.4773 55.1964C30.4778 54.7113 30.3344 54.237 30.0653 53.8334C29.7962 53.4298 29.4134 53.1152 28.9654 52.9292C28.5174 52.7432 28.0242 52.6943 27.5484 52.7886C27.0726 52.8829 26.6354 53.1163 26.2923 53.4591C25.9491 53.8019 25.7153 54.2388 25.6205 54.7146C25.5256 55.1903 25.574 55.6835 25.7596 56.1317C25.9451 56.5799 26.2594 56.963 26.6627 57.2325ZM32.6815 47.4197C33.0843 47.6888 33.5579 47.8325 34.0424 47.8325V47.8427C34.3649 47.8427 34.6843 47.779 34.9821 47.6553C35.28 47.5315 35.5505 47.3502 35.7781 47.1216C36.0057 46.8931 36.1859 46.6219 36.3084 46.3235C36.4309 46.0251 36.4933 45.7055 36.4919 45.383C36.4919 44.8985 36.3483 44.4249 36.0791 44.0221C35.8099 43.6193 35.4274 43.3053 34.9798 43.1199C34.5322 42.9345 34.0397 42.886 33.5645 42.9805C33.0893 43.075 32.6529 43.3083 32.3103 43.6509C31.9677 43.9935 31.7344 44.4299 31.6399 44.9051C31.5454 45.3803 31.5939 45.8728 31.7793 46.3204C31.9647 46.768 32.2787 47.1505 32.6815 47.4197ZM58.3077 47.4197C58.7106 47.6888 59.1842 47.8325 59.6686 47.8325V47.8427C59.9911 47.8424 60.3103 47.7784 60.608 47.6546C60.9057 47.5307 61.1761 47.3494 61.4036 47.1209C61.6311 46.8924 61.8113 46.6213 61.934 46.3231C62.0566 46.0249 62.1192 45.7054 62.1182 45.383C62.1182 44.8985 61.9745 44.4249 61.7054 44.0221C61.4362 43.6193 61.0536 43.3053 60.606 43.1199C60.1584 42.9345 59.6659 42.886 59.1908 42.9805C58.7156 43.075 58.2791 43.3083 57.9365 43.6509C57.594 43.9935 57.3607 44.4299 57.2662 44.9051C57.1716 45.3803 57.2201 45.8728 57.4055 46.3204C57.591 46.768 57.9049 47.1505 58.3077 47.4197ZM64.32 57.2338C64.7236 57.503 65.198 57.6465 65.6832 57.646V57.6561C66.0058 57.6561 66.3251 57.5924 66.623 57.4687C66.9209 57.345 67.1913 57.1636 67.4189 56.9351C67.6465 56.7065 67.8268 56.4353 67.9493 56.1369C68.0718 55.8386 68.1341 55.519 68.1328 55.1964C68.1333 54.7112 67.9898 54.2368 67.7206 53.8331C67.4514 53.4295 67.0684 53.1148 66.6203 52.9289C66.1721 52.743 65.6788 52.6943 65.2029 52.7888C64.7271 52.8833 64.2899 53.1169 63.9468 53.46C63.6037 53.8031 63.3701 54.2402 63.2756 54.7161C63.1811 55.192 63.2298 55.6853 63.4157 56.1334C63.6017 56.5816 63.9163 56.9645 64.32 57.2338Z" fill="white"/>
<path d="M36.4854 20.8991C36.001 20.8991 35.5274 20.7554 35.1245 20.4863C34.7217 20.2171 34.4078 19.8345 34.2224 19.3869C34.037 18.9393 33.9884 18.4468 34.083 17.9717C34.1775 17.4965 34.4108 17.06 34.7533 16.7175C35.0959 16.3749 35.5324 16.1416 36.0076 16.0471C36.4827 15.9526 36.9752 16.0011 37.4228 16.1865C37.8704 16.3719 38.253 16.6858 38.5222 17.0887C38.7913 17.4915 38.935 17.9651 38.935 18.4496C38.9353 18.7713 38.8722 19.09 38.7492 19.3873C38.6262 19.6847 38.4458 19.9548 38.2183 20.1824C37.9908 20.4099 37.7206 20.5903 37.4232 20.7133C37.1259 20.8363 36.8072 20.8994 36.4854 20.8991Z" fill="white"/>
<path d="M57.2141 20.8991C56.7297 20.8986 56.2564 20.7545 55.8539 20.4851C55.4514 20.2156 55.1378 19.8328 54.9528 19.3852C54.7678 18.9376 54.7196 18.4451 54.8144 17.9701C54.9092 17.4951 55.1427 17.0589 55.4854 16.7166C55.8281 16.3742 56.2646 16.1412 56.7397 16.0469C57.2148 15.9526 57.7072 16.0012 58.1546 16.1867C58.6021 16.3722 58.9845 16.6861 59.2535 17.0889C59.5226 17.4917 59.6662 17.9652 59.6662 18.4496C59.6662 18.7715 59.6027 19.0902 59.4795 19.3875C59.3562 19.6849 59.1755 19.955 58.9478 20.1825C58.7201 20.41 58.4497 20.5904 58.1522 20.7134C57.8548 20.8363 57.536 20.8994 57.2141 20.8991Z" fill="white"/>
<path fill-rule="evenodd" clip-rule="evenodd" d="M46.8495 76.1706L36.2509 69.8002L46.8495 83.0009V79.5857V76.1706ZM46.8505 76.1706L57.4491 69.8002L46.8505 83.0009V76.1706Z" fill="white"/>
</g>
<defs>
<filter id="filter0_bdii_218_212" x="0.623932" y="0" width="92.4565" height="107.001" filterUnits="userSpaceOnUse" color-interpolation-filters="sRGB">
<feFlood flood-opacity="0" result="BackgroundImageFix"/>
<feGaussianBlur in="BackgroundImageFix" stdDeviation="2.5"/>
<feComposite in2="SourceAlpha" operator="in" result="effect1_backgroundBlur_218_212"/>
<feColorMatrix in="SourceAlpha" type="matrix" values="0 0 0 0 0 0 0 0 0 0 0 0 0 0 0 0 0 0 127 0" result="hardAlpha"/>
<feOffset dy="4"/>
<feGaussianBlur stdDeviation="10"/>
<feComposite in2="hardAlpha" operator="out"/>
<feColorMatrix type="matrix" values="0 0 0 0 0.107014 0 0 0 0 0.0782639 0 0 0 0 0.191667 0 0 0 1 0"/>
<feBlend mode="normal" in2="effect1_backgroundBlur_218_212" result="effect2_dropShadow_218_212"/>
<feBlend mode="normal" in="SourceGraphic" in2="effect2_dropShadow_218_212" result="shape"/>
<feColorMatrix in="SourceAlpha" type="matrix" values="0 0 0 0 0 0 0 0 0 0 0 0 0 0 0 0 0 0 127 0" result="hardAlpha"/>
<feOffset dx="1" dy="1"/>
<feGaussianBlur stdDeviation="0.5"/>
<feComposite in2="hardAlpha" operator="arithmetic" k2="-1" k3="1"/>
<feColorMatrix type="matrix" values="0 0 0 0 1 0 0 0 0 1 0 0 0 0 1 0 0 0 0.2 0"/>
<feBlend mode="normal" in2="shape" result="effect3_innerShadow_218_212"/>
<feColorMatrix in="SourceAlpha" type="matrix" values="0 0 0 0 0 0 0 0 0 0 0 0 0 0 0 0 0 0 127 0" result="hardAlpha"/>
<feOffset dx="1" dy="1"/>
<feGaussianBlur stdDeviation="1"/>
<feComposite in2="hardAlpha" operator="arithmetic" k2="-1" k3="1"/>
<feColorMatrix type="matrix" values="0 0 0 0 1 0 0 0 0 1 0 0 0 0 1 0 0 0 0.6 0"/>
<feBlend mode="normal" in2="effect3_innerShadow_218_212" result="effect4_innerShadow_218_212"/>
</filter>
</defs>
</svg>
