<svg width="24" height="29" viewBox="0 0 24 29" fill="none" xmlns="http://www.w3.org/2000/svg">
<path d="M7.47529 2.1205C7.26559 2.1205 7.0606 2.05832 6.88625 1.94182C6.71189 1.82531 6.576 1.65973 6.49575 1.46599C6.4155 1.27225 6.3945 1.05908 6.43541 0.853408C6.47632 0.647739 6.5773 0.458825 6.72558 0.310546C6.87386 0.162267 7.06278 0.0612827 7.26845 0.0203726C7.47412 -0.0205375 7.6873 0.000460413 7.88104 0.0807085C8.07477 0.160957 8.24036 0.296856 8.35686 0.471214C8.47337 0.645571 8.53555 0.850562 8.53555 1.06026C8.53569 1.19954 8.50836 1.33746 8.45513 1.46617C8.4019 1.59487 8.32381 1.7118 8.22533 1.81028C8.12685 1.90877 8.00991 1.98686 7.8812 2.04009C7.7525 2.09333 7.61457 2.12065 7.47529 2.1205Z" fill="#E3E3E3"/>
<path d="M16.4478 2.1205C16.2382 2.12028 16.0333 2.05793 15.8591 1.94129C15.6849 1.82466 15.5491 1.65899 15.4691 1.46524C15.389 1.27148 15.3681 1.05833 15.4092 0.852736C15.4502 0.64714 15.5513 0.458325 15.6996 0.310156C15.8479 0.161987 16.0369 0.0611127 16.2425 0.0202916C16.4481 -0.0205294 16.6613 0.000535193 16.8549 0.0808155C17.0486 0.161096 17.2141 0.296987 17.3306 0.471321C17.447 0.645654 17.5092 0.850609 17.5092 1.06026C17.5092 1.19959 17.4817 1.33754 17.4284 1.46625C17.375 1.59495 17.2968 1.71188 17.1983 1.81035C17.0997 1.90882 16.9827 1.9869 16.8539 2.04012C16.7251 2.09334 16.5872 2.12065 16.4478 2.1205Z" fill="#E3E3E3"/>
<path d="M7.37402 23.2864L11.9615 26.0437V29.0001L7.37402 23.2864Z" fill="#E3E3E3"/>
<path d="M16.5494 23.2864L11.9619 26.0437V29.0001L16.5494 23.2864Z" fill="#E3E3E3"/>
<path d="M7.36987 21.6299L11.9628 14.0134L16.5558 21.6299L11.9628 24.3476L7.36987 21.6299Z" fill="#E3E3E3"/>
<path d="M11.9601 10.9666C14.589 10.9666 16.7202 8.83538 16.7202 6.20643C16.7202 3.57748 14.589 1.44629 11.9601 1.44629C9.33114 1.44629 7.19995 3.57748 7.19995 6.20643C7.19995 8.83538 9.33114 10.9666 11.9601 10.9666Z" fill="#E3E3E3"/>
<path d="M11.9617 5.26758C9.7333 5.26764 7.55419 5.92351 5.69597 7.15347C3.83774 8.38343 2.38259 10.1331 1.51188 12.1843C0.641162 14.2356 0.393389 16.4977 0.799441 18.6888C1.20549 20.8799 2.24741 22.9031 3.79533 24.5061L11.9617 10.9659L20.127 24.5061C21.6754 22.9033 22.7177 20.8803 23.1241 18.6891C23.5305 16.4979 23.2829 14.2356 22.4122 12.1842C21.5416 10.1328 20.0863 8.38298 18.2279 7.15303C16.3695 5.92307 14.1902 5.26735 11.9617 5.26758ZM3.81293 18.0258C3.60296 18.0258 3.39772 17.9635 3.22316 17.8469C3.0486 17.7302 2.91256 17.5644 2.83226 17.3704C2.75196 17.1764 2.73101 16.9629 2.77205 16.757C2.81309 16.5511 2.91429 16.362 3.06283 16.2136C3.21137 16.0652 3.40059 15.9642 3.60654 15.9234C3.8125 15.8825 4.02593 15.9037 4.21985 15.9842C4.41377 16.0647 4.57946 16.2009 4.69595 16.3756C4.81244 16.5503 4.8745 16.7556 4.87428 16.9656C4.87472 17.1052 4.84758 17.2436 4.79444 17.3727C4.74129 17.5019 4.66319 17.6193 4.56459 17.7182C4.46599 17.8171 4.34884 17.8956 4.21986 17.9491C4.09087 18.0026 3.95258 18.0302 3.81293 18.0302V18.0258ZM6.41737 13.7782C6.20767 13.7782 6.00268 13.716 5.82832 13.5995C5.65397 13.483 5.51807 13.3174 5.43782 13.1237C5.35757 12.9299 5.33658 12.7168 5.37749 12.5111C5.4184 12.3054 5.51938 12.1165 5.66766 11.9682C5.81594 11.82 6.00486 11.719 6.21053 11.6781C6.41619 11.6371 6.62937 11.6581 6.82311 11.7384C7.01684 11.8186 7.18243 11.9545 7.29893 12.1289C7.41544 12.3033 7.47762 12.5082 7.47762 12.7179C7.4782 12.8576 7.4512 12.9959 7.39818 13.125C7.34516 13.2542 7.26715 13.3716 7.16864 13.4705C7.07013 13.5694 6.95305 13.6479 6.82413 13.7015C6.69521 13.755 6.55698 13.7826 6.41737 13.7826V13.7782ZM17.5093 13.7782C17.2996 13.7782 17.0946 13.716 16.9203 13.5995C16.7459 13.483 16.61 13.3174 16.5298 13.1237C16.4495 12.9299 16.4285 12.7168 16.4695 12.5111C16.5104 12.3054 16.6113 12.1165 16.7596 11.9682C16.9079 11.82 17.0968 11.719 17.3025 11.6781C17.5082 11.6371 17.7213 11.6581 17.9151 11.7384C18.1088 11.8186 18.2744 11.9545 18.3909 12.1289C18.5074 12.3033 18.5696 12.5082 18.5696 12.7179C18.57 12.8575 18.5429 12.9958 18.4899 13.1249C18.4368 13.2539 18.3588 13.3713 18.2603 13.4702C18.1618 13.5691 18.0448 13.6476 17.9159 13.7012C17.7871 13.7548 17.6489 13.7824 17.5093 13.7826V13.7782ZM20.1127 18.0258C19.9027 18.026 19.6973 17.9639 19.5226 17.8474C19.3479 17.7309 19.2117 17.5651 19.1312 17.3711C19.0508 17.1771 19.0296 16.9636 19.0706 16.7577C19.1115 16.5517 19.2126 16.3625 19.3611 16.214C19.5096 16.0655 19.6988 15.9644 19.9048 15.9234C20.1108 15.8825 20.3243 15.9036 20.5182 15.9841C20.7122 16.0646 20.878 16.2008 20.9945 16.3755C21.1111 16.5502 21.1731 16.7555 21.1729 16.9656C21.1735 17.1052 21.1465 17.2435 21.0935 17.3726C21.0405 17.5018 20.9625 17.6192 20.8639 17.7181C20.7654 17.817 20.6484 17.8955 20.5194 17.9491C20.3905 18.0026 20.2523 18.0302 20.1127 18.0302V18.0258Z" fill="#E3E3E3"/>
</svg>
