<svg width="111" height="22" viewBox="0 0 111 22" fill="none" xmlns="http://www.w3.org/2000/svg">
<path d="M63.6771 3.30537C63.7027 3.86772 63.5237 4.43007 63.4215 4.96686C62.9614 7.08844 62.8336 9.28671 62.2712 11.3827C63.1148 10.6415 64.0605 9.87462 65.2364 9.77238C65.9624 9.69086 66.6949 9.85238 67.3193 10.2317C67.9438 10.6109 68.4248 11.1865 68.6871 11.8684C68.9939 12.9931 68.8661 14.1689 68.636 15.2936C69.2155 15.3404 69.7984 15.3232 70.3742 15.2425C70.2882 14.5663 70.3414 13.8796 70.5304 13.2247C70.7194 12.5697 71.0403 11.9603 71.4733 11.4339C72.598 10.0536 74.5662 9.4912 76.2788 9.90018C77.7614 10.3347 78.6049 12.2774 77.6847 13.5554C76.6878 14.9869 75.0008 15.7026 73.4415 16.3672C73.6387 16.6084 73.8889 16.8009 74.1727 16.9294C74.4564 17.058 74.7661 17.1193 75.0774 17.1085C76.8667 17.0062 78.4515 16.0349 79.883 15.0636C79.8063 13.4021 80.2408 11.5361 81.6722 10.5137C83.1037 9.4912 85.1997 9.67013 86.6311 10.6415C87.398 10.0791 88.6505 10.1302 89.0595 11.1016C89.1617 12.7886 88.7016 14.5012 89.1873 16.1627C89.3151 16.5972 89.7752 17.1085 90.2608 16.8273C91.36 16.2394 92.0501 15.1914 92.7403 14.1945C93.1493 13.1209 93.0215 11.9195 93.3538 10.8204C93.4104 10.693 93.4942 10.5796 93.5992 10.4879C93.7042 10.3962 93.8279 10.3286 93.9618 10.2896C94.0956 10.2507 94.2364 10.2414 94.3741 10.2625C94.5119 10.2835 94.6435 10.3343 94.7596 10.4114C95.2964 10.667 95.3475 11.2805 95.4498 11.7917C96.1655 10.846 97.0857 9.8235 98.3893 9.84906C98.9287 9.7837 99.4746 9.89547 99.9449 10.1675C100.415 10.4395 100.784 10.8571 100.997 11.3572C101.687 10.4114 102.786 9.69569 104.013 9.87462C104.679 9.86152 105.324 10.1118 105.808 10.5712C106.291 11.0306 106.574 11.662 106.594 12.3285C106.722 13.8111 105.368 14.8846 105.316 16.3161C105.291 17.0318 106.16 17.1085 106.671 16.9295C108.128 16.4183 108.869 15.0124 109.841 13.9389C110.378 14.2456 111.042 14.8591 110.659 15.5237C109.841 16.6995 108.869 17.8753 107.617 18.6421C107.135 18.948 106.587 19.1352 106.018 19.1885C105.449 19.2419 104.876 19.1597 104.345 18.9489C103.323 18.5399 102.786 17.3896 102.837 16.3416C102.914 15.1658 103.681 14.22 103.987 13.0953C104.141 12.6864 103.936 12.124 103.476 12.0473C102.684 11.9706 101.942 12.4819 101.482 13.0953C100.792 14.0411 100.46 15.1658 100.127 16.2649C99.8974 17.0829 99.9741 18.0031 99.6163 18.7955C99.105 19.7157 97.5714 18.9744 97.5714 18.0798C97.4691 17.0318 97.7759 16.0605 98.1593 15.1147L98.4149 14.4501C98.6235 13.9349 98.7944 13.4053 98.9261 12.8653C98.9376 12.7594 98.9261 12.6523 98.8924 12.5513C98.8587 12.4503 98.8035 12.3578 98.7307 12.2801C98.6578 12.2024 98.5691 12.1414 98.4704 12.1012C98.3718 12.061 98.2657 12.0427 98.1593 12.0473C97.1624 12.124 96.4211 12.9164 95.9866 13.7599C95.293 15.1142 94.8677 16.5897 94.7341 18.1054C94.6829 18.6677 94.2995 19.409 93.5838 19.2045C92.6892 19.0511 92.3313 18.1054 92.4847 17.313C92.408 17.3896 92.3313 17.4408 92.2546 17.5174L92.0246 17.7219C91.2322 18.4632 90.3886 19.2301 89.2384 19.2045C87.7814 19.0256 86.989 17.543 86.8101 16.2649C86.1455 17.4663 85.3786 18.8211 83.9216 19.1534C82.3624 19.409 80.8543 18.3865 80.1641 17.0573C78.5793 18.3098 76.6111 19.2556 74.5407 19.2045C73.0837 19.1534 71.8823 18.182 71.0643 17.1085C69.9652 17.4408 68.7638 17.5941 67.7158 17.0062C66.7189 19.0767 63.9838 19.9713 61.8878 19.0511C60.9676 18.6677 60.4053 17.8242 59.9963 16.9551C58.7182 18.0798 57.1845 18.9744 55.4719 19.2301C54.5262 19.3834 53.7082 18.591 53.5293 17.7219C53.0947 16.0605 54.0661 14.4757 54.245 12.8653C54.265 12.7556 54.2571 12.6426 54.2222 12.5367C54.1872 12.4308 54.1263 12.3353 54.0449 12.259C53.9636 12.1827 53.8644 12.1281 53.7564 12.1C53.6485 12.072 53.5352 12.0714 53.427 12.0985C52.3023 12.1751 51.5611 13.172 51.0754 14.0667C50.493 15.1838 50.0795 16.3812 49.8485 17.6197C49.7462 18.1309 49.6951 18.6933 49.3117 19.1022C48.5704 19.5623 47.5735 18.9233 47.4968 18.1309C47.4893 17.3045 47.5837 16.4803 47.778 15.677C47.4172 16.1157 46.9069 16.4054 46.3453 16.4903C45.7837 16.5753 45.2106 16.4495 44.7362 16.1371C44.0716 18.2587 41.6944 19.5623 39.4961 19.1534C38.0136 18.8722 36.6844 17.6964 36.4032 16.2138C36.0709 14.6035 36.301 12.8142 37.2723 11.4339C38.8827 9.31227 42.5891 9.38896 44.225 11.4594C44.864 12.2774 44.9407 13.3254 44.8896 14.3223C45.3497 14.5268 45.8865 14.6546 46.2954 14.2967C47.4173 13.4333 48.2326 12.2327 48.6215 10.8715C48.676 10.7423 48.7587 10.6268 48.8634 10.5336C48.9682 10.4403 49.0924 10.3716 49.2271 10.3324C49.3618 10.2932 49.5035 10.2846 49.6419 10.3071C49.7804 10.3296 49.9121 10.3827 50.0274 10.4625C50.5131 10.7437 50.6153 11.3061 50.6153 11.7917C51.6377 10.5392 53.2992 9.69569 54.9607 9.90018C55.8554 10.0024 56.4688 10.7948 56.5711 11.6384C56.7756 12.8142 56.4433 13.9133 56.0854 15.0124L55.9576 15.447C55.8317 15.8064 55.7293 16.1735 55.6509 16.5461C55.5742 17.134 56.3155 16.9807 56.6222 16.7762C57.7235 16.2506 58.7333 15.5516 59.6129 14.7057C59.8429 10.8971 60.5586 7.13957 61.0443 3.3565C61.3255 2.02731 63.4982 2.07843 63.6771 3.30537ZM9.615 1.31159C10.8675 4.78793 11.5577 8.44319 12.12 12.0729C12.4779 11.6639 12.5546 11.1016 12.759 10.5903C13.577 8.39207 14.3438 6.16824 15.264 3.99553C15.5922 3.12217 16.0211 2.29006 16.5421 1.51608C16.6488 1.35693 16.801 1.2337 16.9789 1.16254C17.1568 1.09139 17.352 1.07563 17.539 1.11733C18.1525 1.50075 18.2803 2.26759 18.357 2.90662C18.7148 6.81749 18.9193 10.7539 19.2516 14.6648C19.3283 15.8406 19.8395 16.9909 19.7884 18.1667C19.5839 19.2914 17.5134 19.4192 17.3856 18.1667C16.9767 14.3069 16.6699 10.3961 16.5166 6.51076C15.3919 9.34806 14.625 12.3387 13.4748 15.176C13.0402 15.9429 12.4779 17.0676 11.4299 16.9398C10.7908 16.9142 10.7653 16.1985 10.663 15.7384C10.024 12.9778 9.43608 10.2171 8.92485 7.43096C8.10689 10.4728 7.21224 13.5145 5.67857 16.3007C5.01397 17.4254 4.22157 18.6524 2.84127 19.0102C2.17667 19.2403 1.07754 19.2914 0.873047 18.4479C0.873047 17.5788 1.92106 17.3999 2.40672 16.8375C3.30137 15.7895 3.86372 14.5114 4.4005 13.2589C5.88306 9.50143 6.87995 5.56499 7.82572 1.65412C7.9024 0.82593 9.25715 0.544756 9.615 1.31159ZM39.9818 12.1496C38.3714 13.0442 38.4481 15.4725 39.7262 16.6228C40.4419 17.2107 41.5666 16.8784 42.1034 16.1883C42.9469 15.1402 42.8191 13.6066 42.1034 12.533C41.8537 12.2264 41.5026 12.0192 41.1135 11.9489C40.7244 11.8785 40.323 11.9497 39.9818 12.1496ZM64.035 12.0473C62.4502 12.7119 61.6578 14.8335 62.6035 16.2905C63.0892 17.0573 64.1883 17.0062 64.9296 16.6995C66.54 15.9838 67.1279 13.7599 66.131 12.3285C65.6709 11.6384 64.6996 11.7406 64.035 12.0473ZM83.5638 12.0985C81.7745 12.763 81.6467 15.3192 82.8992 16.5461C83.2826 16.904 83.9728 17.0318 84.3818 16.6228C85.3259 15.6925 85.9445 14.4822 86.1455 13.172C85.8387 12.2007 84.484 11.8173 83.5638 12.1087V12.0985ZM73.8249 11.9451C73.0581 12.7375 72.9814 13.8877 72.8025 14.9102C73.7636 14.3127 74.6702 13.6319 75.512 12.8755C75.8187 12.6199 76.0743 12.1854 75.8698 11.7764C75.3331 11.1527 74.3362 11.4594 73.8249 11.9451ZM31.1887 9.97687C32.0182 10.3296 32.7199 10.9276 33.1997 11.6906C33.6794 12.4537 33.9143 13.3452 33.8727 14.2456C30.8564 14.2456 27.8402 14.2712 24.824 14.22C24.8097 13.6172 24.9153 13.0176 25.1347 12.4559C25.3541 11.8942 25.6829 11.3817 26.102 10.9482C26.76 10.3034 27.5938 9.8672 28.4987 9.6944C29.4036 9.5216 30.3394 9.61987 31.1887 9.97687Z" fill="white"/>
<path d="M31.062 21.4795C31.2409 21.4795 31.3943 21.5817 31.3943 21.7095C31.3943 21.8373 31.2409 21.9396 31.062 21.9396H26.2053C26.0264 21.9396 25.873 21.8373 25.873 21.7095C25.873 21.5817 26.0264 21.4795 26.2053 21.4795H31.062Z" fill="white"/>
<path d="M25.1565 21.94C25.34 21.94 25.4888 21.7912 25.4888 21.6077C25.4888 21.4242 25.34 21.2754 25.1565 21.2754C24.973 21.2754 24.8242 21.4242 24.8242 21.6077C24.8242 21.7912 24.973 21.94 25.1565 21.94Z" fill="white"/>
<path d="M28.0706 20.7134C28.2541 20.7134 28.4029 20.5646 28.4029 20.3811C28.4029 20.1976 28.2541 20.0488 28.0706 20.0488C27.8871 20.0488 27.7383 20.1976 27.7383 20.3811C27.7383 20.5646 27.8871 20.7134 28.0706 20.7134Z" fill="white"/>
<path d="M33.7703 20.0488C33.8139 20.0488 33.8571 20.0574 33.8975 20.0741C33.9378 20.0908 33.9744 20.1153 34.0053 20.1462C34.0361 20.177 34.0606 20.2136 34.0773 20.254C34.094 20.2943 34.1026 20.3375 34.1026 20.3811C34.1026 20.4248 34.094 20.468 34.0773 20.5083C34.0606 20.5486 34.0361 20.5852 34.0053 20.6161C33.9744 20.647 33.9378 20.6714 33.8975 20.6881C33.8571 20.7048 33.8139 20.7134 33.7703 20.7134H29.0159C28.9723 20.7134 28.929 20.7048 28.8887 20.6881C28.8484 20.6714 28.8118 20.647 28.7809 20.6161C28.7501 20.5852 28.7256 20.5486 28.7089 20.5083C28.6922 20.468 28.6836 20.4248 28.6836 20.3811C28.6836 20.3375 28.6922 20.2943 28.7089 20.254C28.7256 20.2136 28.7501 20.177 28.7809 20.1462C28.8118 20.1153 28.8484 20.0908 28.8887 20.0741C28.929 20.0574 28.9723 20.0488 29.0159 20.0488H33.7703Z" fill="white"/>
<path d="M21.8323 19.4859C22.0158 19.4859 22.1646 19.3371 22.1646 19.1536C22.1646 18.9701 22.0158 18.8213 21.8323 18.8213C21.6488 18.8213 21.5 18.9701 21.5 19.1536C21.5 19.3371 21.6488 19.4859 21.8323 19.4859Z" fill="white"/>
<path d="M26.5615 18.8213C26.6497 18.8213 26.7342 18.8563 26.7965 18.9186C26.8588 18.9809 26.8938 19.0655 26.8938 19.1536C26.8938 19.2417 26.8588 19.3262 26.7965 19.3886C26.7342 19.4509 26.6497 19.4859 26.5615 19.4859H22.6507C22.5625 19.4859 22.478 19.4509 22.4157 19.3886C22.3534 19.3262 22.3184 19.2417 22.3184 19.1536C22.3184 19.0655 22.3534 18.9809 22.4157 18.9186C22.478 18.8563 22.5625 18.8213 22.6507 18.8213H26.5615Z" fill="white"/>
<path d="M35.3295 18.8213C35.4176 18.8213 35.5021 18.8563 35.5645 18.9186C35.6268 18.9809 35.6618 19.0655 35.6618 19.1536C35.6618 19.2417 35.6268 19.3262 35.5645 19.3886C35.5021 19.4509 35.4176 19.4859 35.3295 19.4859H27.5589C27.4707 19.4859 27.3862 19.4509 27.3239 19.3886C27.2616 19.3262 27.2266 19.2417 27.2266 19.1536C27.2266 19.0655 27.2616 18.9809 27.3239 18.9186C27.3862 18.8563 27.4707 18.8213 27.5589 18.8213H35.3295Z" fill="white"/>
<path d="M33.8725 17.5938C33.9606 17.5938 34.0452 17.6288 34.1075 17.6911C34.1698 17.7534 34.2048 17.8379 34.2048 17.926C34.2048 18.0142 34.1698 18.0987 34.1075 18.161C34.0452 18.2233 33.9606 18.2583 33.8725 18.2583H24.3382C24.25 18.2583 24.1655 18.2233 24.1032 18.161C24.0409 18.0987 24.0059 18.0142 24.0059 17.926C24.0059 17.8379 24.0409 17.7534 24.1032 17.6911C24.1655 17.6288 24.25 17.5938 24.3382 17.5938H33.8725Z" fill="white"/>
<path d="M23.2893 18.2583C23.4728 18.2583 23.6216 18.1096 23.6216 17.926C23.6216 17.7425 23.4728 17.5938 23.2893 17.5938C23.1058 17.5938 22.957 17.7425 22.957 17.926C22.957 18.1096 23.1058 18.2583 23.2893 18.2583Z" fill="white"/>
<path d="M31.8784 16.3936C31.9665 16.3936 32.051 16.4286 32.1133 16.4909C32.1757 16.5532 32.2107 16.6377 32.2107 16.7259C32.2107 16.814 32.1757 16.8985 32.1133 16.9608C32.051 17.0231 31.9665 17.0581 31.8784 17.0581H22.344C22.2559 17.0581 22.1714 17.0231 22.109 16.9608C22.0467 16.8985 22.0117 16.814 22.0117 16.7259C22.0117 16.6377 22.0467 16.5532 22.109 16.4909C22.1714 16.4286 22.2559 16.3936 22.344 16.3936H31.8784Z" fill="white"/>
<path d="M21.1935 17.058C21.377 17.058 21.5258 16.9092 21.5258 16.7257C21.5258 16.5421 21.377 16.3934 21.1935 16.3934C21.0099 16.3934 20.8612 16.5421 20.8612 16.7257C20.8612 16.9092 21.0099 17.058 21.1935 17.058Z" fill="white"/>
<path d="M23.2893 15.8316C23.4728 15.8316 23.6216 15.6828 23.6216 15.4993C23.6216 15.3158 23.4728 15.167 23.2893 15.167C23.1058 15.167 22.957 15.3158 22.957 15.4993C22.957 15.6828 23.1058 15.8316 23.2893 15.8316Z" fill="white"/>
<path d="M34.7942 15.1758C34.8823 15.1758 34.9668 15.2108 35.0291 15.2731C35.0914 15.3354 35.1265 15.4199 35.1265 15.5081C35.1265 15.5962 35.0914 15.6807 35.0291 15.743C34.9668 15.8054 34.8823 15.8404 34.7942 15.8404H24.4163C24.3281 15.8404 24.2436 15.8054 24.1813 15.743C24.119 15.6807 24.084 15.5962 24.084 15.5081C24.084 15.4199 24.119 15.3354 24.1813 15.2731C24.2436 15.2108 24.3281 15.1758 24.4163 15.1758H34.7942Z" fill="white"/>
</svg>
