<svg width="43" height="41" viewBox="0 0 43 41" fill="none" xmlns="http://www.w3.org/2000/svg">
<path d="M35.2469 17.9616C35.2465 16.7948 34.8448 15.661 34.1044 14.7372L26.4219 22.1345C27.2319 22.7373 28.2013 23.1093 29.2199 23.2085C30.2385 23.3076 31.2656 23.1298 32.1845 22.6953C33.1035 22.2608 33.8776 21.5869 34.4189 20.7502C34.9602 19.9135 35.247 18.9474 35.2469 17.9616Z" fill="white"/>
<path d="M39.1197 9.91034L35.7217 13.1822C36.9614 14.6107 37.601 16.4342 37.5147 18.2939C37.4284 20.1537 36.6224 21.915 35.2552 23.2313C33.8881 24.5477 32.0589 25.3237 30.1274 25.4069C28.1959 25.49 26.302 24.8741 24.8184 23.6804L21.0855 27.2747L17.3624 23.6899C15.8788 24.8836 13.9849 25.4994 12.0534 25.4163C10.122 25.3332 8.2927 24.5572 6.92557 23.2408C5.55844 21.9245 4.75243 20.1631 4.66611 18.3034C4.57979 16.4437 5.21942 14.6202 6.45916 13.1916L4.71582 11.514L3.06112 9.91034C1.06235 13.0811 0.00618254 16.7194 0.00781439 20.4285C0.00781439 31.638 9.44352 40.7232 21.0855 40.7232C32.7274 40.7232 42.1632 31.638 42.1632 20.4285C42.1683 16.7202 41.1155 13.0819 39.1197 9.91034Z" fill="white"/>
<path d="M36.3324 6.42001C28.3052 -1.6884 14.9691 -1.99188 6.54789 5.7372C6.30166 5.9648 6.06527 6.19241 5.83873 6.42001C5.31738 6.94876 4.82428 7.50268 4.36133 8.07963L21.0856 24.1921L37.8098 8.07963C37.3498 7.50041 36.8565 6.94634 36.3324 6.42001ZM21.0856 2.78877C26.0103 2.78877 30.6001 4.61909 34.0473 7.95729L21.0856 20.4367L8.12379 7.95634C11.5711 4.61814 16.1609 2.78877 21.0856 2.78877Z" fill="white"/>
<path d="M12.083 23.2365C13.2949 23.2361 14.4725 22.8493 15.4318 22.1364L7.74931 14.7393C6.86072 15.8475 6.46534 17.2501 6.65001 18.6388C6.83469 20.0276 7.58432 21.289 8.73425 22.1459C9.69752 22.8506 10.8733 23.2335 12.083 23.2365Z" fill="white"/>
</svg>
