<svg width="46" height="52" viewBox="0 0 46 52" fill="none" xmlns="http://www.w3.org/2000/svg">
<path d="M23.0742 32.9402L30.0389 43.9952L36.4723 40.2254L27.3269 25.6455L23.0742 32.9402Z" fill="white"/>
<path d="M42.3326 35.7896V32.7706L32.3329 17.0283L28.627 23.3931L38.2724 39.1699L41.7703 37.1248C41.9389 36.9862 42.0769 36.8134 42.1754 36.6175C42.2738 36.4216 42.3306 36.207 42.3419 35.9875L42.3326 35.7896Z" fill="white"/>
<path d="M0.455078 38.6388L5.38189 41.5102L21.7715 14.9265L18.9757 14.8511C16.6055 14.8165 14.052 15.4417 12.8808 17.3643L3.56152 31.9568L0.455078 36.8324V38.6388Z" fill="white"/>
<path d="M31.234 14.9268L23.9028 14.9519L7.31445 42.6351L13.1111 46.0123L14.6891 43.3074L31.234 14.9268Z" fill="white"/>
<path d="M45.4208 14.8859C45.388 14.121 45.1715 13.3757 44.7899 12.7145C44.4083 12.0533 43.8732 11.496 43.2307 11.091L24.9959 0.491402C24.3454 0.16811 23.6302 0 22.9053 0C22.1805 0 21.4652 0.16811 20.8147 0.491402C20.6687 0.566799 3.09555 10.8742 3.09555 10.8742C2.34049 11.2399 1.6968 11.8046 1.23216 12.5089C0.767519 13.2132 0.499084 14.031 0.455078 14.8765L0.455078 36.8327L3.58637 31.9665L3.56152 15.0273C3.56152 14.9645 3.56152 14.9016 3.58326 14.842C3.65372 14.4415 3.87682 14.085 4.20455 13.8492C4.28532 13.7895 22.1598 3.32507 22.2219 3.2968C22.4365 3.19215 22.6717 3.1378 22.91 3.1378C23.1482 3.1378 23.3834 3.19215 23.5981 3.2968L41.5843 13.755C41.7945 13.891 41.9691 14.0762 42.0935 14.295C42.2178 14.5137 42.2883 14.7595 42.2988 15.0116V35.9971C42.2947 36.2145 42.2445 36.4284 42.1518 36.6245C42.0592 36.8207 41.926 36.9945 41.7614 37.1343L38.2729 39.1795L36.4898 40.2256L30.0563 43.9955L23.5328 47.8187C23.1715 47.9467 22.7768 47.9389 22.4207 47.7967L14.6888 43.3075L13.1107 46.0123L20.0474 50.0492L20.65 50.3948C20.9079 50.5424 21.0849 50.6398 21.1471 50.6712C21.7277 50.9284 22.3554 51.059 22.9892 51.0545C23.57 51.0578 24.1463 50.9512 24.6884 50.7403L43.6377 39.6413C44.1722 39.2212 44.609 38.6874 44.9171 38.0778C45.2252 37.4682 45.3972 36.7976 45.4208 36.1133V14.8859Z" fill="white"/>
</svg>
