<svg width="47" height="47" viewBox="0 0 47 47" fill="none" xmlns="http://www.w3.org/2000/svg">
<path d="M18.9176 41.9501C26.2197 41.9501 32.1374 35.8901 32.1374 28.4122C32.1374 20.9343 26.2197 14.8742 18.9176 14.8742C11.6155 14.8742 5.69781 20.9343 5.69781 28.4122C5.69781 35.8901 11.6155 41.9501 18.9176 41.9501ZM18.9176 46.873C8.9619 46.873 0.890625 38.6075 0.890625 28.4122C0.890625 18.2169 8.9619 9.95132 18.9176 9.95132C28.8733 9.95132 36.9445 18.2169 36.9445 28.4122C36.9445 38.6075 28.8733 46.873 18.9176 46.873Z" fill="white" fill-opacity="0.7"/>
<path d="M28.5309 32.1043C35.833 32.1043 41.7506 26.0442 41.7506 18.5663C41.7506 11.0884 35.833 5.02836 28.5309 5.02836C21.2287 5.02836 15.3111 11.0884 15.3111 18.5663C15.3111 26.0442 21.2287 32.1043 28.5309 32.1043ZM28.5309 37.0272C18.5752 37.0272 10.5039 28.7616 10.5039 18.5663C10.5039 8.37101 18.5752 0.105469 28.5309 0.105469C38.4866 0.105469 46.5578 8.37101 46.5578 18.5663C46.5578 28.7616 38.4866 37.0272 28.5309 37.0272Z" fill="white" fill-opacity="0.7"/>
<path d="M29.127 37.0271C30.3771 35.4757 31.2723 33.6573 31.7469 31.7054C33.6521 31.2174 35.4273 30.3008 36.9434 29.0225C36.8756 31.2831 36.3997 33.5113 35.5397 35.5945C33.5063 36.4718 31.3324 36.9574 29.127 37.0271ZM15.7005 15.2728C13.7952 15.7609 12.0201 16.6774 10.5039 17.9558C10.5712 15.6967 11.0472 13.47 11.9076 11.3887C13.9416 10.5127 16.115 10.0255 18.3204 9.95117C17.0702 11.5026 16.1751 13.321 15.7005 15.2728Z" fill="white"/>
</svg>
