<svg width="47" height="40" viewBox="0 0 47 40" fill="none" xmlns="http://www.w3.org/2000/svg">
<path d="M32.7922 1.16063C35.4263 2.28062 37.6547 4.17965 39.1782 6.60277C40.7017 9.02589 41.4475 11.8571 41.3153 14.7163C31.737 14.7163 22.1587 14.7975 12.5805 14.6352C12.5351 12.7208 12.8706 10.8166 13.5673 9.03295C14.264 7.24934 15.3082 5.62191 16.6391 4.24516C18.7286 2.19747 21.3762 0.812383 24.2499 0.263643C27.1235 -0.285097 30.0952 0.0269475 32.7922 1.16063Z" fill="white"/>
<path d="M32.3924 37.6888C32.9606 37.6888 33.4477 38.0135 33.4477 38.4193C33.4477 38.8252 32.9606 39.1499 32.3924 39.1499H16.9698C16.4016 39.1499 15.9146 38.8252 15.9146 38.4193C15.9146 38.0135 16.4016 37.6888 16.9698 37.6888H32.3924Z" fill="white"/>
<path d="M13.6404 39.151C14.2232 39.151 14.6957 38.6786 14.6957 38.0958C14.6957 37.513 14.2232 37.0406 13.6404 37.0406C13.0577 37.0406 12.5852 37.513 12.5852 38.0958C12.5852 38.6786 13.0577 39.151 13.6404 39.151Z" fill="white"/>
<path d="M22.8919 35.2561C23.4747 35.2561 23.9471 34.7836 23.9471 34.2008C23.9471 33.618 23.4747 33.1456 22.8919 33.1456C22.3091 33.1456 21.8367 33.618 21.8367 34.2008C21.8367 34.7836 22.3091 35.2561 22.8919 35.2561Z" fill="white"/>
<path d="M40.9935 33.1456C41.1321 33.1456 41.2693 33.1729 41.3973 33.2259C41.5254 33.279 41.6417 33.3567 41.7397 33.4547C41.8377 33.5527 41.9154 33.669 41.9684 33.797C42.0215 33.925 42.0488 34.0623 42.0488 34.2008C42.0488 34.3394 42.0215 34.4766 41.9684 34.6047C41.9154 34.7327 41.8377 34.849 41.7397 34.947C41.6417 35.045 41.5254 35.1227 41.3973 35.1757C41.2693 35.2288 41.1321 35.2561 40.9935 35.2561H25.8956C25.757 35.2561 25.6198 35.2288 25.4917 35.1757C25.3637 35.1227 25.2474 35.045 25.1494 34.947C25.0514 34.849 24.9737 34.7327 24.9207 34.6047C24.8676 34.4766 24.8403 34.3394 24.8403 34.2008C24.8403 34.0623 24.8676 33.925 24.9207 33.797C24.9737 33.669 25.0514 33.5527 25.1494 33.4547C25.2474 33.3567 25.3637 33.279 25.4917 33.2259C25.6198 33.1729 25.757 33.1456 25.8956 33.1456H40.9935Z" fill="white"/>
<path d="M3.08136 31.3578C3.66415 31.3578 4.1366 30.8853 4.1366 30.3025C4.1366 29.7198 3.66415 29.2473 3.08136 29.2473C2.49857 29.2473 2.02612 29.7198 2.02612 30.3025C2.02612 30.8853 2.49857 31.3578 3.08136 31.3578Z" fill="white"/>
<path d="M18.1025 29.2473C18.3823 29.2473 18.6507 29.3585 18.8486 29.5564C19.0465 29.7543 19.1577 30.0227 19.1577 30.3025C19.1577 30.5824 19.0465 30.8508 18.8486 31.0487C18.6507 31.2466 18.3823 31.3578 18.1025 31.3578H5.68316C5.40329 31.3578 5.13489 31.2466 4.937 31.0487C4.7391 30.8508 4.62793 30.5824 4.62793 30.3025C4.62793 30.0227 4.7391 29.7543 4.937 29.5564C5.13489 29.3585 5.40329 29.2473 5.68316 29.2473H18.1025Z" fill="white"/>
<path d="M45.9436 29.2473C46.2235 29.2473 46.4919 29.3585 46.6898 29.5564C46.8877 29.7543 46.9989 30.0227 46.9989 30.3025C46.9989 30.5824 46.8877 30.8508 46.6898 31.0487C46.4919 31.2466 46.2235 31.3578 45.9436 31.3578H21.2674C20.9875 31.3578 20.7191 31.2466 20.5212 31.0487C20.3233 30.8508 20.2122 30.5824 20.2122 30.3025C20.2122 30.0227 20.3233 29.7543 20.5212 29.5564C20.7191 29.3585 20.9875 29.2473 21.2674 29.2473H45.9436Z" fill="white"/>
<path d="M41.3201 25.349C41.6 25.349 41.8684 25.4602 42.0663 25.6581C42.2642 25.856 42.3753 26.1244 42.3753 26.4042C42.3753 26.6841 42.2642 26.9525 42.0663 27.1504C41.8684 27.3483 41.6 27.4595 41.3201 27.4595H11.043C10.7632 27.4595 10.4948 27.3483 10.2969 27.1504C10.099 26.9525 9.98779 26.6841 9.98779 26.4042C9.98779 26.1244 10.099 25.856 10.2969 25.6581C10.4948 25.4602 10.7632 25.349 11.043 25.349H41.3201Z" fill="white"/>
<path d="M7.70928 27.4595C8.29207 27.4595 8.76452 26.987 8.76452 26.4042C8.76452 25.8214 8.29207 25.349 7.70928 25.349C7.12649 25.349 6.65405 25.8214 6.65405 26.4042C6.65405 26.987 7.12649 27.4595 7.70928 27.4595Z" fill="white"/>
<path d="M34.9874 21.5377C35.2672 21.5377 35.5356 21.6489 35.7335 21.8468C35.9314 22.0447 36.0426 22.3131 36.0426 22.593C36.0426 22.8728 35.9314 23.1412 35.7335 23.3391C35.5356 23.537 35.2672 23.6482 34.9874 23.6482H4.71027C4.4304 23.6482 4.162 23.537 3.96411 23.3391C3.76621 23.1412 3.65503 22.8728 3.65503 22.593C3.65503 22.3131 3.76621 22.0447 3.96411 21.8468C4.162 21.6489 4.4304 21.5377 4.71027 21.5377H34.9874Z" fill="white"/>
<path d="M1.05524 23.6482C1.63803 23.6482 2.11047 23.1757 2.11047 22.593C2.11047 22.0102 1.63803 21.5377 1.05524 21.5377C0.472447 21.5377 0 22.0102 0 22.593C0 23.1757 0.472447 23.6482 1.05524 23.6482Z" fill="white"/>
<path d="M7.70928 19.7532C8.29207 19.7532 8.76452 19.2808 8.76452 18.698C8.76452 18.1152 8.29207 17.6428 7.70928 17.6428C7.12649 17.6428 6.65405 18.1152 6.65405 18.698C6.65405 19.2808 7.12649 19.7532 7.70928 19.7532Z" fill="white"/>
<path d="M44.2444 17.6707C44.5243 17.6707 44.7926 17.7818 44.9905 17.9797C45.1884 18.1776 45.2996 18.446 45.2996 18.7259C45.2996 19.0058 45.1884 19.2742 44.9905 19.4721C44.7926 19.6699 44.5243 19.7811 44.2444 19.7811H11.2886C11.0088 19.7811 10.7404 19.6699 10.5425 19.4721C10.3446 19.2742 10.2334 19.0058 10.2334 18.7259C10.2334 18.446 10.3446 18.1776 10.5425 17.9797C10.7404 17.7818 11.0088 17.6707 11.2886 17.6707H44.2444Z" fill="white"/>
</svg>
