<svg width="49" height="42" viewBox="0 0 49 42" fill="none" xmlns="http://www.w3.org/2000/svg">
<path d="M36.568 12.6949C35.707 12.2029 34.5999 12.2029 33.6159 12.6949L26.7276 16.7541L22.0534 19.3372L15.2881 23.3964C14.4271 23.8884 13.32 23.8884 12.336 23.3964L7.04675 20.1982C6.18571 19.7062 5.57068 18.7222 5.57068 17.6151V11.4649C5.57068 10.4808 6.0627 9.49679 7.04675 8.88177L12.336 5.80664C13.197 5.31461 14.3041 5.31461 15.2881 5.80664L20.5773 9.00477C21.4384 9.49679 22.0534 10.4808 22.0534 11.5879V15.6471L26.7276 12.9409V8.75876C26.7276 7.77472 26.2356 6.79068 25.2515 6.17565L15.4111 0.394406C14.5501 -0.0976146 13.443 -0.0976146 12.459 0.394406L2.37255 6.29866C1.38851 6.79068 0.896484 7.77472 0.896484 8.75876V20.3213C0.896484 21.3053 1.38851 22.2893 2.37255 22.9044L12.336 28.6856C13.197 29.1776 14.3041 29.1776 15.2881 28.6856L22.0534 24.7494L26.7276 22.0433L33.4929 18.1072C34.3539 17.6151 35.461 17.6151 36.445 18.1072L41.7342 21.1823C42.5953 21.6743 43.2103 22.6584 43.2103 23.7654V29.9157C43.2103 30.8997 42.7183 31.8837 41.7342 32.4988L36.568 35.5739C35.707 36.0659 34.5999 36.0659 33.6159 35.5739L28.3267 32.4988C27.4656 32.0067 26.8506 31.0227 26.8506 29.9157V25.9795L22.1764 28.6856V32.7448C22.1764 33.7288 22.6684 34.7129 23.6525 35.3279L33.6159 41.1091C34.4769 41.6012 35.584 41.6012 36.568 41.1091L46.5314 35.3279C47.3925 34.8359 48.0075 33.8518 48.0075 32.7448V21.0593C48.0075 20.0752 47.5155 19.0912 46.5314 18.4762L36.568 12.6949Z" fill="white"/>
</svg>
