<svg width="40" height="42" viewBox="0 0 40 42" fill="none" xmlns="http://www.w3.org/2000/svg">
<path d="M39.4648 22.4712V36.0099C39.4648 38.2197 36.8079 39.3428 35.2229 37.8031L21.1324 24.1152L19.2236 22.4712L39.4648 22.4712Z" fill="white"/>
<path d="M0.822266 20.3687L0.822266 6.82998C0.822266 4.62014 3.47916 3.497 5.06423 5.03678L19.1547 18.7246L21.0635 20.3687L0.822266 20.3687Z" fill="white"/>
<path d="M21.3264 37.3478L21.3264 23.3695C21.3264 21.7126 19.9832 20.3695 18.3264 20.3695L0.82222 20.3695L0.82222 37.3478C0.82222 39.0047 2.16536 40.3478 3.82222 40.3478H18.3264C19.9832 40.3478 21.3264 39.0047 21.3264 37.3478Z" fill="white"/>
<path d="M19.2236 20.3693L0.822449 38.2447V20.3693H19.2236Z" fill="#EFEFEF"/>
<path d="M18.9606 5.49322L18.9606 19.4716C18.9606 21.1285 20.3037 22.4716 21.9606 22.4716L39.4647 22.4716V5.49323C39.4647 3.83637 38.1216 2.49323 36.4647 2.49323L21.9606 2.49323C20.3037 2.49323 18.9606 3.83637 18.9606 5.49322Z" fill="#DCDCDC"/>
<path d="M21.0635 22.4718L39.4647 4.5964V22.4718H21.0635Z" fill="#F0EDED"/>
</svg>
