<svg width="45" height="47" viewBox="0 0 45 47" fill="none" xmlns="http://www.w3.org/2000/svg">
<path fill-rule="evenodd" clip-rule="evenodd" d="M22.5867 38.2303C21.1389 38.2564 19.7061 37.9332 18.4098 37.2879L5.70649 30.6508L1.8924 32.934C0.0827 34.0224 0.122522 35.6861 1.9632 36.6551L19.5381 45.8452C20.4887 46.3011 21.5327 46.5284 22.5867 46.5089C23.8353 46.5316 25.068 46.2265 26.1619 45.624L43.3606 35.2879C45.1659 34.1994 45.1305 32.5313 43.2899 31.5667L39.6351 29.6553L27.4185 36.9958C25.9455 37.8271 24.2779 38.2517 22.5867 38.2259" fill="white"/>
<path fill-rule="evenodd" clip-rule="evenodd" d="M43.4021 20.5707L40.3535 18.9512L33.2518 23.2786L32.0351 24.0219L30.8138 24.7653L27.4909 26.8183C26.0121 27.6694 24.3297 28.1023 22.6237 28.0705C21.1704 28.094 19.7329 27.7661 18.4335 27.1148L14.6283 25.0927L13.3982 24.4025L12.1283 23.7211L5.11078 20.0087L1.89402 21.9512C0.0798989 23.0574 0.124146 24.7476 1.96482 25.7343L5.63732 27.7033L6.89836 28.3714L8.15939 29.0307L19.5928 35.0881C20.5434 35.5544 21.5917 35.7865 22.6503 35.7651C23.9024 35.7946 25.1398 35.4891 26.2343 34.8801L37.2208 28.1679L38.4376 27.4245L39.6588 26.6812L43.4862 24.3538C45.3003 23.2476 45.256 21.553 43.4154 20.5707" fill="white"/>
<path fill-rule="evenodd" clip-rule="evenodd" d="M43.4022 10.6548L25.7874 1.47797C24.836 1.01957 23.7903 0.790726 22.7344 0.809846C21.4829 0.78644 20.2472 1.09156 19.1504 1.69478L1.89409 12.0265C0.0799599 13.1105 0.124207 14.7786 1.96488 15.7432L5.0135 17.3317L6.27453 17.9909L7.53557 18.6458L14.5664 22.305L15.8275 22.9599L17.0841 23.6192L19.5929 24.9244C20.546 25.382 21.5933 25.6093 22.6503 25.5881C23.9021 25.6136 25.1383 25.3084 26.2343 24.7032L28.2962 23.4687L29.5175 22.7386L30.7343 22.0086L37.8138 17.7564L39.0615 17.0219L40.2783 16.2919L43.4862 14.376C45.3004 13.2875 45.2561 11.6238 43.4154 10.6548" fill="white"/>
</svg>
