<svg width="46" height="47" viewBox="0 0 46 47" fill="none" xmlns="http://www.w3.org/2000/svg">
<path fill-rule="evenodd" clip-rule="evenodd" d="M45.8734 23.3459C45.8734 35.9568 35.6502 46.18 23.0392 46.18C10.4283 46.18 0.205078 35.9568 0.205078 23.3459C0.205078 10.7349 10.4283 0.511719 23.0392 0.511719C35.6502 0.511719 45.8734 10.7349 45.8734 23.3459ZM29.8896 15.9245L24.7519 18.9214L29.8896 21.9184V15.9245ZM23.0394 35.7616L29.8896 31.7657V24.7727L23.0394 28.7687L16.1891 24.7727V31.7657L23.0394 35.7616ZM21.3268 18.9214L16.1891 15.9245V21.9184L21.3268 18.9214ZM29.0333 23.3456L23.8957 20.3486V26.3425L29.0333 23.3456ZM17.0454 23.3456L22.1831 26.3425V20.3486L17.0454 23.3456ZM23.0394 17.9225L29.0333 14.4973L23.0394 10.9295L17.0454 14.4973L23.0394 17.9225ZM14.4766 32.6219V13.9265L23.0394 9.07422L31.6022 13.9265V32.6219L23.0394 37.4742L14.4766 32.6219Z" fill="white"/>
</svg>
