<svg width="46" height="46" viewBox="0 0 46 46" fill="none" xmlns="http://www.w3.org/2000/svg">
<path d="M13.9372 19.5466L22.6845 10.7993L31.4359 19.5504L36.5255 14.4608L22.6845 0.620117L8.84793 14.4566L13.9374 19.5463L13.9372 19.5466ZM0.164062 23.1405L5.25385 18.05L10.3433 23.1394L5.25349 28.2292L0.164062 23.1405ZM13.9372 26.7349L22.6845 35.4817L31.4357 26.7308L36.528 31.8177L36.5255 31.8204L22.6845 45.6609L8.84793 31.8244L8.84072 31.8172L13.9377 26.7344L13.9372 26.7349ZM35.0256 23.1427L40.1154 18.0529L45.2048 23.1423L40.1152 28.2321L35.0256 23.1427Z" fill="white"/>
<path d="M27.8468 23.1381H27.8489L22.6847 17.9735L18.8676 21.7895L18.4291 22.2282L17.5247 23.1328L17.5175 23.1399L17.5247 23.1473L22.6847 28.308L27.8493 23.1435L27.8518 23.1406L27.8471 23.1381" fill="white"/>
</svg>
