<svg width="55" height="30" viewBox="0 0 55 30" fill="none" xmlns="http://www.w3.org/2000/svg">
<path d="M11.0379 29.2632C8.22925 29.3483 5.45763 28.5361 3.133 26.9466C2.13358 26.1908 1.33423 25.2057 0.805102 24.0778C0.275972 22.9499 0.0332374 21.7137 0.0982032 20.4778C0.1139 19.759 0.181512 19.0428 0.300523 18.3346C0.647356 16.4361 1.15315 14.1532 1.74566 11.4851C3.62434 4.22072 8.37403 0.629704 15.9947 0.712051C17.924 0.700324 19.8404 1.07117 21.6308 1.80272C23.1949 2.43117 24.5455 3.49427 25.5182 4.86253C26.494 6.27609 26.9995 7.95264 26.9633 9.65514C26.9474 10.3597 26.8797 11.0616 26.761 11.7554C26.3564 14.1109 25.865 16.394 25.3159 18.6049C24.6229 21.7906 22.8673 24.6423 20.3302 26.7034C17.6179 28.559 14.3481 29.4597 11.0379 29.2632ZM11.6593 23.549C13.0594 23.6009 14.4254 23.1481 15.5034 22.2747C16.6932 21.2367 17.5048 19.8397 17.8156 18.295C18.437 15.8131 18.9139 13.6443 19.2607 11.7888C19.3722 11.2295 19.4255 10.6598 19.4197 10.0885C19.4197 7.67141 18.148 6.45627 15.5756 6.42847C14.1529 6.37191 12.7627 6.82397 11.6593 7.70197C10.472 8.74203 9.66086 10.1381 9.34709 11.6816C8.85575 13.4498 8.3644 15.6185 7.90195 18.1879C7.7849 18.732 7.72677 19.2876 7.72854 19.8451C7.71409 22.2907 9.01471 23.5204 11.6593 23.549Z" fill="white"/>
<path d="M28.1626 29.0475C28.0338 29.0558 27.9044 29.035 27.7842 28.9866C27.664 28.9383 27.5562 28.8636 27.469 28.7683C27.3374 28.5527 27.2959 28.2955 27.3534 28.0519L32.9461 2.32519C32.9571 2.17967 32.9972 2.03808 33.0642 1.90866C33.1312 1.77925 33.2237 1.6646 33.3362 1.57138C33.5511 1.3965 33.8225 1.30317 34.1022 1.30791L44.8974 1.42456C47.438 1.32031 49.9588 1.98622 52.1231 3.33334C53.0112 3.90494 53.734 4.69651 54.2186 5.62828C54.7032 6.56005 54.9324 7.59911 54.8833 8.64075C54.8839 9.33446 54.8014 10.0249 54.6376 10.6976C54.1914 13.3798 52.7293 15.7825 50.5479 17.4185C48.0662 18.9728 45.1415 19.7024 42.1949 19.5022L36.7468 19.4433L34.8825 28.0904C34.8347 28.3775 34.6736 28.633 34.4346 28.8007C34.2197 28.9755 33.9483 29.0689 33.6686 29.0641L28.1626 29.0475ZM42.5129 14.0278C43.5504 14.0473 44.5633 13.7375 45.4032 13.1437C46.2773 12.5203 46.8805 11.5931 47.094 10.5446C47.1741 10.1546 47.2176 9.75766 47.224 9.35892C47.2464 9.03347 47.1958 8.70636 47.0759 8.40096C46.956 8.09557 46.7697 7.81941 46.5304 7.59223C45.8475 7.10084 45.011 6.86831 44.1748 6.93747L39.3914 6.88578L37.8451 14.0203L42.5129 14.0278Z" fill="white"/>
</svg>
