<svg width="47" height="36" viewBox="0 0 47 36" fill="none" xmlns="http://www.w3.org/2000/svg">
<path d="M16.2627 0.726567H12.0802C11.9392 0.7266 11.8017 0.775663 11.6862 0.867109C11.5707 0.958555 11.4828 1.08796 11.4345 1.2378L0.440752 35.3339C0.4218 35.3927 0.415653 35.4557 0.422834 35.5177C0.430014 35.5797 0.450309 35.6389 0.481998 35.6901C0.513686 35.7414 0.555832 35.7832 0.60486 35.8121C0.653887 35.841 0.70835 35.856 0.763626 35.856H4.94615C5.0871 35.856 5.22463 35.8069 5.34013 35.7155C5.45563 35.6241 5.54352 35.4948 5.5919 35.345L16.5863 1.24865C16.6053 1.18984 16.6114 1.12672 16.6042 1.06465C16.597 1.00259 16.5766 0.943411 16.5449 0.892153C16.5131 0.840896 16.4709 0.799075 16.4217 0.770246C16.3726 0.741417 16.3181 0.726433 16.2627 0.726567ZM21.35 15.0121C21.2401 14.6713 20.8143 14.6713 20.7042 15.0121L18.535 21.7379C18.4795 21.91 18.4795 22.0987 18.535 22.2708L22.7515 35.3448C22.7998 35.4946 22.8877 35.624 23.0032 35.7154C23.1187 35.8068 23.2563 35.8558 23.3973 35.8558H27.5798C27.6351 35.8558 27.6895 35.8407 27.7386 35.8118C27.7876 35.7829 27.8297 35.7411 27.8614 35.6899C27.8931 35.6386 27.9134 35.5795 27.9206 35.5175C27.9278 35.4555 27.9216 35.3924 27.9027 35.3337L21.35 15.0121ZM32.0123 21.5953C32.1222 21.936 32.548 21.936 32.6579 21.5953L39.2186 1.24865C39.2375 1.18986 39.2437 1.12676 39.2365 1.06472C39.2293 1.00267 39.2089 0.943511 39.1772 0.892259C39.1455 0.841008 39.1032 0.799183 39.0542 0.770336C39.0051 0.741489 38.9506 0.726474 38.8952 0.726567H34.7132C34.5722 0.726563 34.4346 0.775611 34.3191 0.867062C34.2036 0.958513 34.1157 1.08794 34.0674 1.2378L29.8431 14.3373C29.7876 14.5093 29.7876 14.698 29.8431 14.87L32.0123 21.5953ZM23.7656 1.23418C23.7177 1.08541 23.6306 0.9569 23.516 0.86609C23.4013 0.775279 23.2648 0.726568 23.1249 0.726567H18.9282C18.7872 0.726596 18.6497 0.775632 18.5343 0.867031C18.4188 0.958429 18.331 1.08777 18.2826 1.23754L7.28916 35.3339C7.2702 35.3927 7.26405 35.4558 7.27126 35.5179C7.27846 35.5799 7.2988 35.6391 7.33054 35.6903C7.36228 35.7416 7.40449 35.7834 7.45357 35.8122C7.50266 35.8411 7.55718 35.8561 7.61249 35.856H11.7948C11.9358 35.856 12.0733 35.807 12.1888 35.7156C12.3043 35.6242 12.3922 35.4949 12.4405 35.345L20.8577 9.23898C20.8698 9.20139 20.8919 9.16893 20.9209 9.146C20.9499 9.12306 20.9844 9.11076 21.0198 9.11076C21.0552 9.11076 21.0897 9.12306 21.1187 9.146C21.1477 9.16893 21.1697 9.20139 21.1819 9.23898L29.5992 35.345C29.6475 35.4949 29.7354 35.6243 29.8509 35.7157C29.9664 35.8071 30.104 35.8561 30.245 35.856H34.4277C34.4831 35.8563 34.5377 35.8414 34.5868 35.8126C34.636 35.7839 34.6782 35.742 34.7099 35.6907C34.7417 35.6394 34.762 35.5802 34.769 35.5181C34.7761 35.456 34.7698 35.3929 34.7506 35.3342L23.7656 1.23418ZM45.7441 0.726567H41.5611C41.4202 0.726559 41.2827 0.77558 41.1672 0.866984C41.0517 0.958388 40.9639 1.08775 40.9156 1.23754L33.2678 24.9577C33.2123 25.1297 33.2123 25.3184 33.2678 25.4904L35.437 32.2167C35.5468 32.5574 35.9727 32.5574 36.0825 32.2167L43.6532 8.73653L46.067 1.24839C46.0862 1.18966 46.0925 1.12655 46.0854 1.06446C46.0783 1.00236 46.058 0.943134 46.0263 0.891842C45.9946 0.840551 45.9523 0.798723 45.9032 0.769939C45.854 0.741156 45.7994 0.726274 45.7441 0.726567Z" fill="white"/>
</svg>
