<svg width="45" height="45" viewBox="0 0 45 45" fill="none" xmlns="http://www.w3.org/2000/svg">
<path fill-rule="evenodd" clip-rule="evenodd" d="M22.2274 44.6686C34.5032 44.6686 44.4547 34.7171 44.4547 22.4412C44.4547 10.1654 34.5032 0.213867 22.2274 0.213867C9.95153 0.213867 0 10.1654 0 22.4412C0 34.7171 9.95153 44.6686 22.2274 44.6686ZM33.1208 23.7668C32.4044 22.447 31.133 22.447 30.2737 23.7668L24.8254 32.1197C23.9839 33.4395 24.5702 34.5161 26.1281 34.5161H36.0125C37.5882 34.5161 38.2912 33.4395 37.5748 32.1197L33.1208 23.7668ZM24.4834 7.68619C23.767 6.3664 22.5136 6.3664 21.6542 7.68619L6.02362 32.1197C5.16332 33.4568 5.75057 34.5161 7.32634 34.5161H14.5068C15.9619 34.4293 17.3096 33.6826 18.1614 32.5017L27.5974 17.9667C28.2919 16.7163 28.3718 15.2403 27.8128 13.9899L25.4723 9.59642L24.4834 7.68619Z" fill="white"/>
</svg>
