<svg width="149" height="34" viewBox="0 0 149 34" fill="none" xmlns="http://www.w3.org/2000/svg">
<path d="M7.71375 24.6779L12.954 15.988L18.1943 24.6779L12.954 27.7787L7.71375 24.6779Z" fill="white"/>
<path d="M12.9507 12.512C15.9502 12.512 18.3818 10.0804 18.3818 7.08093C18.3818 4.08146 15.9502 1.6499 12.9507 1.6499C9.95127 1.6499 7.51971 4.08146 7.51971 7.08093C7.51971 10.0804 9.95127 12.512 12.9507 12.512Z" fill="white"/>
<path d="M12.9523 6.00952C10.4098 6.00959 7.92361 6.7579 5.80349 8.16121C3.68337 9.56452 2.02314 11.5608 1.0297 13.9011C0.0362672 16.2415 -0.246426 18.8225 0.216853 21.3224C0.680133 23.8223 1.8689 26.1305 3.63498 27.9595L12.9523 12.5109L22.2684 27.9595C24.035 26.1308 25.2243 23.8226 25.6879 21.3226C26.1516 18.8226 25.8691 16.2415 24.8757 13.9009C23.8823 11.5604 22.222 9.56401 20.1017 8.1607C17.9814 6.7574 15.4949 6.00926 12.9523 6.00952ZM3.65506 20.5659C3.4155 20.5659 3.18134 20.4948 2.98217 20.3617C2.78301 20.2286 2.62779 20.0394 2.53618 19.8181C2.44456 19.5967 2.42066 19.3532 2.46748 19.1182C2.51431 18.8833 2.62976 18.6675 2.79924 18.4982C2.96872 18.3289 3.18461 18.2137 3.41959 18.1671C3.65457 18.1205 3.89809 18.1447 4.11933 18.2365C4.34058 18.3284 4.52962 18.4838 4.66253 18.6831C4.79544 18.8824 4.86625 19.1167 4.866 19.3562C4.8665 19.5155 4.83554 19.6734 4.7749 19.8208C4.71427 19.9681 4.62515 20.102 4.51266 20.2149C4.40016 20.3277 4.26651 20.4173 4.11934 20.4784C3.97218 20.5395 3.8144 20.5709 3.65506 20.5709V20.5659ZM6.62657 15.7196C6.38732 15.7196 6.15344 15.6487 5.9545 15.5157C5.75557 15.3828 5.60052 15.1939 5.50896 14.9729C5.4174 14.7518 5.39345 14.5086 5.44013 14.2739C5.48681 14.0393 5.60202 13.8237 5.77119 13.6546C5.94037 13.4854 6.15592 13.3702 6.39057 13.3235C6.62523 13.2768 6.86845 13.3008 7.08949 13.3923C7.31053 13.4839 7.49946 13.6389 7.63238 13.8379C7.7653 14.0368 7.83625 14.2707 7.83625 14.5099C7.83691 14.6692 7.80611 14.8271 7.74561 14.9744C7.68512 15.1217 7.59612 15.2557 7.48373 15.3685C7.37133 15.4814 7.23775 15.571 7.09066 15.6321C6.94356 15.6932 6.78585 15.7246 6.62657 15.7246V15.7196ZM19.2818 15.7196C19.0426 15.7196 18.8087 15.6487 18.6098 15.5157C18.4108 15.3828 18.2558 15.1939 18.1642 14.9729C18.0727 14.7518 18.0487 14.5086 18.0954 14.2739C18.1421 14.0393 18.2573 13.8237 18.4264 13.6546C18.5956 13.4854 18.8112 13.3702 19.0458 13.3235C19.2805 13.2768 19.5237 13.3008 19.7448 13.3923C19.9658 13.4839 20.1547 13.6389 20.2876 13.8379C20.4206 14.0368 20.4915 14.2707 20.4915 14.5099C20.492 14.6692 20.4611 14.8269 20.4005 14.9742C20.34 15.1215 20.251 15.2554 20.1386 15.3682C20.0263 15.481 19.8927 15.5706 19.7457 15.6317C19.5987 15.6929 19.4411 15.7245 19.2818 15.7246V15.7196ZM22.2521 20.5659C22.0125 20.5661 21.7782 20.4953 21.5788 20.3623C21.3795 20.2294 21.2241 20.0403 21.1323 19.8189C21.0405 19.5976 21.0164 19.354 21.0631 19.119C21.1098 18.884 21.2251 18.6681 21.3946 18.4987C21.564 18.3293 21.7799 18.2139 22.0149 18.1672C22.2499 18.1205 22.4935 18.1446 22.7148 18.2364C22.9361 18.3282 23.1252 18.4836 23.2582 18.683C23.3912 18.8823 23.462 19.1166 23.4618 19.3562C23.4624 19.5155 23.4316 19.6733 23.3711 19.8207C23.3106 19.968 23.2216 20.102 23.1092 20.2148C22.9968 20.3277 22.8633 20.4172 22.7162 20.4783C22.5691 20.5395 22.4114 20.5709 22.2521 20.5709V20.5659Z" fill="white"/>
<path d="M35.3471 8.07837H47.2494V11.8844H40.2624V14.8483H45.8277V18.3619H40.2624V21.4991H47.6347V25.3063H35.3471V8.07837Z" fill="white"/>
<path d="M50.1669 21.2569V15.6439H48.6498V12.7038H50.1669V10.0774H54.4799V12.7038H56.962V15.6439H54.4799V20.8479C54.4799 21.7627 54.9379 22.173 55.7573 22.173C56.1769 22.1797 56.5939 22.106 56.9858 21.9559V25.2323C56.2107 25.4584 55.4089 25.5799 54.6016 25.5937C51.7531 25.5937 50.1669 24.2209 50.1669 21.2569Z" fill="white"/>
<path d="M58.9603 7.16333H63.2733V14.7289C63.9471 13.4276 65.3212 12.3672 67.4143 12.3672C69.8487 12.3672 71.534 13.8856 71.534 17.1144V25.3061H67.2248V17.9815C67.2248 16.5597 66.6702 15.8608 65.4178 15.8608C64.1404 15.8608 63.2733 16.6325 63.2733 18.245V25.3048H58.9603V7.16333Z" fill="white"/>
<path d="M73.3189 19.1623V18.969C73.3189 14.9208 76.3305 12.3672 80.1378 12.3672C83.5824 12.3672 86.5464 14.3436 86.5464 18.8724V20.0018H77.6795C77.805 21.6645 78.7637 22.6282 80.3059 22.6282C81.7277 22.6282 82.33 21.9769 82.4982 21.1336H86.5464C86.1611 23.9771 83.9689 25.5909 80.1616 25.5909C76.2101 25.5947 73.3189 23.282 73.3189 19.1623ZM82.3539 17.5711C82.2823 16.054 81.5344 15.2107 80.1378 15.2107C78.8365 15.2107 77.9455 16.054 77.7285 17.5711H82.3539Z" fill="white"/>
<path d="M88.3994 12.7047H92.7124V15.2145C93.5079 13.3322 94.8331 12.5153 96.7844 12.5404V16.5634C94.158 16.4919 92.7124 17.3101 92.7124 19.3342V25.3098H88.3994V12.7047Z" fill="white"/>
<path d="M97.8704 21.3059H101.846C101.99 22.2207 102.399 22.7264 103.629 22.7264C104.688 22.7264 105.17 22.3173 105.17 21.6911C105.17 21.0888 104.568 20.7989 102.833 20.5617C99.4603 20.1288 98.0386 19.1412 98.0386 16.5148C98.0386 13.7202 100.521 12.3738 103.434 12.3738C106.543 12.3738 108.711 13.4341 109 16.4458H105.097C104.928 15.6025 104.47 15.1909 103.482 15.1909C102.542 15.1909 102.06 15.6 102.06 16.1785C102.06 16.7808 102.639 17.0218 104.181 17.215C107.675 17.6479 109.361 18.564 109.361 21.2619C109.361 24.2498 107.145 25.5987 103.652 25.5987C100.064 25.5937 97.9658 24.1029 97.8704 21.3059Z" fill="white"/>
<path d="M111.121 12.7049H115.433V14.5872C115.83 13.901 116.404 13.3337 117.095 12.9438C117.785 12.554 118.567 12.3558 119.36 12.3698C122.299 12.3698 124.685 14.5872 124.685 18.8951V19.0846C124.685 23.4214 122.3 25.5898 119.336 25.5898C117.433 25.5898 116.06 24.6988 115.433 23.4452V29.5175H111.121V12.7049ZM120.3 19.0896V18.8976C120.3 16.6803 119.336 15.6199 117.818 15.6199C116.252 15.6199 115.308 16.7493 115.308 18.8725V19.0658C115.308 21.2103 116.248 22.2945 117.818 22.2945C119.433 22.2945 120.3 21.1614 120.3 19.0846V19.0896Z" fill="white"/>
<path d="M125.938 19.1623V18.969C125.938 14.9208 128.95 12.3672 132.854 12.3672C136.733 12.3672 139.721 14.8493 139.721 18.8485V19.0418C139.721 23.1377 136.709 25.5947 132.83 25.5947C128.951 25.5947 125.938 23.2343 125.938 19.1623ZM135.336 19.0895V18.8975C135.336 16.7768 134.493 15.5959 132.854 15.5959C131.239 15.5959 130.344 16.7253 130.344 18.8485V19.0418C130.344 21.2102 131.188 22.391 132.854 22.391C134.468 22.391 135.336 21.1863 135.336 19.0845V19.0895Z" fill="white"/>
<path d="M142.178 21.2569V15.6439H140.661V12.7038H142.178V10.0774H146.495V12.7038H148.977V15.6439H146.495V20.8479C146.495 21.7627 146.953 22.173 147.772 22.173C148.192 22.1797 148.609 22.106 149.001 21.9559V25.2323C148.225 25.4584 147.424 25.5799 146.616 25.5937C143.768 25.5937 142.178 24.2209 142.178 21.2569Z" fill="white"/>
<path d="M7.83212 2.41936C7.59287 2.41936 7.35899 2.34842 7.16005 2.2155C6.96112 2.08257 6.80608 1.89365 6.71452 1.67261C6.62296 1.45157 6.599 1.20834 6.64568 0.973687C6.69236 0.739031 6.80757 0.523492 6.97674 0.354314C7.14592 0.185137 7.36147 0.0699198 7.59612 0.0232439C7.83078 -0.0234321 8.07401 0.000525304 8.29505 0.0920835C8.51609 0.183642 8.70502 0.338694 8.83794 0.537626C8.97086 0.736558 9.04181 0.97044 9.04181 1.20969C9.04197 1.3686 9.01079 1.52597 8.95006 1.67281C8.88933 1.81965 8.80023 1.95306 8.68787 2.06542C8.57551 2.17779 8.44208 2.26689 8.29524 2.32762C8.1484 2.38836 7.99103 2.41953 7.83212 2.41936Z" fill="white"/>
<path d="M18.0705 2.41936C17.8313 2.41912 17.5975 2.34797 17.3988 2.2149C17.2 2.08182 17.0451 1.89281 16.9538 1.67175C16.8624 1.45069 16.8386 1.20749 16.8855 0.97292C16.9323 0.738347 17.0476 0.522921 17.2168 0.35387C17.386 0.184818 17.6016 0.0697258 17.8362 0.0231515C18.0708 -0.0234228 18.314 0.000610623 18.535 0.0922056C18.7559 0.1838 18.9448 0.338844 19.0776 0.537748C19.2105 0.736653 19.2814 0.970493 19.2814 1.20969C19.2814 1.36866 19.2501 1.52605 19.1892 1.6729C19.1284 1.81974 19.0391 1.95315 18.9267 2.0655C18.8142 2.17785 18.6807 2.26694 18.5338 2.32765C18.3869 2.38837 18.2295 2.41953 18.0705 2.41936Z" fill="white"/>
<path d="M7.71747 26.5681L12.9515 29.714V33.0871L7.71747 26.5681Z" fill="white"/>
<path d="M18.186 26.5681L12.952 29.714V33.0871L18.186 26.5681Z" fill="white"/>
</svg>
