<svg width="34" height="31" viewBox="0 0 34 31" fill="none" xmlns="http://www.w3.org/2000/svg">
<path d="M12.1228 4.43066L13.72 8.47383L4.71188 1.66524L12.1228 4.43066ZM33.0679 23.4472L31.2187 29.721L24.7926 27.953L27.8001 23.3453L33.0679 23.4472ZM2.78102 29.7208L0.943192 23.4472L6.19883 23.3453L9.20632 27.953L2.78102 29.7208Z" fill="#140D1E" stroke="white" stroke-linecap="round" stroke-linejoin="round"/>
<path d="M14.266 21.0666L10.506 19.9599L13.1593 18.7466L14.266 21.0666ZM19.7193 21.0666L20.826 18.7466L23.4927 19.9599L19.7193 21.0666Z" fill="white"/>
<path d="M19.4816 26.0534L18.8416 25.6134H15.1483L14.5083 26.0534L14.175 29.0001L14.4816 28.7067H19.5083L19.8416 29.0001L19.4816 26.0534Z" stroke="white" stroke-linecap="round" stroke-linejoin="round"/>
<path d="M32.3772 10.3914C32.3377 10.5807 32.4111 10.7759 32.5655 10.8924L32.746 11.0287L32.2035 11.4424C32.08 11.5366 32.0072 11.6828 32.0067 11.8382C32.0061 11.9935 32.0778 12.1403 32.2006 12.2354L32.5571 12.5114L31.9296 13.084C31.8184 13.1855 31.7588 13.3318 31.7675 13.4822C31.7762 13.6326 31.8523 13.7711 31.9745 13.8591L32.199 14.0207L31.2176 15.1629L24.6554 13.2432L20.2844 9.54561L32.0515 0.812081L33.4829 5.08386L32.3772 10.3914ZM13.7022 9.54561L9.33128 13.2432L2.77054 15.1625L1.7991 14.0221L2.02549 13.8591C2.14774 13.7711 2.22379 13.6326 2.2325 13.4822C2.2412 13.3318 2.18164 13.1855 2.07036 13.084L1.43937 12.5082L1.78919 12.2329C1.91072 12.1373 1.98116 11.9908 1.97999 11.8362C1.97881 11.6816 1.90614 11.5362 1.78317 11.4424L1.24554 11.0325L1.43095 10.8951C1.5877 10.779 1.66261 10.5823 1.62282 10.3914L0.516966 5.08324L1.93659 0.813108L13.7022 9.54561Z" fill="#140D1E" stroke="white" stroke-linecap="round" stroke-linejoin="round"/>
<path d="M26.9773 17.1087C27.0603 16.9474 27.0496 16.7538 26.9491 16.6027L25.5888 14.558L30.9922 16.1387L33.0447 22.4597H27.5328V22.4596L27.5264 22.4597L24.1983 22.5024L26.9773 17.1087ZM0.9651 22.4597L2.99443 16.1384L8.40272 14.5563L7.04902 16.6039C6.94943 16.7546 6.93881 16.9472 7.02125 17.1079L9.78884 22.5024L6.47255 22.4597L6.47255 22.4597H6.46612H0.9651ZM19.0105 9.34624C18.9933 9.39277 18.9831 9.4416 18.9803 9.49112L18.5405 17.1809L18.3674 19.604C18.3666 19.6152 18.3662 19.6263 18.3661 19.6374L18.3417 25.113H15.645L15.6328 19.6386C15.6328 19.628 15.6324 19.6174 15.6317 19.6068L15.4719 17.1827L15.4717 17.1801L15.0052 9.4894C15.0023 9.44118 14.9924 9.39363 14.9758 9.34825L13.2209 4.53967H20.7881L19.0105 9.34624Z" fill="#140D1E" stroke="white" stroke-linecap="round" stroke-linejoin="round"/>
<path d="M21.8708 4.43295L29.1738 1.70447L20.2139 8.35909L21.8708 4.43295Z" fill="#140D1E" stroke="white" stroke-linecap="round" stroke-linejoin="round"/>
</svg>
