<svg width="47" height="36" viewBox="0 0 47 36" fill="none" xmlns="http://www.w3.org/2000/svg">
<g opacity="0.6">
<path d="M42.2311 6.47077C42.2476 6.70919 42.2476 6.94761 42.2476 7.18822C42.2476 14.5199 36.6661 22.9756 26.4602 22.9756V22.9712C23.4453 22.9756 20.4931 22.112 17.9551 20.4837C18.3935 20.5365 18.834 20.5628 19.2757 20.5639C21.7742 20.5661 24.2012 19.7278 26.1668 18.1841C23.7925 18.1391 21.7105 16.591 20.9831 14.3309C21.8148 14.4913 22.6718 14.4584 23.4882 14.2353C20.8996 13.7124 19.0373 11.438 19.0373 8.79673C19.0373 8.77256 19.0373 8.74949 19.0373 8.72642C19.8086 9.15601 20.6722 9.39443 21.5556 9.4208C19.1175 7.79141 18.366 4.54802 19.8383 2.0122C22.6554 5.47863 26.8118 7.58596 31.2736 7.80899C30.8265 5.88186 31.4373 3.86243 32.8789 2.50772C35.1136 0.406985 38.6284 0.514659 40.7291 2.74834C41.9718 2.50332 43.1628 2.04736 44.2527 1.40132C43.8385 2.68571 42.9716 3.77673 41.8136 4.47001C42.9134 4.34037 43.9879 4.04591 44.9998 3.59654C44.2549 4.71283 43.3166 5.68519 42.2311 6.47077Z" fill="#130C1D" stroke="white"/>
</g>
<path d="M25.5225 14.3254C23.6762 13.4783 21.6963 12.8541 19.6262 12.4966C19.5885 12.4897 19.5508 12.507 19.5314 12.5414C19.2768 12.9943 18.9947 13.5851 18.7972 14.0495C16.5707 13.7162 14.3556 13.7162 12.1747 14.0495C11.9772 13.5748 11.6849 12.9943 11.4291 12.5414C11.4097 12.5081 11.372 12.4909 11.3343 12.4966C9.26538 12.853 7.28549 13.4771 5.43803 14.3254C5.42204 14.3323 5.40833 14.3438 5.39923 14.3587C1.6438 19.9693 0.615029 25.4419 1.11971 30.8467C1.12199 30.8731 1.13684 30.8984 1.15739 30.9145C3.63512 32.7341 6.03522 33.8387 8.39075 34.5709C8.42845 34.5824 8.46839 34.5687 8.49238 34.5376C9.04959 33.7767 9.54628 32.9744 9.97215 32.1306C9.99728 32.0812 9.97329 32.0226 9.92192 32.003C9.13408 31.7042 8.3839 31.3398 7.66227 30.926C7.60519 30.8927 7.60062 30.811 7.65313 30.772C7.80499 30.6582 7.95689 30.5398 8.10189 30.4202C8.12812 30.3984 8.16468 30.3938 8.19552 30.4076C12.9363 32.572 18.0687 32.572 22.7536 30.4076C22.7844 30.3926 22.821 30.3973 22.8483 30.4191C22.9934 30.5386 23.1452 30.6582 23.2982 30.772C23.3508 30.811 23.3473 30.8927 23.2902 30.926C22.5686 31.3478 21.8184 31.7042 21.0294 32.0019C20.9781 32.0214 20.9552 32.0812 20.9804 32.1306C21.4154 32.9732 21.9121 33.7755 22.459 34.5365C22.4818 34.5687 22.5229 34.5824 22.5606 34.5709C24.9276 33.8387 27.3277 32.7341 29.8054 30.9145C29.8271 30.8984 29.8408 30.8743 29.8431 30.8478C30.4471 24.5993 28.8314 19.1716 25.5601 14.3599C25.5521 14.3438 25.5385 14.3323 25.5225 14.3254ZM10.6801 27.5558C9.25281 27.5558 8.07676 26.2454 8.07676 24.6361C8.07676 23.0269 9.23 21.7165 10.6801 21.7165C12.1416 21.7165 13.3063 23.0384 13.2834 24.6361C13.2834 26.2454 12.1302 27.5558 10.6801 27.5558ZM20.3055 27.5558C18.8783 27.5558 17.7022 26.2454 17.7022 24.6361C17.7022 23.0269 18.8554 21.7165 20.3055 21.7165C21.7671 21.7165 22.9317 23.0384 22.9089 24.6361C22.9089 26.2454 21.7671 27.5558 20.3055 27.5558Z" fill="#130C1D" stroke="white"/>
</svg>
