<svg width="48" height="43" viewBox="0 0 48 43" fill="none" xmlns="http://www.w3.org/2000/svg">
<line x1="15.1715" y1="15.314" x2="19.314" y2="12.8285" stroke="white" stroke-linecap="round"/>
<line x1="0.5" y1="-0.5" x2="5.33095" y2="-0.5" transform="matrix(-0.857493 -0.514496 -0.514496 0.857493 33 16)" stroke="white" stroke-linecap="round"/>
<g opacity="0.3">
<mask id="path-3-inside-1_218_356" fill="white">
<rect width="10.2819" height="10.2819" rx="0.5" transform="matrix(0.83205 0.5547 0 1 15.4545 5.42212)"/>
</mask>
<rect width="10.2819" height="10.2819" rx="0.5" transform="matrix(0.83205 0.5547 0 1 15.4545 5.42212)" fill="#130C1D" stroke="white" stroke-width="2" mask="url(#path-3-inside-1_218_356)"/>
<mask id="path-4-inside-2_218_356" fill="white">
<rect width="10.2819" height="10.2819" rx="0.5" transform="matrix(0.83205 -0.5547 0 1 23.9073 11.0809)"/>
</mask>
<rect width="10.2819" height="10.2819" rx="0.5" transform="matrix(0.83205 -0.5547 0 1 23.9073 11.0809)" fill="#130C1D" stroke="white" stroke-width="2" mask="url(#path-4-inside-2_218_356)"/>
<mask id="path-5-inside-3_218_356" fill="white">
<rect width="10.4735" height="10.4735" rx="0.5" transform="matrix(0.83205 0.5547 -0.830139 0.557556 23.9906 0)"/>
</mask>
<rect width="10.4735" height="10.4735" rx="0.5" transform="matrix(0.83205 0.5547 -0.830139 0.557556 23.9906 0)" fill="#130C1D" stroke="white" stroke-width="2" mask="url(#path-5-inside-3_218_356)"/>
</g>
<g opacity="0.65">
<mask id="path-6-inside-4_218_356" fill="white">
<rect width="10.2819" height="10.2819" rx="0.5" transform="matrix(0.83205 0.5547 0 1 30.7487 15.8871)"/>
</mask>
<rect width="10.2819" height="10.2819" rx="0.5" transform="matrix(0.83205 0.5547 0 1 30.7487 15.8871)" fill="#130C1D" stroke="white" stroke-width="2" mask="url(#path-6-inside-4_218_356)"/>
<mask id="path-7-inside-5_218_356" fill="white">
<rect width="10.2819" height="10.2819" rx="0.5" transform="matrix(0.83205 -0.5547 0 1 39.2016 21.5459)"/>
</mask>
<rect width="10.2819" height="10.2819" rx="0.5" transform="matrix(0.83205 -0.5547 0 1 39.2016 21.5459)" fill="#130C1D" stroke="white" stroke-width="2" mask="url(#path-7-inside-5_218_356)"/>
<mask id="path-8-inside-6_218_356" fill="white">
<rect width="10.4735" height="10.4735" rx="0.5" transform="matrix(0.83205 0.5547 -0.830139 0.557556 39.2849 10.465)"/>
</mask>
<rect width="10.4735" height="10.4735" rx="0.5" transform="matrix(0.83205 0.5547 -0.830139 0.557556 39.2849 10.465)" fill="#130C1D" stroke="white" stroke-width="2" mask="url(#path-8-inside-6_218_356)"/>
</g>
<g opacity="0.65">
<mask id="path-9-inside-7_218_356" fill="white">
<rect width="10.2819" height="10.2819" rx="0.5" transform="matrix(0.83205 0.5547 0 1 0.158279 15.8871)"/>
</mask>
<rect width="10.2819" height="10.2819" rx="0.5" transform="matrix(0.83205 0.5547 0 1 0.158279 15.8871)" fill="#130C1D" stroke="white" stroke-width="2" mask="url(#path-9-inside-7_218_356)"/>
<mask id="path-10-inside-8_218_356" fill="white">
<rect width="10.2819" height="10.2819" rx="0.5" transform="matrix(0.83205 -0.5547 0 1 8.6111 21.5459)"/>
</mask>
<rect width="10.2819" height="10.2819" rx="0.5" transform="matrix(0.83205 -0.5547 0 1 8.6111 21.5459)" fill="#130C1D" stroke="white" stroke-width="2" mask="url(#path-10-inside-8_218_356)"/>
<mask id="path-11-inside-9_218_356" fill="white">
<rect width="10.4735" height="10.4735" rx="0.5" transform="matrix(0.83205 0.5547 -0.830139 0.557556 8.69443 10.465)"/>
</mask>
<rect width="10.4735" height="10.4735" rx="0.5" transform="matrix(0.83205 0.5547 -0.830139 0.557556 8.69443 10.465)" fill="#130C1D" stroke="white" stroke-width="2" mask="url(#path-11-inside-9_218_356)"/>
</g>
<line x1="21.3066" y1="29.1387" x2="13.1387" y2="23.6934" stroke="white" stroke-linecap="round"/>
<line x1="0.5" y1="-0.5" x2="10.3167" y2="-0.5" transform="matrix(0.83205 -0.5547 -0.5547 -0.83205 26 29)" stroke="white" stroke-linecap="round"/>
<mask id="path-14-inside-10_218_356" fill="white">
<rect width="10.2819" height="10.2819" rx="0.5" transform="matrix(0.83205 0.5547 0 1 15.4545 26.353)"/>
</mask>
<rect width="10.2819" height="10.2819" rx="0.5" transform="matrix(0.83205 0.5547 0 1 15.4545 26.353)" fill="#130C1D" stroke="white" stroke-width="2" mask="url(#path-14-inside-10_218_356)"/>
<mask id="path-15-inside-11_218_356" fill="white">
<rect width="10.2819" height="10.2819" rx="0.5" transform="matrix(0.83205 -0.5547 0 1 23.9073 32.0118)"/>
</mask>
<rect width="10.2819" height="10.2819" rx="0.5" transform="matrix(0.83205 -0.5547 0 1 23.9073 32.0118)" fill="#130C1D" stroke="white" stroke-width="2" mask="url(#path-15-inside-11_218_356)"/>
<mask id="path-16-inside-12_218_356" fill="white">
<rect width="10.4735" height="10.4735" rx="0.5" transform="matrix(0.83205 0.5547 -0.830139 0.557556 23.9906 20.9309)"/>
</mask>
<rect width="10.4735" height="10.4735" rx="0.5" transform="matrix(0.83205 0.5547 -0.830139 0.557556 23.9906 20.9309)" fill="#130C1D" stroke="white" stroke-width="2" mask="url(#path-16-inside-12_218_356)"/>
</svg>
