<svg width="34" height="32" viewBox="0 0 34 32" fill="none" xmlns="http://www.w3.org/2000/svg">
<path d="M1.67954 0L14.8395 9.94667L12.5062 4.04L1.67954 0ZM27.5329 22.84L23.9995 28.2533L31.5595 30.3333L33.7329 22.96L27.5329 22.84ZM0.279541 22.96L2.43954 30.3333L9.99954 28.2533L6.46621 22.84L0.279541 22.96Z" fill="#140D1E"/>
<path fill-rule="evenodd" clip-rule="evenodd" d="M14.8395 9.94667L12.5062 4.04L1.67954 0L14.8395 9.94667ZM13.1604 7.73741L11.9313 4.62598L6.22818 2.49785L13.1604 7.73741ZM23.9995 28.2533L31.5595 30.3333L33.7329 22.96L27.5329 22.84L23.9995 28.2533ZM25.1892 27.8028L31.0484 29.4148L32.7356 23.6908L27.9338 23.5979L25.1892 27.8028ZM2.43954 30.3333L0.279541 22.96L6.46621 22.84L9.99954 28.2533L2.43954 30.3333ZM2.95189 29.4145L1.27516 23.6908L6.06528 23.5979L8.80984 27.8028L2.95189 29.4145Z" fill="white"/>
<path d="M14.2661 21.0666L10.5061 19.9599L13.1594 18.7466L14.2661 21.0666ZM19.7194 21.0666L20.8261 18.7466L23.4928 19.9599L19.7194 21.0666Z" fill="white"/>
<path fill-rule="evenodd" clip-rule="evenodd" d="M14.9359 25.3044C14.9985 25.2614 15.0725 25.2384 15.1484 25.2384H18.8417C18.9176 25.2384 18.9917 25.2614 19.0542 25.3044L19.6942 25.7444C19.7827 25.8053 19.8409 25.9012 19.854 26.0079L20.214 28.9546C20.2328 29.1091 20.1543 29.2592 20.0167 29.3318C19.879 29.4044 19.7108 29.3844 19.594 29.2816L19.3669 29.0817H14.6322L14.4343 29.2711C14.3202 29.3802 14.15 29.4062 14.0085 29.3361C13.8671 29.266 13.7847 29.1148 13.8024 28.9579L14.1358 26.0112C14.148 25.9033 14.2064 25.8059 14.2959 25.7444L14.9359 25.3044ZM14.6281 28.3317H19.3823L19.13 26.2667L18.7253 25.9884H15.2649L14.8618 26.2655L14.6281 28.3317Z" fill="white"/>
<path d="M32.8667 10.4933L34 5.05333L32.3067 0L19.48 9.52L24.4133 13.6933L31.3867 15.7333L32.9333 13.9333L32.2667 13.4533L33.3333 12.48L32.5067 11.84L33.5733 11.0267L32.8667 10.4933ZM0 5.05333L1.13333 10.4933L0.413333 11.0267L1.48 11.84L0.666667 12.48L1.73333 13.4533L1.06667 13.9333L2.6 15.7333L9.57333 13.6933L14.5067 9.52L1.68 0L0 5.05333Z" fill="#140D1E"/>
<path fill-rule="evenodd" clip-rule="evenodd" d="M32.3381 11.0254C32.1597 10.8482 32.0802 10.5909 32.1324 10.3404L33.2244 5.09913L31.9239 1.21812L20.6867 9.55841L24.7764 13.0181L31.133 14.8777L31.8318 14.0644L31.8284 14.062C31.6451 13.9299 31.531 13.7223 31.5179 13.4967C31.5049 13.2711 31.5942 13.0516 31.7611 12.8993L32.169 12.5271L32.0475 12.433C31.8633 12.2904 31.7558 12.0702 31.7567 11.8372C31.7575 11.6042 31.8666 11.3849 32.0519 11.2436L32.3381 11.0254ZM33.5733 11.0267L32.5067 11.84L33.3333 12.48L32.2667 13.4533L32.9333 13.9333L31.3867 15.7333L24.4133 13.6933L19.48 9.52L32.3067 0L34 5.05333L32.8667 10.4933L33.5733 11.0267ZM1.06667 13.9333L1.73333 13.4533L0.666667 12.48L1.48 11.84L0.413333 11.0267L1.13333 10.4933L0 5.05333L1.68 0L14.5067 9.52L9.57333 13.6933L2.6 15.7333L1.06667 13.9333ZM2.16532 14.0665L2.85581 14.8771L9.21025 13.0181L13.3 9.55841L2.06488 1.21966L0.775448 5.09819L1.86757 10.3404C1.92037 10.5938 1.83851 10.8539 1.65612 11.0311L1.93476 11.2436C2.11921 11.3842 2.22821 11.6023 2.22998 11.8343C2.23175 12.0662 2.12608 12.286 1.94379 12.4294L1.82572 12.5223L2.23887 12.8993C2.40579 13.0516 2.49514 13.2711 2.48208 13.4967C2.46902 13.7223 2.35494 13.9299 2.17156 14.062L2.16532 14.0665Z" fill="white"/>
<path d="M31.3862 15.733L24.4129 13.693L26.5329 16.8797L23.3729 23.013L27.5329 22.9597H33.7329L31.3862 15.733ZM9.57287 13.693L2.59954 15.733L0.279541 22.9597H6.46621L10.6129 23.013L7.46621 16.8797L9.57287 13.693ZM19.0395 17.213L19.4795 9.51967L21.5062 4.03967H12.5062L14.5062 9.51967L14.9729 17.213L15.1329 19.6397L15.1462 25.613H18.8395L18.8662 19.6397L19.0395 17.213Z" fill="#140D1E"/>
<path fill-rule="evenodd" clip-rule="evenodd" d="M27.1573 16.4643C27.308 16.6908 27.3242 16.9813 27.1996 17.2232L24.6112 22.2471L27.5329 22.2096L32.7008 22.2097L30.7953 16.3416L26.1769 14.9905L27.1573 16.4643ZM26.5329 16.8797L23.3729 23.013L27.5329 22.9597H33.7329L31.3862 15.733L24.4129 13.693L26.5329 16.8797ZM7.46621 16.8797L9.57287 13.693L2.59954 15.733L0.279541 22.9597H6.46621L10.6129 23.013L7.46621 16.8797ZM9.37696 22.247L6.7989 17.222C6.67525 16.981 6.69118 16.692 6.84056 16.4661L7.81777 14.9879L3.19202 16.3411L1.30802 22.2097H6.47585L9.37696 22.247ZM18.7308 9.47685C18.735 9.40256 18.7503 9.32931 18.7761 9.25952L20.4292 4.78967H13.5783L15.2108 9.26254C15.2356 9.33061 15.2504 9.40193 15.2548 9.47426L15.7212 17.1637L15.7215 17.1676L15.8812 19.5903C15.8823 19.6062 15.8828 19.6221 15.8829 19.638L15.8945 24.863H18.0929L18.1162 19.6363C18.1163 19.6196 18.1169 19.6029 18.1181 19.5862L18.2911 17.1648L18.7308 9.47685ZM19.0395 17.213L19.4795 9.51967L21.5062 4.03967H12.5062L14.5062 9.51967L14.9729 17.213L15.1329 19.6397L15.1462 25.613H18.8395L18.8662 19.6397L19.0395 17.213Z" fill="white"/>
<path d="M32.3072 0L19.0405 9.85333L21.4939 4.04L32.3072 0Z" fill="#140D1E"/>
<path fill-rule="evenodd" clip-rule="evenodd" d="M32.3072 0L21.4939 4.04L19.0405 9.85333L32.3072 0ZM27.6069 2.55671L22.0592 4.62943L20.8005 7.61196L27.6069 2.55671Z" fill="white"/>
<path fill-rule="evenodd" clip-rule="evenodd" d="M14.9277 25.625H19.066L25.3055 27.8939L19.6182 31.875H14.3713L9.25366 27.8946L14.9277 25.625ZM15.0722 26.375L10.7462 28.1054L14.6286 31.125H19.3817L23.6944 28.1061L18.9339 26.375H15.0722Z" fill="white"/>
<path fill-rule="evenodd" clip-rule="evenodd" d="M9.31104 22.8239L9.68894 22.176L15.6014 25.6249H18.3986L24.311 22.176L24.6889 22.8239L18.6014 26.3749H15.3986L9.31104 22.8239Z" fill="white"/>
</svg>
