<svg width="48" height="43" viewBox="0 0 48 43" fill="none" xmlns="http://www.w3.org/2000/svg">
<path fill-rule="evenodd" clip-rule="evenodd" d="M14.7428 15.5712C14.6008 15.3344 14.6776 15.0273 14.9143 14.8852L19.0568 12.3997C19.2936 12.2576 19.6008 12.3344 19.7428 12.5712C19.8849 12.808 19.8081 13.1151 19.5713 13.2572L15.4288 15.7427C15.192 15.8848 14.8849 15.808 14.7428 15.5712Z" fill="white"/>
<path fill-rule="evenodd" clip-rule="evenodd" d="M33.2572 15.5712C33.3992 15.3344 33.3224 15.0273 33.0857 14.8852L28.9432 12.3997C28.7064 12.2576 28.3992 12.3344 28.2572 12.5712C28.1151 12.808 28.1919 13.1151 28.4287 13.2572L32.5712 15.7427C32.808 15.8848 33.1151 15.808 33.2572 15.5712Z" fill="white"/>
<g opacity="0.3">
<path d="M15.4543 5.92212C15.4543 5.64598 15.6406 5.54629 15.8704 5.69947L23.5934 10.8482C23.8232 11.0013 24.0094 11.3494 24.0094 11.6255V20.9074C24.0094 21.1836 23.8232 21.2833 23.5934 21.1301L15.8704 15.9814C15.6406 15.8282 15.4543 15.4802 15.4543 15.204V5.92212Z" fill="#130C1D"/>
<path fill-rule="evenodd" clip-rule="evenodd" d="M16.2864 6.97682V15.2587L23.1774 19.8527V11.5708L16.2864 6.97682ZM15.8704 5.69947C15.6406 5.54629 15.4543 5.64598 15.4543 5.92212V15.204C15.4543 15.4802 15.6406 15.8282 15.8704 15.9814L23.5934 21.1301C23.8232 21.2833 24.0094 21.1836 24.0094 20.9074V11.6255C24.0094 11.3494 23.8232 11.0013 23.5934 10.8482L15.8704 5.69947Z" fill="white"/>
<path d="M23.9072 11.5809C23.9072 11.3048 24.0935 10.9568 24.3233 10.8036L32.0463 5.65489C32.276 5.50172 32.4623 5.6014 32.4623 5.87754V15.1595C32.4623 15.4356 32.276 15.7836 32.0463 15.9368L24.3233 21.0855C24.0935 21.2387 23.9072 21.139 23.9072 20.8629V11.5809Z" fill="#130C1D"/>
<path fill-rule="evenodd" clip-rule="evenodd" d="M24.7393 11.5262V19.8082L31.6303 15.2142V6.93224L24.7393 11.5262ZM24.3233 10.8036C24.0935 10.9568 23.9072 11.3048 23.9072 11.5809V20.8629C23.9072 21.139 24.0935 21.2387 24.3233 21.0855L32.0463 15.9368C32.276 15.7836 32.4623 15.4356 32.4623 15.1595V5.87754C32.4623 5.6014 32.276 5.50172 32.0463 5.65489L24.3233 10.8036Z" fill="white"/>
<path d="M23.5754 0.278778C23.8046 0.124813 24.1767 0.124174 24.4065 0.27735L32.2889 5.53228C32.5187 5.68546 32.5191 5.93444 32.2899 6.08841L24.4256 11.3704C24.1963 11.5244 23.8242 11.525 23.5945 11.3718L15.7121 6.11689C15.4823 5.96372 15.4819 5.71473 15.7111 5.56076L23.5754 0.278778Z" fill="#130C1D"/>
<path fill-rule="evenodd" clip-rule="evenodd" d="M23.9924 1.11226L16.9582 5.83669L24.0086 10.5369L31.0427 5.81249L23.9924 1.11226ZM24.4065 0.27735C24.1767 0.124174 23.8046 0.124813 23.5754 0.278778L15.7111 5.56076C15.4819 5.71473 15.4823 5.96372 15.7121 6.11689L23.5945 11.3718C23.8242 11.525 24.1963 11.5244 24.4256 11.3704L32.2899 6.08841C32.5191 5.93444 32.5187 5.68546 32.2889 5.53228L24.4065 0.27735Z" fill="white"/>
</g>
<g opacity="0.65">
<path d="M30.7485 16.3871C30.7485 16.1109 30.9348 16.0113 31.1646 16.1644L38.8876 21.3131C39.1174 21.4663 39.3036 21.8143 39.3036 22.0905V31.3724C39.3036 31.6485 39.1174 31.7482 38.8876 31.5951L31.1646 26.4464C30.9348 26.2932 30.7485 25.9452 30.7485 25.669V16.3871Z" fill="#130C1D"/>
<path fill-rule="evenodd" clip-rule="evenodd" d="M31.5806 17.4418V25.7237L38.4716 30.3177V22.0358L31.5806 17.4418ZM31.1646 16.1644C30.9348 16.0113 30.7485 16.1109 30.7485 16.3871V25.669C30.7485 25.9452 30.9348 26.2932 31.1646 26.4464L38.8876 31.5951C39.1174 31.7482 39.3036 31.6485 39.3036 31.3724V22.0905C39.3036 21.8143 39.1174 21.4663 38.8876 21.3131L31.1646 16.1644Z" fill="white"/>
<path d="M39.2014 22.0459C39.2014 21.7698 39.3877 21.4217 39.6174 21.2685L47.3405 16.1199C47.5702 15.9667 47.7565 16.0664 47.7565 16.3425V25.6244C47.7565 25.9006 47.5702 26.2486 47.3405 26.4018L39.6174 31.5505C39.3877 31.7037 39.2014 31.604 39.2014 31.3278V22.0459Z" fill="#130C1D"/>
<path fill-rule="evenodd" clip-rule="evenodd" d="M40.0335 21.9912V30.2731L46.9244 25.6791V17.3972L40.0335 21.9912ZM39.6174 21.2685C39.3877 21.4217 39.2014 21.7698 39.2014 22.0459V31.3278C39.2014 31.604 39.3877 31.7037 39.6174 31.5505L47.3405 26.4018C47.5702 26.2486 47.7565 25.9006 47.7565 25.6244V16.3425C47.7565 16.0664 47.5702 15.9667 47.3405 16.1199L39.6174 21.2685Z" fill="white"/>
<path d="M38.8696 10.7437C39.0988 10.5898 39.4709 10.5891 39.7007 10.7423L47.5831 15.9972C47.8129 16.1504 47.8133 16.3994 47.584 16.5534L39.7198 21.8354C39.4905 21.9893 39.1184 21.99 38.8887 21.8368L31.0063 16.5819C30.7765 16.4287 30.7761 16.1797 31.0053 16.0257L38.8696 10.7437Z" fill="#130C1D"/>
<path fill-rule="evenodd" clip-rule="evenodd" d="M39.2866 11.5772L32.2524 16.3017L39.3028 21.0019L46.3369 16.2775L39.2866 11.5772ZM39.7007 10.7423C39.4709 10.5891 39.0988 10.5898 38.8696 10.7437L31.0053 16.0257C30.7761 16.1797 30.7765 16.4287 31.0063 16.5819L38.8887 21.8368C39.1184 21.99 39.4905 21.9893 39.7198 21.8354L47.584 16.5534C47.8133 16.3994 47.8129 16.1504 47.5831 15.9972L39.7007 10.7423Z" fill="white"/>
</g>
<g opacity="0.65">
<path d="M0.158203 16.3871C0.158203 16.1109 0.344464 16.0113 0.574228 16.1644L8.29726 21.3131C8.52702 21.4663 8.71329 21.8143 8.71329 22.0905V31.3724C8.71329 31.6485 8.52702 31.7482 8.29726 31.5951L0.574229 26.4464C0.344464 26.2932 0.158203 25.9452 0.158203 25.669V16.3871Z" fill="#130C1D"/>
<path fill-rule="evenodd" clip-rule="evenodd" d="M0.990253 17.4418V25.7237L7.88124 30.3177V22.0358L0.990253 17.4418ZM0.574228 16.1644C0.344464 16.0113 0.158203 16.1109 0.158203 16.3871V25.669C0.158203 25.9452 0.344464 26.2932 0.574229 26.4464L8.29726 31.5951C8.52702 31.7482 8.71329 31.6485 8.71329 31.3724V22.0905C8.71329 21.8143 8.52702 21.4663 8.29726 21.3131L0.574228 16.1644Z" fill="white"/>
<path d="M8.61108 22.0459C8.61108 21.7698 8.79734 21.4217 9.02711 21.2685L16.7501 16.1199C16.9799 15.9667 17.1662 16.0664 17.1662 16.3425V25.6244C17.1662 25.9006 16.9799 26.2486 16.7501 26.4018L9.02711 31.5505C8.79735 31.7037 8.61108 31.604 8.61108 31.3278V22.0459Z" fill="#130C1D"/>
<path fill-rule="evenodd" clip-rule="evenodd" d="M9.44313 21.9912V30.2731L16.3341 25.6791V17.3972L9.44313 21.9912ZM9.02711 21.2685C8.79734 21.4217 8.61108 21.7698 8.61108 22.0459V31.3278C8.61108 31.604 8.79735 31.7037 9.02711 31.5505L16.7501 26.4018C16.9799 26.2486 17.1662 25.9006 17.1662 25.6244V16.3425C17.1662 16.0664 16.9799 15.9667 16.7501 16.1199L9.02711 21.2685Z" fill="white"/>
<path d="M8.27927 10.7437C8.5085 10.5898 8.8806 10.5891 9.11036 10.7423L16.9928 15.9972C17.2225 16.1504 17.2229 16.3994 16.9937 16.5534L9.12942 21.8354C8.90018 21.9893 8.52809 21.99 8.29833 21.8368L0.415931 16.5819C0.186167 16.4287 0.185739 16.1797 0.414975 16.0257L8.27927 10.7437Z" fill="#130C1D"/>
<path fill-rule="evenodd" clip-rule="evenodd" d="M8.69625 11.5772L1.6621 16.3017L8.71244 21.0019L15.7466 16.2775L8.69625 11.5772ZM9.11036 10.7423C8.8806 10.5891 8.5085 10.5898 8.27927 10.7437L0.414975 16.0257C0.185739 16.1797 0.186167 16.4287 0.415931 16.5819L8.29833 21.8368C8.52809 21.99 8.90019 21.9893 9.12942 21.8354L16.9937 16.5534C17.2229 16.3994 17.2225 16.1504 16.9928 15.9972L9.11036 10.7423Z" fill="white"/>
</g>
<path fill-rule="evenodd" clip-rule="evenodd" d="M21.7227 29.416C21.5695 29.6458 21.2591 29.7079 21.0293 29.5547L12.8613 24.1094C12.6316 23.9562 12.5695 23.6458 12.7227 23.416C12.8758 23.1862 13.1863 23.1242 13.416 23.2773L21.584 28.7226C21.8138 28.8758 21.8758 29.1862 21.7227 29.416Z" fill="white"/>
<path fill-rule="evenodd" clip-rule="evenodd" d="M26.2773 29.416C26.4305 29.6458 26.7409 29.7079 26.9707 29.5547L35.1387 24.1094C35.3684 23.9562 35.4305 23.6458 35.2773 23.416C35.1242 23.1862 34.8137 23.1242 34.584 23.2773L26.416 28.7226C26.1862 28.8758 26.1242 29.1862 26.2773 29.416Z" fill="white"/>
<path d="M15.4543 26.853C15.4543 26.5769 15.6406 26.4772 15.8704 26.6304L23.5934 31.7791C23.8232 31.9322 24.0094 32.2803 24.0094 32.5564V41.8383C24.0094 42.1145 23.8232 42.2142 23.5934 42.061L15.8704 36.9123C15.6406 36.7591 15.4543 36.4111 15.4543 36.135V26.853Z" fill="#130C1D"/>
<path fill-rule="evenodd" clip-rule="evenodd" d="M16.2864 27.9077V36.1897L23.1774 40.7836V32.5017L16.2864 27.9077ZM15.8704 26.6304C15.6406 26.4772 15.4543 26.5769 15.4543 26.853V36.135C15.4543 36.4111 15.6406 36.7591 15.8704 36.9123L23.5934 42.061C23.8232 42.2142 24.0094 42.1145 24.0094 41.8383V32.5564C24.0094 32.2803 23.8232 31.9322 23.5934 31.7791L15.8704 26.6304Z" fill="white"/>
<path d="M23.9072 32.5118C23.9072 32.2357 24.0935 31.8877 24.3233 31.7345L32.0463 26.5858C32.276 26.4326 32.4623 26.5323 32.4623 26.8085V36.0904C32.4623 36.3665 32.276 36.7146 32.0463 36.8677L24.3233 42.0164C24.0935 42.1696 23.9072 42.0699 23.9072 41.7938V32.5118Z" fill="#130C1D"/>
<path fill-rule="evenodd" clip-rule="evenodd" d="M24.7393 32.4571V40.7391L31.6303 36.1451V27.8632L24.7393 32.4571ZM24.3233 31.7345C24.0935 31.8877 23.9072 32.2357 23.9072 32.5118V41.7938C23.9072 42.0699 24.0935 42.1696 24.3233 42.0164L32.0463 36.8677C32.276 36.7146 32.4623 36.3665 32.4623 36.0904V26.8085C32.4623 26.5323 32.276 26.4326 32.0463 26.5858L24.3233 31.7345Z" fill="white"/>
<path d="M23.5754 21.2097C23.8046 21.0557 24.1767 21.0551 24.4065 21.2083L32.2889 26.4632C32.5187 26.6164 32.5191 26.8654 32.2899 27.0193L24.4256 32.3013C24.1963 32.4553 23.8242 32.4559 23.5945 32.3027L15.7121 27.0478C15.4823 26.8946 15.4819 26.6456 15.7111 26.4917L23.5754 21.2097Z" fill="#130C1D"/>
<path fill-rule="evenodd" clip-rule="evenodd" d="M23.9924 22.0432L16.9582 26.7676L24.0086 31.4678L31.0427 26.7434L23.9924 22.0432ZM24.4065 21.2083C24.1767 21.0551 23.8046 21.0557 23.5754 21.2097L15.7111 26.4917C15.4819 26.6456 15.4823 26.8946 15.7121 27.0478L23.5945 32.3027C23.8242 32.4559 24.1963 32.4553 24.4256 32.3013L32.2899 27.0193C32.5191 26.8654 32.5187 26.6164 32.2889 26.4632L24.4065 21.2083Z" fill="white"/>
</svg>
